<svg version="1.1" viewBox="0.0 0.0 600.0 371.0" fill="none" stroke="none" stroke-linecap="square" stroke-miterlimit="10" width="600" height="371" xmlns:xlink="http://www.w3.org/1999/xlink" xmlns="http://www.w3.org/2000/svg"><path fill="#ffffff" d="M0 0L600.0 0L600.0 371.0L0 371.0L0 0Z" fill-rule="nonzero"/><path stroke="#333333" stroke-width="1.0" stroke-linecap="butt" d="M128.5 66.5L128.5 254.5" fill-rule="nonzero"/><path stroke="#d9d9d9" stroke-width="1.0" stroke-linecap="butt" d="M257.5 66.5L257.5 254.5" fill-rule="nonzero"/><path stroke="#d9d9d9" stroke-width="1.0" stroke-linecap="butt" d="M387.5 66.5L387.5 254.5" fill-rule="nonzero"/><path stroke="#d9d9d9" stroke-width="1.0" stroke-linecap="butt" d="M516.5 66.5L516.5 254.5" fill-rule="nonzero"/><path stroke="#000000" stroke-width="1.0" stroke-linecap="butt" stroke-opacity="0.0" d="M171.5 66.5L171.5 254.5" fill-rule="nonzero"/><path stroke="#000000" stroke-width="1.0" stroke-linecap="butt" stroke-opacity="0.0" d="M214.5 66.5L214.5 254.5" fill-rule="nonzero"/><path stroke="#000000" stroke-width="1.0" stroke-linecap="butt" stroke-opacity="0.0" d="M301.5 66.5L301.5 254.5" fill-rule="nonzero"/><path stroke="#000000" stroke-width="1.0" stroke-linecap="butt" stroke-opacity="0.0" d="M344.5 66.5L344.5 254.5" fill-rule="nonzero"/><path stroke="#000000" stroke-width="1.0" stroke-linecap="butt" stroke-opacity="0.0" d="M430.5 66.5L430.5 254.5" fill-rule="nonzero"/><path stroke="#000000" stroke-width="1.0" stroke-linecap="butt" stroke-opacity="0.0" d="M473.5 66.5L473.5 254.5" fill-rule="nonzero"/><path stroke="#000000" stroke-width="1.0" stroke-linecap="butt" stroke-opacity="0.0" d="M559.5 66.5L559.5 254.5" fill-rule="nonzero"/><path stroke="#cccccc" stroke-width="1.0" stroke-linecap="butt" d="M128.5 254.5L581.5 254.5" fill-rule="nonzero"/><path stroke="#cccccc" stroke-width="1.0" stroke-linecap="butt" d="M128.5 191.5L581.5 191.5" fill-rule="nonzero"/><path stroke="#cccccc" stroke-width="1.0" stroke-linecap="butt" d="M128.5 129.5L581.5 129.5" fill-rule="nonzero"/><path stroke="#cccccc" stroke-width="1.0" stroke-linecap="butt" d="M128.5 66.5L581.5 66.5" fill-rule="nonzero"/><clipPath id="id_0"><path d="M128.55 66.916664L581.45 66.916664L581.45 254.45L128.55 254.45L128.55 66.916664Z" clip-rule="nonzero"/></clipPath><path stroke="#4285f4" stroke-width="8.0" stroke-linecap="butt" clip-path="url(#id_0)" d="M128.55 87.85789L193.25 130.05289L257.95 148.80623L322.65 153.80711L387.35 167.55956L452.05 160.05823L516.75 173.18556L581.45 235.07155" fill-rule="nonzero"/><path stroke="#ea4335" stroke-width="8.0" stroke-linecap="butt" clip-path="url(#id_0)" d="M128.55 87.85789L193.25 95.35922L257.95 133.80356L322.65 130.05289L387.35 149.43134L452.05 142.55511L516.75 155.36989L581.45 211.31734" fill-rule="nonzero"/><path stroke="#fbbc04" stroke-width="8.0" stroke-linecap="butt" clip-path="url(#id_0)" d="M128.55 87.85789L193.25 107.86144L257.95 142.86766L322.65 161.30844L387.35 143.18022L452.05 137.86678L516.75 141.61745L581.45 154.43222" fill-rule="nonzero"/><path fill="#000000" fill-opacity="0.0" clip-path="url(#id_0)" d="M131.55 87.85789C131.55 89.51474 130.20685 90.85789 128.55 90.85789C126.89314 90.85789 125.55 89.51474 125.55 87.85789C125.55 86.201035 126.89314 84.85789 128.55 84.85789C130.20685 84.85789 131.55 86.201035 131.55 87.85789Z" fill-rule="nonzero"/><path fill="#000000" fill-opacity="0.0" clip-path="url(#id_0)" d="M196.25 130.05289C196.25 131.70975 194.90686 133.05289 193.25 133.05289C191.59314 133.05289 190.25 131.70975 190.25 130.05289C190.25 128.39604 191.59314 127.05289 193.25 127.05289C194.90686 127.05289 196.25 128.39604 196.25 130.05289Z" fill-rule="nonzero"/><path fill="#000000" fill-opacity="0.0" clip-path="url(#id_0)" d="M260.95 148.80623C260.95 150.46307 259.60684 151.80623 257.95 151.80623C256.29315 151.80623 254.95 150.46307 254.95 148.80623C254.95 147.14937 256.29315 145.80623 257.95 145.80623C259.60684 145.80623 260.95 147.14937 260.95 148.80623Z" fill-rule="nonzero"/><path fill="#000000" fill-opacity="0.0" clip-path="url(#id_0)" d="M325.65 153.80711C325.65 155.46396 324.30685 156.80711 322.65 156.80711C320.99313 156.80711 319.65 155.46396 319.65 153.80711C319.65 152.15025 320.99313 150.80711 322.65 150.80711C324.30685 150.80711 325.65 152.15025 325.65 153.80711Z" fill-rule="nonzero"/><path fill="#000000" fill-opacity="0.0" clip-path="url(#id_0)" d="M390.35 167.55956C390.35 169.21642 389.00687 170.55956 387.35 170.55956C385.69315 170.55956 384.35 169.21642 384.35 167.55956C384.35 165.9027 385.69315 164.55956 387.35 164.55956C389.00687 164.55956 390.35 165.9027 390.35 167.55956Z" fill-rule="nonzero"/><path fill="#000000" fill-opacity="0.0" clip-path="url(#id_0)" d="M455.05 160.05823C455.05 161.71507 453.70685 163.05823 452.05 163.05823C450.39316 163.05823 449.05 161.71507 449.05 160.05823C449.05 158.40137 450.39316 157.05823 452.05 157.05823C453.70685 157.05823 455.05 158.40137 455.05 160.05823Z" fill-rule="nonzero"/><path fill="#000000" fill-opacity="0.0" clip-path="url(#id_0)" d="M519.75 173.18556C519.75 174.8424 518.40686 176.18556 516.75 176.18556C515.09314 176.18556 513.75 174.8424 513.75 173.18556C513.75 171.5287 515.09314 170.18556 516.75 170.18556C518.40686 170.18556 519.75 171.5287 519.75 173.18556Z" fill-rule="nonzero"/><path fill="#000000" fill-opacity="0.0" clip-path="url(#id_0)" d="M584.45 235.07155C584.45 236.72841 583.1069 238.07155 581.45 238.07155C579.79315 238.07155 578.45 236.72841 578.45 235.07155C578.45 233.4147 579.79315 232.07155 581.45 232.07155C583.1069 232.07155 584.45 233.4147 584.45 235.07155Z" fill-rule="nonzero"/><path fill="#000000" fill-opacity="0.0" clip-path="url(#id_0)" d="M131.55 87.85789C131.55 89.51474 130.20685 90.85789 128.55 90.85789C126.89314 90.85789 125.55 89.51474 125.55 87.85789C125.55 86.201035 126.89314 84.85789 128.55 84.85789C130.20685 84.85789 131.55 86.201035 131.55 87.85789Z" fill-rule="nonzero"/><path fill="#000000" fill-opacity="0.0" clip-path="url(#id_0)" d="M196.25 95.35922C196.25 97.016075 194.90686 98.35922 193.25 98.35922C191.59314 98.35922 190.25 97.016075 190.25 95.35922C190.25 93.70237 191.59314 92.35922 193.25 92.35922C194.90686 92.35922 196.25 93.70237 196.25 95.35922Z" fill-rule="nonzero"/><path fill="#000000" fill-opacity="0.0" clip-path="url(#id_0)" d="M260.95 133.80356C260.95 135.4604 259.60684 136.80356 257.95 136.80356C256.29315 136.80356 254.95 135.4604 254.95 133.80356C254.95 132.1467 256.29315 130.80356 257.95 130.80356C259.60684 130.80356 260.95 132.1467 260.95 133.80356Z" fill-rule="nonzero"/><path fill="#000000" fill-opacity="0.0" clip-path="url(#id_0)" d="M325.65 130.05289C325.65 131.70975 324.30685 133.05289 322.65 133.05289C320.99313 133.05289 319.65 131.70975 319.65 130.05289C319.65 128.39604 320.99313 127.05289 322.65 127.05289C324.30685 127.05289 325.65 128.39604 325.65 130.05289Z" fill-rule="nonzero"/><path fill="#000000" fill-opacity="0.0" clip-path="url(#id_0)" d="M390.35 149.43134C390.35 151.08818 389.00687 152.43134 387.35 152.43134C385.69315 152.43134 384.35 151.08818 384.35 149.43134C384.35 147.77448 385.69315 146.43134 387.35 146.43134C389.00687 146.43134 390.35 147.77448 390.35 149.43134Z" fill-rule="nonzero"/><path fill="#000000" fill-opacity="0.0" clip-path="url(#id_0)" d="M455.05 142.55511C455.05 144.21196 453.70685 145.55511 452.05 145.55511C450.39316 145.55511 449.05 144.21196 449.05 142.55511C449.05 140.89825 450.39316 139.55511 452.05 139.55511C453.70685 139.55511 455.05 140.89825 455.05 142.55511Z" fill-rule="nonzero"/><path fill="#000000" fill-opacity="0.0" clip-path="url(#id_0)" d="M519.75 155.36989C519.75 157.02675 518.40686 158.36989 516.75 158.36989C515.09314 158.36989 513.75 157.02675 513.75 155.36989C513.75 153.71303 515.09314 152.36989 516.75 152.36989C518.40686 152.36989 519.75 153.71303 519.75 155.36989Z" fill-rule="nonzero"/><path fill="#000000" fill-opacity="0.0" clip-path="url(#id_0)" d="M584.45 211.31734C584.45 212.97418 583.1069 214.31734 581.45 214.31734C579.79315 214.31734 578.45 212.97418 578.45 211.31734C578.45 209.66048 579.79315 208.31734 581.45 208.31734C583.1069 208.31734 584.45 209.66048 584.45 211.31734Z" fill-rule="nonzero"/><path fill="#000000" fill-opacity="0.0" clip-path="url(#id_0)" d="M131.55 87.85789C131.55 89.51474 130.20685 90.85789 128.55 90.85789C126.89314 90.85789 125.55 89.51474 125.55 87.85789C125.55 86.201035 126.89314 84.85789 128.55 84.85789C130.20685 84.85789 131.55 86.201035 131.55 87.85789Z" fill-rule="nonzero"/><path fill="#000000" fill-opacity="0.0" clip-path="url(#id_0)" d="M196.25 107.86144C196.25 109.518295 194.90686 110.86144 193.25 110.86144C191.59314 110.86144 190.25 109.518295 190.25 107.86144C190.25 106.20459 191.59314 104.86144 193.25 104.86144C194.90686 104.86144 196.25 106.20459 196.25 107.86144Z" fill-rule="nonzero"/><path fill="#000000" fill-opacity="0.0" clip-path="url(#id_0)" d="M260.95 142.86766C260.95 144.52452 259.60684 145.86766 257.95 145.86766C256.29315 145.86766 254.95 144.52452 254.95 142.86766C254.95 141.21082 256.29315 139.86766 257.95 139.86766C259.60684 139.86766 260.95 141.21082 260.95 142.86766Z" fill-rule="nonzero"/><path fill="#000000" fill-opacity="0.0" clip-path="url(#id_0)" d="M325.65 161.30844C325.65 162.9653 324.30685 164.30844 322.65 164.30844C320.99313 164.30844 319.65 162.9653 319.65 161.30844C319.65 159.6516 320.99313 158.30844 322.65 158.30844C324.30685 158.30844 325.65 159.6516 325.65 161.30844Z" fill-rule="nonzero"/><path fill="#000000" fill-opacity="0.0" clip-path="url(#id_0)" d="M390.35 143.18022C390.35 144.83708 389.00687 146.18022 387.35 146.18022C385.69315 146.18022 384.35 144.83708 384.35 143.18022C384.35 141.52336 385.69315 140.18022 387.35 140.18022C389.00687 140.18022 390.35 141.52336 390.35 143.18022Z" fill-rule="nonzero"/><path fill="#000000" fill-opacity="0.0" clip-path="url(#id_0)" d="M455.05 137.86678C455.05 139.52364 453.70685 140.86678 452.05 140.86678C450.39316 140.86678 449.05 139.52364 449.05 137.86678C449.05 136.20993 450.39316 134.86678 452.05 134.86678C453.70685 134.86678 455.05 136.20993 455.05 137.86678Z" fill-rule="nonzero"/><path fill="#000000" fill-opacity="0.0" clip-path="url(#id_0)" d="M519.75 141.61745C519.75 143.27429 518.40686 144.61745 516.75 144.61745C515.09314 144.61745 513.75 143.27429 513.75 141.61745C513.75 139.96059 515.09314 138.61745 516.75 138.61745C518.40686 138.61745 519.75 139.96059 519.75 141.61745Z" fill-rule="nonzero"/><path fill="#000000" fill-opacity="0.0" clip-path="url(#id_0)" d="M584.45 154.43222C584.45 156.08908 583.1069 157.43222 581.45 157.43222C579.79315 157.43222 578.45 156.08908 578.45 154.43222C578.45 152.77538 579.79315 151.43222 581.45 151.43222C583.1069 151.43222 584.45 152.77538 584.45 154.43222Z" fill-rule="nonzero"/><path fill="#000000" d="M298.42188 346.45L290.92188 346.45L290.92188 345.6219Q291.25 345.59064 291.84375 345.54376Q292.4375 345.4969 292.6875 345.40314Q293.07812 345.2469 293.25 344.9969Q293.42188 344.73126 293.42188 344.2625L293.42188 332.21564Q293.42188 331.79376 293.29688 331.52814Q293.17188 331.2469 292.6875 331.0594Q292.32812 330.91876 291.79688 330.79376Q291.26562 330.66876 290.92188 330.65314L290.92188 329.825L298.42188 329.825L298.42188 330.65314Q298.04688 330.66876 297.54688 330.7469Q297.04688 330.8094 296.67188 330.9344Q296.21875 331.075 296.0625 331.3875Q295.92188 331.7 295.92188 332.09064L295.92188 344.1219Q295.92188 344.5125 296.09375 344.8094Q296.26562 345.10626 296.67188 345.29376Q296.92188 345.3875 297.46875 345.4969Q298.03125 345.60626 298.42188 345.6219L298.42188 346.45ZM319.64062 346.45L314.0 346.45L314.0 345.66876Q314.26562 345.65314 314.54688 345.6375Q314.82812 345.60626 315.03125 345.52814Q315.35938 345.4344 315.51562 345.16876Q315.67188 344.90314 315.67188 344.48126L315.67188 338.5125Q315.67188 337.29376 315.10938 336.6375Q314.5625 335.96564 313.73438 335.96564Q313.15625 335.96564 312.65625 336.15314Q312.15625 336.325 311.73438 336.6375Q311.39062 336.90314 311.15625 337.2Q310.9375 337.4969 310.8125 337.7L310.8125 344.35626Q310.8125 344.77814 310.95312 345.04376Q311.09375 345.29376 311.4375 345.4344Q311.70312 345.54376 311.92188 345.60626Q312.14062 345.65314 312.48438 345.66876L312.48438 346.45L306.96875 346.45L306.96875 345.66876Q307.23438 345.65314 307.48438 345.6375Q307.75 345.60626 307.95312 345.52814Q308.28125 345.4344 308.4375 345.16876Q308.59375 344.90314 308.59375 344.48126L308.59375 338.5125Q308.59375 337.29376 308.03125 336.6375Q307.48438 335.96564 306.65625 335.96564Q306.07812 335.96564 305.57812 336.15314Q305.07812 336.34064 304.65625 336.65314Q304.3125 336.90314 304.07812 337.23126Q303.84375 337.5594 303.71875 337.71564L303.71875 344.34064Q303.71875 344.73126 303.875 345.0125Q304.04688 345.27814 304.375 345.41876Q304.625 345.52814 304.875 345.59064Q305.14062 345.65314 305.45312 345.66876L305.45312 346.45L299.84375 346.45L299.84375 345.66876Q300.10938 345.65314 300.39062 345.6375Q300.6875 345.60626 300.90625 345.52814Q301.23438 345.4344 301.39062 345.16876Q301.54688 344.90314 301.54688 344.48126L301.54688 337.29376Q301.54688 336.91876 301.375 336.6219Q301.20312 336.325 300.90625 336.10626Q300.67188 335.96564 300.34375 335.8875Q300.01562 335.79376 299.67188 335.77814L299.67188 335.0125L303.53125 334.7469L303.70312 334.91876L303.70312 336.575L303.78125 336.575Q304.07812 336.27814 304.5 335.8875Q304.92188 335.48126 305.28125 335.23126Q305.6875 334.95 306.29688 334.7625Q306.92188 334.575 307.64062 334.575Q308.76562 334.575 309.5625 335.1844Q310.375 335.77814 310.73438 336.6375Q311.15625 336.23126 311.46875 335.91876Q311.79688 335.60626 312.32812 335.2625Q312.76562 334.95 313.375 334.7625Q313.98438 334.575 314.71875 334.575Q316.1875 334.575 317.03125 335.54376Q317.89062 336.4969 317.89062 338.4969L317.89062 344.35626Q317.89062 344.77814 318.03125 345.04376Q318.17188 345.29376 318.51562 345.4344Q318.78125 345.54376 319.04688 345.60626Q319.3125 345.65314 319.64062 345.66876L319.64062 346.45ZM331.40625 336.2625Q332.09375 337.09064 332.46875 338.16876Q332.85938 339.2469 332.85938 340.65314Q332.85938 342.0125 332.39062 343.15314Q331.9375 344.27814 331.1875 345.075Q330.40625 345.8875 329.4375 346.325Q328.48438 346.7625 327.40625 346.7625Q326.35938 346.7625 325.6875 346.5125Q325.03125 346.27814 324.60938 345.96564L324.51562 345.96564L324.51562 349.4344Q324.51562 349.85626 324.67188 350.1375Q324.84375 350.41876 325.1875 350.5594Q325.46875 350.65314 325.98438 350.7469Q326.5 350.85626 326.84375 350.8719L326.84375 351.65314L320.39062 351.65314L320.39062 350.8719Q320.75 350.84064 321.09375 350.8094Q321.4375 350.77814 321.70312 350.7Q322.04688 350.575 322.1875 350.27814Q322.32812 349.9969 322.32812 349.59064L322.32812 337.29376Q322.32812 336.95 322.15625 336.6219Q321.98438 336.29376 321.70312 336.09064Q321.48438 335.95 321.10938 335.8719Q320.73438 335.79376 320.39062 335.77814L320.39062 335.0125L324.32812 334.7469L324.48438 334.8875L324.48438 336.2L324.57812 336.21564Q325.1875 335.5125 326.09375 335.04376Q327.0 334.575 327.89062 334.575Q328.96875 334.575 329.85938 335.04376Q330.76562 335.4969 331.40625 336.2625ZM329.5 344.575Q329.96875 343.84064 330.1875 342.8875Q330.40625 341.91876 330.40625 340.7469Q330.40625 339.8719 330.21875 338.98126Q330.03125 338.075 329.64062 337.40314Q329.23438 336.71564 328.59375 336.29376Q327.95312 335.8719 327.04688 335.8719Q326.17188 335.8719 325.5625 336.2625Q324.95312 336.6375 324.51562 337.16876L324.51562 343.9969Q324.625 344.3094 324.85938 344.65314Q325.09375 344.9969 325.39062 345.2469Q325.75 345.52814 326.17188 345.71564Q326.59375 345.90314 327.20312 345.90314Q327.85938 345.90314 328.46875 345.5594Q329.07812 345.2 329.5 344.575ZM340.26562 346.45L334.625 346.45L334.625 345.66876Q334.89062 345.65314 335.1875 345.6219Q335.5 345.59064 335.70312 345.52814Q336.03125 345.4344 336.1875 345.16876Q336.35938 344.90314 336.35938 344.48126L336.35938 331.09064Q336.35938 330.66876 336.17188 330.3094Q336.0 329.9344 335.70312 329.73126Q335.48438 329.59064 334.92188 329.48126Q334.35938 329.35626 334.03125 329.325L334.03125 328.575L338.375 328.3094L338.53125 328.48126L338.53125 344.34064Q338.53125 344.7469 338.6875 345.0125Q338.84375 345.27814 339.1875 345.41876Q339.4375 345.52814 339.6875 345.59064Q339.9375 345.65314 340.26562 345.66876L340.26562 346.45ZM347.45312 346.45L341.875 346.45L341.875 345.66876Q342.14062 345.65314 342.42188 345.6375Q342.71875 345.60626 342.92188 345.52814Q343.25 345.4344 343.40625 345.16876Q343.5625 344.90314 343.5625 344.48126L343.5625 337.34064Q343.5625 336.96564 343.39062 336.65314Q343.23438 336.34064 342.92188 336.1375Q342.70312 335.9969 342.28125 335.90314Q341.85938 335.79376 341.5 335.77814L341.5 335.0125L345.57812 334.7469L345.75 334.91876L345.75 344.34064Q345.75 344.7469 345.90625 345.02814Q346.0625 345.29376 346.40625 345.41876Q346.65625 345.52814 346.90625 345.59064Q347.15625 345.65314 347.45312 345.66876L347.45312 346.45ZM345.98438 330.2Q345.98438 330.85626 345.54688 331.35626Q345.10938 331.85626 344.45312 331.85626Q343.85938 331.85626 343.42188 331.3875Q342.98438 330.90314 342.98438 330.29376Q342.98438 329.65314 343.42188 329.1844Q343.85938 328.7 344.45312 328.7Q345.125 328.7 345.54688 329.15314Q345.98438 329.59064 345.98438 330.2ZM354.1875 346.7625Q351.6875 346.7625 350.26562 345.09064Q348.84375 343.41876 348.84375 340.6219Q348.84375 339.40314 349.21875 338.34064Q349.60938 337.27814 350.32812 336.41876Q351.03125 335.59064 352.0625 335.075Q353.10938 334.5594 354.34375 334.5594Q356.04688 334.5594 357.10938 335.3875Q358.17188 336.2 358.17188 337.60626Q358.17188 338.1844 357.89062 338.6375Q357.60938 339.09064 356.96875 339.09064Q356.28125 339.09064 355.89062 338.7469Q355.51562 338.3875 355.51562 337.95Q355.51562 337.41876 355.65625 336.8719Q355.79688 336.3094 355.8125 336.0594Q355.60938 335.6844 355.1875 335.575Q354.78125 335.45 354.29688 335.45Q353.73438 335.45 353.21875 335.6844Q352.71875 335.91876 352.23438 336.575Q351.79688 337.15314 351.53125 338.15314Q351.26562 339.15314 351.26562 340.52814Q351.26562 342.71564 352.21875 344.09064Q353.1875 345.46564 354.76562 345.46564Q355.90625 345.46564 356.67188 344.91876Q357.4375 344.35626 358.09375 343.2625L358.84375 343.7469Q358.0625 345.1375 356.79688 345.95Q355.53125 346.7625 354.1875 346.7625ZM365.45312 346.45L359.875 346.45L359.875 345.66876Q360.14062 345.65314 360.42188 345.6375Q360.71875 345.60626 360.92188 345.52814Q361.25 345.4344 361.40625 345.16876Q361.5625 344.90314 361.5625 344.48126L361.5625 337.34064Q361.5625 336.96564 361.39062 336.65314Q361.23438 336.34064 360.92188 336.1375Q360.70312 335.9969 360.28125 335.90314Q359.85938 335.79376 359.5 335.77814L359.5 335.0125L363.57812 334.7469L363.75 334.91876L363.75 344.34064Q363.75 344.7469 363.90625 345.02814Q364.0625 345.29376 364.40625 345.41876Q364.65625 345.52814 364.90625 345.59064Q365.15625 345.65314 365.45312 345.66876L365.45312 346.45ZM363.98438 330.2Q363.98438 330.85626 363.54688 331.35626Q363.10938 331.85626 362.45312 331.85626Q361.85938 331.85626 361.42188 331.3875Q360.98438 330.90314 360.98438 330.29376Q360.98438 329.65314 361.42188 329.1844Q361.85938 328.7 362.45312 328.7Q363.125 328.7 363.54688 329.15314Q363.98438 329.59064 363.98438 330.2ZM373.98438 345.95Q373.21875 346.2625 372.53125 346.48126Q371.85938 346.7 370.875 346.7Q369.42188 346.7 368.82812 345.96564Q368.23438 345.23126 368.23438 343.8875L368.23438 336.0594L366.15625 336.0594L366.15625 334.9344L368.28125 334.9344L368.28125 331.34064L370.42188 331.34064L370.42188 334.9344L373.73438 334.9344L373.73438 336.0594L370.4375 336.0594L370.4375 342.52814Q370.4375 343.2469 370.48438 343.73126Q370.54688 344.21564 370.75 344.59064Q370.9375 344.91876 371.3125 345.10626Q371.6875 345.27814 372.3125 345.27814Q372.60938 345.27814 373.17188 345.23126Q373.75 345.16876 373.98438 345.09064L373.98438 345.95ZM387.60938 346.45L381.95312 346.45L381.95312 345.66876Q382.21875 345.65314 382.53125 345.6375Q382.85938 345.60626 383.07812 345.52814Q383.40625 345.4344 383.5625 345.16876Q383.71875 344.90314 383.71875 344.48126L383.71875 338.54376Q383.71875 337.3094 383.14062 336.6375Q382.5625 335.96564 381.71875 335.96564Q381.10938 335.96564 380.59375 336.16876Q380.07812 336.35626 379.67188 336.6375Q379.28125 336.90314 379.04688 337.21564Q378.82812 337.52814 378.71875 337.71564L378.71875 344.35626Q378.71875 344.7625 378.875 345.02814Q379.04688 345.27814 379.375 345.41876Q379.625 345.52814 379.90625 345.59064Q380.20312 345.65314 380.5 345.66876L380.5 346.45L374.84375 346.45L374.84375 345.66876Q375.10938 345.65314 375.39062 345.6375Q375.6875 345.60626 375.90625 345.52814Q376.23438 345.4344 376.39062 345.16876Q376.54688 344.90314 376.54688 344.48126L376.54688 337.34064Q376.54688 336.95 376.375 336.6219Q376.20312 336.27814 375.90625 336.0594Q375.67188 335.91876 375.35938 335.85626Q375.0625 335.79376 374.71875 335.77814L374.71875 335.0125L378.5625 334.7469L378.71875 334.91876L378.71875 336.54376L378.78125 336.54376Q379.0625 336.2625 379.48438 335.8719Q379.90625 335.48126 380.28125 335.23126Q380.71875 334.95 381.3125 334.7625Q381.90625 334.575 382.65625 334.575Q384.32812 334.575 385.125 335.6219Q385.9375 336.65314 385.9375 338.3719L385.9375 344.3875Q385.9375 344.79376 386.07812 345.04376Q386.21875 345.29376 386.54688 345.4344Q386.82812 345.5594 387.03125 345.60626Q387.25 345.65314 387.60938 345.66876L387.60938 346.45ZM399.10938 343.73126Q398.39062 345.10626 397.17188 345.9344Q395.95312 346.7625 394.35938 346.7625Q392.96875 346.7625 391.92188 346.2625Q390.875 345.7625 390.1875 344.91876Q389.51562 344.075 389.17188 342.95Q388.84375 341.825 388.84375 340.575Q388.84375 339.45 389.20312 338.3719Q389.5625 337.27814 390.25 336.41876Q390.92188 335.59064 391.90625 335.075Q392.90625 334.5594 394.125 334.5594Q395.39062 334.5594 396.29688 334.96564Q397.20312 335.35626 397.76562 336.0594Q398.29688 336.71564 398.5625 337.60626Q398.82812 338.4969 398.82812 339.52814L398.82812 340.3094L391.17188 340.3094Q391.17188 341.45 391.39062 342.3719Q391.60938 343.29376 392.07812 343.9969Q392.53125 344.6844 393.26562 345.075Q394.01562 345.46564 395.03125 345.46564Q396.07812 345.46564 396.82812 344.98126Q397.59375 344.4969 398.29688 343.23126L399.10938 343.73126ZM396.51562 339.325Q396.51562 338.66876 396.40625 337.91876Q396.29688 337.16876 396.04688 336.66876Q395.78125 336.1219 395.3125 335.79376Q394.84375 335.45 394.10938 335.45Q392.875 335.45 392.0625 336.48126Q391.25 337.4969 391.17188 339.325L396.51562 339.325ZM408.46875 340.79376Q408.95312 341.21564 409.20312 341.7625Q409.46875 342.3094 409.46875 343.10626Q409.46875 344.71564 408.26562 345.7469Q407.0625 346.7625 405.15625 346.7625Q404.15625 346.7625 403.29688 346.40314Q402.45312 346.02814 402.09375 345.71564L401.85938 346.48126L400.96875 346.48126L400.85938 342.46564L401.67188 342.46564Q401.76562 342.91876 402.0625 343.52814Q402.375 344.1375 402.79688 344.6375Q403.26562 345.15314 403.89062 345.5125Q404.53125 345.85626 405.32812 345.85626Q406.45312 345.85626 407.0625 345.34064Q407.67188 344.825 407.67188 343.8875Q407.67188 343.3875 407.48438 343.02814Q407.29688 342.66876 406.92188 342.40314Q406.53125 342.1375 405.96875 341.91876Q405.40625 341.7 404.71875 341.4969Q404.15625 341.325 403.48438 341.04376Q402.8125 340.7469 402.32812 340.3719Q401.8125 339.95 401.48438 339.35626Q401.15625 338.7625 401.15625 337.95Q401.15625 336.52814 402.20312 335.54376Q403.26562 334.5594 405.04688 334.5594Q405.71875 334.5594 406.42188 334.7469Q407.14062 334.91876 407.57812 335.16876L407.85938 334.5594L408.70312 334.5594L408.875 338.2625L408.0625 338.2625Q407.8125 337.02814 407.0 336.2469Q406.1875 335.46564 405.01562 335.46564Q404.0625 335.46564 403.5 335.95Q402.95312 336.4344 402.95312 337.10626Q402.95312 337.6375 403.125 337.9969Q403.3125 338.34064 403.6875 338.59064Q404.03125 338.825 404.5625 339.02814Q405.09375 339.23126 405.89062 339.48126Q406.65625 339.73126 407.34375 340.0594Q408.03125 340.3875 408.46875 340.79376ZM418.46875 340.79376Q418.95312 341.21564 419.20312 341.7625Q419.46875 342.3094 419.46875 343.10626Q419.46875 344.71564 418.26562 345.7469Q417.0625 346.7625 415.15625 346.7625Q414.15625 346.7625 413.29688 346.40314Q412.45312 346.02814 412.09375 345.71564L411.85938 346.48126L410.96875 346.48126L410.85938 342.46564L411.67188 342.46564Q411.76562 342.91876 412.0625 343.52814Q412.375 344.1375 412.79688 344.6375Q413.26562 345.15314 413.89062 345.5125Q414.53125 345.85626 415.32812 345.85626Q416.45312 345.85626 417.0625 345.34064Q417.67188 344.825 417.67188 343.8875Q417.67188 343.3875 417.48438 343.02814Q417.29688 342.66876 416.92188 342.40314Q416.53125 342.1375 415.96875 341.91876Q415.40625 341.7 414.71875 341.4969Q414.15625 341.325 413.48438 341.04376Q412.8125 340.7469 412.32812 340.3719Q411.8125 339.95 411.48438 339.35626Q411.15625 338.7625 411.15625 337.95Q411.15625 336.52814 412.20312 335.54376Q413.26562 334.5594 415.04688 334.5594Q415.71875 334.5594 416.42188 334.7469Q417.14062 334.91876 417.57812 335.16876L417.85938 334.5594L418.70312 334.5594L418.875 338.2625L418.0625 338.2625Q417.8125 337.02814 417.0 336.2469Q416.1875 335.46564 415.01562 335.46564Q414.0625 335.46564 413.5 335.95Q412.95312 336.4344 412.95312 337.10626Q412.95312 337.6375 413.125 337.9969Q413.3125 338.34064 413.6875 338.59064Q414.03125 338.825 414.5625 339.02814Q415.09375 339.23126 415.89062 339.48126Q416.65625 339.73126 417.34375 340.0594Q418.03125 340.3875 418.46875 340.79376Z" fill-rule="nonzero"/><path fill="#000000" d="M40.55001 233.51146L40.55001 240.87083L39.721886 240.87083Q39.70626 240.46458 39.64376 239.83958Q39.565636 239.21458 39.440636 238.98021Q39.20626 238.62083 38.92501 238.44896Q38.64376 238.27708 38.20626 238.27708L26.112513 238.27708L26.112513 238.44896L40.284386 244.12083L40.284386 244.71458L25.815638 250.10521L25.815638 250.26146L35.73751 250.26146Q37.190636 250.26146 37.940636 250.08958Q38.690636 249.90208 39.01876 249.52708Q39.253136 249.26146 39.48751 248.46458Q39.70626 247.65208 39.721886 247.40208L40.55001 247.40208L40.55001 254.12083L39.721886 254.12083Q39.67501 253.58958 39.55001 253.01146Q39.409386 252.43333 39.159386 252.12083Q38.83126 251.69896 38.159386 251.55833Q37.471886 251.40208 35.878136 251.40208L27.362513 251.40208Q26.628138 251.40208 26.159388 251.57396Q25.690638 251.74583 25.393763 252.07396Q25.081263 252.44896 24.925013 252.98021Q24.768763 253.49583 24.753138 254.01146L23.925013 254.01146L23.925013 248.33958L36.39376 243.58958L25.956263 239.51146Q25.378138 239.29271 24.753138 239.13646Q24.128138 238.98021 23.925013 238.96458L23.925013 233.54271L24.753138 233.54271Q24.768763 233.87083 24.862513 234.38646Q24.956263 234.88646 25.034388 235.12083Q25.175013 235.52708 25.503138 235.66771Q25.831263 235.80833 26.221888 235.80833L38.20626 235.80833Q38.61251 235.80833 38.89376 235.66771Q39.17501 235.52708 39.39376 235.12083Q39.503136 234.91771 39.61251 234.38646Q39.70626 233.83958 39.721886 233.51146L40.55001 233.51146ZM40.55001 226.23021L40.55001 231.80833L39.76876 231.80833Q39.753136 231.54271 39.73751 231.26146Q39.70626 230.96458 39.628136 230.76146Q39.534386 230.43333 39.26876 230.27708Q39.003136 230.12083 38.58126 230.12083L31.440638 230.12083Q31.065638 230.12083 30.753138 230.29271Q30.440638 230.44896 30.237513 230.76146Q30.096888 230.98021 30.003138 231.40208Q29.893763 231.82396 29.878138 232.18333L29.112513 232.18333L28.846888 228.10521L29.018763 227.93333L38.440636 227.93333Q38.846886 227.93333 39.128136 227.77708Q39.39376 227.62083 39.51876 227.27708Q39.628136 227.02708 39.690636 226.77708Q39.753136 226.52708 39.76876 226.23021L40.55001 226.23021ZM24.300013 227.69896Q24.956263 227.69896 25.456263 228.13646Q25.956263 228.57396 25.956263 229.23021Q25.956263 229.82396 25.487513 230.26146Q25.003138 230.69896 24.393763 230.69896Q23.753138 230.69896 23.284388 230.26146Q22.800013 229.82396 22.800013 229.23021Q22.800013 228.55833 23.253138 228.13646Q23.690638 227.69896 24.300013 227.69896ZM40.86251 219.49583Q40.86251 221.99583 39.190636 223.41771Q37.51876 224.83958 34.721886 224.83958Q33.503136 224.83958 32.440636 224.46458Q31.378138 224.07396 30.518763 223.35521Q29.690638 222.65208 29.175013 221.62083Q28.659388 220.57396 28.659388 219.33958Q28.659388 217.63646 29.487513 216.57396Q30.300013 215.51146 31.706263 215.51146Q32.284386 215.51146 32.73751 215.79271Q33.190636 216.07396 33.190636 216.71458Q33.190636 217.40208 32.846886 217.79271Q32.48751 218.16771 32.05001 218.16771Q31.518763 218.16771 30.971888 218.02708Q30.409388 217.88646 30.159388 217.87083Q29.784388 218.07396 29.675013 218.49583Q29.550013 218.90208 29.550013 219.38646Q29.550013 219.94896 29.784388 220.46458Q30.018763 220.96458 30.675013 221.44896Q31.253138 221.88646 32.253136 222.15208Q33.253136 222.41771 34.628136 222.41771Q36.815636 222.41771 38.190636 221.46458Q39.565636 220.49583 39.565636 218.91771Q39.565636 217.77708 39.01876 217.01146Q38.45626 216.24583 37.36251 215.58958L37.846886 214.83958Q39.23751 215.62083 40.05001 216.88646Q40.86251 218.15208 40.86251 219.49583ZM30.487513 204.99583Q31.081263 204.99583 31.550013 205.29271Q32.003136 205.57396 32.003136 206.18333Q32.003136 206.83958 31.675013 207.18333Q31.331263 207.52708 30.909388 207.52708Q30.659388 207.52708 30.456263 207.49583Q30.237513 207.44896 30.018763 207.41771Q30.018763 207.96458 30.471888 208.71458Q30.909388 209.44896 31.737513 209.96458L38.45626 209.96458Q38.878136 209.96458 39.14376 209.80833Q39.39376 209.63646 39.51876 209.30833Q39.628136 209.01146 39.690636 208.55833Q39.753136 208.08958 39.76876 207.74583L40.55001 207.74583L40.55001 213.83958L39.76876 213.83958Q39.753136 213.57396 39.73751 213.29271Q39.70626 212.99583 39.628136 212.77708Q39.534386 212.44896 39.26876 212.29271Q39.003136 212.13646 38.58126 212.13646L31.440638 212.13646Q31.081263 212.13646 30.737513 212.30833Q30.378138 212.48021 30.159388 212.77708Q30.018763 213.01146 29.956263 213.32396Q29.893763 213.62083 29.878138 213.96458L29.112513 213.96458L28.846888 210.12083L29.018763 209.96458L30.643763 209.96458L30.643763 209.90208Q29.690638 209.16771 29.206263 208.27708Q28.706263 207.38646 28.706263 206.65208Q28.706263 205.91771 29.190638 205.46458Q29.675013 204.99583 30.487513 204.99583ZM34.659386 192.57396Q35.878136 192.57396 37.05001 192.96458Q38.221886 193.35521 39.05001 194.05833Q39.98751 194.87083 40.45626 195.94896Q40.909386 197.01146 40.909386 198.32396Q40.909386 199.43333 40.48751 200.43333Q40.065636 201.41771 39.26876 202.19896Q38.48751 202.96458 37.36251 203.41771Q36.221886 203.85521 34.815636 203.85521Q32.11251 203.85521 30.393763 202.29271Q28.659388 200.71458 28.659388 198.15208Q28.659388 195.73021 30.300013 194.15208Q31.940638 192.57396 34.659386 192.57396ZM34.67501 194.99583Q33.80001 194.99583 32.83126 195.18333Q31.846888 195.35521 31.159388 195.69896Q30.440638 196.07396 30.003138 196.68333Q29.550013 197.29271 29.550013 198.18333Q29.550013 199.07396 30.003138 199.71458Q30.440638 200.35521 31.221888 200.76146Q31.940638 201.13646 32.86251 201.29271Q33.76876 201.43333 34.61251 201.43333Q35.73751 201.43333 36.70626 201.26146Q37.659386 201.07396 38.409386 200.66771Q39.159386 200.27708 39.58126 199.68333Q40.003136 199.07396 40.003136 198.18333Q40.003136 196.71458 38.596886 195.85521Q37.17501 194.99583 34.67501 194.99583ZM40.55001 169.02708L40.55001 175.94896L39.721886 175.94896Q39.659386 175.04271 39.48751 174.44896Q39.30001 173.83958 39.05001 173.83958Q38.940636 173.83958 38.80001 173.87083Q38.64376 173.88646 38.51876 173.93333L34.80001 175.30833L34.80001 181.13646Q35.61251 181.46458 36.221886 181.66771Q36.83126 181.87083 37.346886 182.04271Q37.846886 182.18333 38.17501 182.24583Q38.48751 182.30833 38.690636 182.30833Q39.159386 182.30833 39.42501 181.57396Q39.67501 180.82396 39.721886 179.90208L40.55001 179.90208L40.55001 186.16771L39.721886 186.16771Q39.690636 185.85521 39.58126 185.40208Q39.471886 184.94896 39.284386 184.65208Q38.971886 184.18333 38.628136 183.93333Q38.26876 183.66771 37.659386 183.41771Q34.534386 182.16771 30.643763 180.65208Q26.737513 179.13646 23.690638 177.96458L23.690638 177.02708L38.034386 171.48021Q38.48751 171.30833 38.76876 171.08958Q39.05001 170.85521 39.315636 170.46458Q39.48751 170.18333 39.596886 169.76146Q39.70626 169.32396 39.721886 169.02708L40.55001 169.02708ZM33.753136 175.73021L27.300013 178.24583L33.753136 180.73021L33.753136 175.73021ZM40.86251 163.49583Q40.86251 165.99583 39.190636 167.41771Q37.51876 168.83958 34.721886 168.83958Q33.503136 168.83958 32.440636 168.46458Q31.378138 168.07396 30.518763 167.35521Q29.690638 166.65208 29.175013 165.62083Q28.659388 164.57396 28.659388 163.33958Q28.659388 161.63646 29.487513 160.57396Q30.300013 159.51146 31.706263 159.51146Q32.284386 159.51146 32.73751 159.79271Q33.190636 160.07396 33.190636 160.71458Q33.190636 161.40208 32.846886 161.79271Q32.48751 162.16771 32.05001 162.16771Q31.518763 162.16771 30.971888 162.02708Q30.409388 161.88646 30.159388 161.87083Q29.784388 162.07396 29.675013 162.49583Q29.550013 162.90208 29.550013 163.38646Q29.550013 163.94896 29.784388 164.46458Q30.018763 164.96458 30.675013 165.44896Q31.253138 165.88646 32.253136 166.15208Q33.253136 166.41771 34.628136 166.41771Q36.815636 166.41771 38.190636 165.46458Q39.565636 164.49583 39.565636 162.91771Q39.565636 161.77708 39.01876 161.01146Q38.45626 160.24583 37.36251 159.58958L37.846886 158.83958Q39.23751 159.62083 40.05001 160.88646Q40.86251 162.15208 40.86251 163.49583ZM40.86251 152.49583Q40.86251 154.99583 39.190636 156.41771Q37.51876 157.83958 34.721886 157.83958Q33.503136 157.83958 32.440636 157.46458Q31.378138 157.07396 30.518763 156.35521Q29.690638 155.65208 29.175013 154.62083Q28.659388 153.57396 28.659388 152.33958Q28.659388 150.63646 29.487513 149.57396Q30.300013 148.51146 31.706263 148.51146Q32.284386 148.51146 32.73751 148.79271Q33.190636 149.07396 33.190636 149.71458Q33.190636 150.40208 32.846886 150.79271Q32.48751 151.16771 32.05001 151.16771Q31.518763 151.16771 30.971888 151.02708Q30.409388 150.88646 30.159388 150.87083Q29.784388 151.07396 29.675013 151.49583Q29.550013 151.90208 29.550013 152.38646Q29.550013 152.94896 29.784388 153.46458Q30.018763 153.96458 30.675013 154.44896Q31.253138 154.88646 32.253136 155.15208Q33.253136 155.41771 34.628136 155.41771Q36.815636 155.41771 38.190636 154.46458Q39.565636 153.49583 39.565636 151.91771Q39.565636 150.77708 39.01876 150.01146Q38.45626 149.24583 37.36251 148.58958L37.846886 147.83958Q39.23751 148.62083 40.05001 149.88646Q40.86251 151.15208 40.86251 152.49583ZM40.33126 134.44896L40.596886 138.21458L40.42501 138.38646L38.971886 138.38646L38.971886 138.46458Q39.253136 138.74583 39.596886 139.10521Q39.92501 139.44896 40.190636 139.90208Q40.51876 140.43333 40.67501 140.93333Q40.846886 141.41771 40.846886 142.30833Q40.846886 143.85521 39.846886 144.65208Q38.83126 145.44896 36.92501 145.44896L31.393763 145.44896Q30.971888 145.44896 30.690638 145.62083Q30.393763 145.77708 30.190638 146.07396Q30.050013 146.29271 29.987513 146.60521Q29.925013 146.91771 29.893763 147.27708L29.128138 147.27708L28.846888 143.41771L29.018763 143.24583L37.05001 143.24583Q38.30001 143.24583 38.940636 142.68333Q39.565636 142.12083 39.565636 141.32396Q39.565636 140.68333 39.36251 140.18333Q39.159386 139.68333 38.89376 139.33958Q38.64376 139.02708 38.378136 138.79271Q38.096886 138.54271 37.86251 138.41771L31.315638 138.41771Q30.925013 138.41771 30.628138 138.58958Q30.331263 138.74583 30.112513 139.02708Q29.971888 139.24583 29.956263 139.66771Q29.925013 140.07396 29.893763 140.58958L29.128138 140.58958L28.846888 136.40208L29.018763 136.21458L38.190636 136.21458Q38.596886 136.21458 38.878136 136.05833Q39.159386 135.88646 39.346886 135.60521Q39.48751 135.38646 39.534386 135.10521Q39.565636 134.80833 39.58126 134.44896L40.33126 134.44896ZM30.487513 123.995834Q31.081263 123.995834 31.550013 124.29271Q32.003136 124.57396 32.003136 125.183334Q32.003136 125.839584 31.675013 126.183334Q31.331263 126.527084 30.909388 126.527084Q30.659388 126.527084 30.456263 126.495834Q30.237513 126.44896 30.018763 126.41771Q30.018763 126.964584 30.471888 127.714584Q30.909388 128.44896 31.737513 128.96458L38.45626 128.96458Q38.878136 128.96458 39.14376 128.80833Q39.39376 128.63646 39.51876 128.30833Q39.628136 128.01146 39.690636 127.558334Q39.753136 127.089584 39.76876 126.745834L40.55001 126.745834L40.55001 132.83958L39.76876 132.83958Q39.753136 132.57396 39.73751 132.29271Q39.70626 131.99583 39.628136 131.77708Q39.534386 131.44896 39.26876 131.29271Q39.003136 131.13646 38.58126 131.13646L31.440638 131.13646Q31.081263 131.13646 30.737513 131.30833Q30.378138 131.48021 30.159388 131.77708Q30.018763 132.01146 29.956263 132.32396Q29.893763 132.62083 29.878138 132.96458L29.112513 132.96458L28.846888 129.12083L29.018763 128.96458L30.643763 128.96458L30.643763 128.90208Q29.690638 128.16771 29.206263 127.277084Q28.706263 126.38646 28.706263 125.652084Q28.706263 124.91771 29.190638 124.464584Q29.675013 123.995834 30.487513 123.995834ZM40.33126 111.88646Q40.534386 112.44896 40.659386 112.870834Q40.784386 113.277084 40.784386 113.808334Q40.784386 114.714584 40.36251 115.26146Q39.92501 115.808334 39.11251 115.964584L39.11251 116.027084Q39.95626 116.79271 40.409386 117.66771Q40.846886 118.54271 40.846886 119.76146Q40.846886 121.07396 40.05001 121.91771Q39.253136 122.745834 37.95626 122.745834Q37.284386 122.745834 36.76876 122.558334Q36.23751 122.370834 35.815636 121.995834Q35.45626 121.69896 35.190636 121.23021Q34.909386 120.745834 34.753136 120.32396Q34.55001 119.79271 34.01876 118.183334Q33.471886 116.57396 33.159386 116.01146L32.003136 116.01146Q31.846888 116.01146 31.425013 116.07396Q30.987513 116.13646 30.596888 116.339584Q30.159388 116.57396 29.846888 117.01146Q29.518763 117.433334 29.518763 118.214584Q29.518763 118.76146 29.706263 119.23021Q29.878138 119.683334 30.081263 119.870834Q30.315638 119.870834 30.784388 119.76146Q31.237513 119.652084 31.612513 119.652084Q32.034386 119.652084 32.378136 120.027084Q32.70626 120.38646 32.70626 121.04271Q32.70626 121.63646 32.30001 121.91771Q31.878138 122.183334 31.362513 122.183334Q30.815638 122.183334 30.331263 121.808334Q29.831263 121.41771 29.456263 120.808334Q29.128138 120.277084 28.893763 119.527084Q28.659388 118.777084 28.659388 118.07396Q28.659388 117.089584 28.800013 116.35521Q28.940638 115.620834 29.378138 115.027084Q29.815638 114.41771 30.565638 114.120834Q31.300013 113.808334 32.471886 113.808334Q34.14376 113.808334 35.440636 113.839584Q36.73751 113.870834 38.26876 113.870834Q38.73751 113.870834 39.003136 113.714584Q39.26876 113.558334 39.45626 113.23021Q39.565636 113.058334 39.58126 112.683334Q39.58126 112.29271 39.58126 111.88646L40.33126 111.88646ZM34.14376 115.98021Q34.440636 116.98021 34.721886 117.73021Q35.003136 118.48021 35.42501 119.120834Q35.83126 119.714584 36.378136 120.058334Q36.909386 120.38646 37.659386 120.38646Q38.64376 120.38646 39.096886 119.88646Q39.55001 119.370834 39.55001 118.589584Q39.55001 117.745834 39.14376 117.120834Q38.73751 116.48021 38.190636 116.058334L34.14376 115.98021ZM40.86251 105.495834Q40.86251 107.995834 39.190636 109.41771Q37.51876 110.839584 34.721886 110.839584Q33.503136 110.839584 32.440636 110.464584Q31.378138 110.07396 30.518763 109.35521Q29.690638 108.652084 29.175013 107.620834Q28.659388 106.57396 28.659388 105.339584Q28.659388 103.63646 29.487513 102.57396Q30.300013 101.51146 31.706263 101.51146Q32.284386 101.51146 32.73751 101.79271Q33.190636 102.07396 33.190636 102.714584Q33.190636 103.402084 32.846886 103.79271Q32.48751 104.16771 32.05001 104.16771Q31.518763 104.16771 30.971888 104.027084Q30.409388 103.88646 30.159388 103.870834Q29.784388 104.07396 29.675013 104.495834Q29.550013 104.902084 29.550013 105.38646Q29.550013 105.94896 29.784388 106.464584Q30.018763 106.964584 30.675013 107.44896Q31.253138 107.88646 32.253136 108.152084Q33.253136 108.41771 34.628136 108.41771Q36.815636 108.41771 38.190636 107.464584Q39.565636 106.495834 39.565636 104.91771Q39.565636 103.777084 39.01876 103.01146Q38.45626 102.245834 37.36251 101.589584L37.846886 100.839584Q39.23751 101.620834 40.05001 102.88646Q40.86251 104.152084 40.86251 105.495834ZM44.33126 100.714584Q43.73751 100.714584 43.36251 100.402084Q43.003136 100.07396 43.003136 99.589584Q43.003136 99.214584 43.14376 98.94896Q43.284386 98.683334 43.503136 98.464584Q43.67501 98.29271 43.971886 98.089584Q44.284386 97.88646 44.48751 97.777084Q44.17501 97.183334 42.83126 96.370834Q41.503136 95.558334 40.48751 95.19896Q37.70626 96.308334 35.51876 97.214584Q33.33126 98.120834 30.987513 99.10521Q30.440638 99.32396 30.143763 99.85521Q29.846888 100.370834 29.768763 100.902084L28.987513 100.902084L28.987513 95.63646L29.815638 95.63646Q29.831263 95.98021 29.971888 96.48021Q30.096888 96.964584 30.268763 96.964584Q30.346888 96.964584 30.518763 96.91771Q30.675013 96.85521 30.846888 96.79271Q32.003136 96.339584 34.190636 95.433334Q36.378136 94.51146 37.690636 94.01146Q36.440636 93.48021 35.096886 92.91771Q33.753136 92.35521 31.925013 91.652084Q31.706263 91.558334 31.315638 91.41771Q30.909388 91.26146 30.628138 91.26146Q30.331263 91.26146 30.065638 91.79271Q29.800013 92.32396 29.737513 92.808334L28.987513 92.808334L28.987513 88.51146L29.721888 88.51146Q29.784388 88.870834 30.128138 89.44896Q30.471888 90.01146 31.096888 90.29271Q34.33126 91.69896 37.003136 92.777084Q39.659386 93.85521 40.909386 94.41771Q42.55001 95.16771 43.471886 95.745834Q44.39376 96.32396 44.92501 96.870834Q45.409386 97.41771 45.58126 97.85521Q45.753136 98.29271 45.753136 98.76146Q45.753136 99.66771 45.315636 100.19896Q44.89376 100.714584 44.33126 100.714584Z" fill-rule="nonzero"/><path fill="#000000" d="M106.14375 260.575L104.15938 260.575L104.15938 265.0125L102.28438 265.0125L102.28438 260.575L96.03438 260.575L96.03438 259.0594L102.87813 250.71564L104.15938 250.71564L104.15938 259.29376L106.14375 259.29376L106.14375 260.575ZM102.28438 259.29376L102.28438 252.88751L97.00313 259.29376L102.28438 259.29376ZM116.58125 252.32501Q117.20625 253.07501 117.50313 254.09064Q117.81563 255.10626 117.81563 256.2Q117.81563 257.52814 117.44063 258.59064Q117.06563 259.6375 116.39375 260.325Q115.70625 261.04376 114.76875 261.40314Q113.83125 261.7625 112.69063 261.7625Q111.425 261.7625 110.44063 261.34064Q109.45625 260.91876 108.83125 260.1844Q108.19063 259.4344 107.8625 258.41876Q107.55 257.3875 107.55 256.2Q107.55 255.04376 107.8625 254.07501Q108.175 253.09064 108.83125 252.29376Q109.45625 251.54376 110.44063 251.10626Q111.425 250.65314 112.69063 250.65314Q114.03438 250.65314 114.9875 251.10626Q115.94063 251.55939 116.58125 252.32501ZM115.65938 256.2Q115.65938 253.88751 114.8625 252.60626Q114.06563 251.32501 112.70625 251.32501Q111.31563 251.32501 110.51875 252.60626Q109.72188 253.88751 109.72188 256.2Q109.72188 258.41876 110.4875 259.7625Q111.25313 261.09064 112.69063 261.09064Q114.1125 261.09064 114.87813 259.7625Q115.65938 258.41876 115.65938 256.2Z" fill-rule="nonzero"/><path fill="#000000" d="M106.05 194.43889Q106.05 195.45451 105.675 196.34514Q105.31563 197.23576 104.70625 197.86076Q103.9875 198.56389 103.1125 198.90764Q102.25313 199.25139 101.31563 199.25139Q100.2375 199.25139 99.3625 198.86076Q98.4875 198.45451 97.8625 197.72014Q97.2375 196.97014 96.89375 195.90764Q96.55 194.82951 96.55 193.48576Q96.55 190.00139 98.62813 187.61076Q100.70625 185.22014 104.19063 184.73576L104.3625 185.61076L103.4875 185.76701Q101.37813 186.45451 100.20625 187.90764Q99.05 189.34514 98.72188 191.40764Q99.55 190.67326 100.3625 190.37639Q101.19063 190.06389 102.09688 190.06389Q103.7375 190.06389 104.89375 191.31389Q106.05 192.56389 106.05 194.43889ZM103.925 194.70451Q103.925 193.11076 103.19063 192.15764Q102.47188 191.20451 101.25313 191.20451Q100.51875 191.20451 99.89375 191.48576Q99.26875 191.75139 98.675 192.39201Q98.65938 192.51701 98.64375 192.93889Q98.62813 193.36076 98.62813 193.61076Q98.62813 195.89201 99.37813 197.18889Q100.12813 198.48576 101.34688 198.48576Q102.50313 198.48576 103.20625 197.47014Q103.925 196.45451 103.925 194.70451ZM116.58125 189.81389Q117.20625 190.56389 117.50313 191.57951Q117.81563 192.59514 117.81563 193.68889Q117.81563 195.01701 117.44063 196.07951Q117.06563 197.12639 116.39375 197.81389Q115.70625 198.53264 114.76875 198.89201Q113.83125 199.25139 112.69063 199.25139Q111.425 199.25139 110.44063 198.82951Q109.45625 198.40764 108.83125 197.67326Q108.19063 196.92326 107.8625 195.90764Q107.55 194.87639 107.55 193.68889Q107.55 192.53264 107.8625 191.56389Q108.175 190.57951 108.83125 189.78264Q109.45625 189.03264 110.44063 188.59514Q111.425 188.14201 112.69063 188.14201Q114.03438 188.14201 114.9875 188.59514Q115.94063 189.04826 116.58125 189.81389ZM115.65938 193.68889Q115.65938 191.37639 114.8625 190.09514Q114.06563 188.81389 112.70625 188.81389Q111.31563 188.81389 110.51875 190.09514Q109.72188 191.37639 109.72188 193.68889Q109.72188 195.90764 110.4875 197.25139Q111.25313 198.57951 112.69063 198.57951Q114.1125 198.57951 114.87813 197.25139Q115.65938 195.90764 115.65938 193.68889Z" fill-rule="nonzero"/><path fill="#000000" d="M105.45625 132.7559Q105.45625 134.39653 104.03438 135.58403Q102.62813 136.7559 100.31563 136.7559Q98.15938 136.7559 96.8625 135.67778Q95.56563 134.58403 95.56563 132.8809Q95.56563 131.61528 96.33125 130.77153Q97.09688 129.92778 98.59688 129.34966Q97.3625 128.64653 96.7375 127.818405Q96.12813 126.99028 96.12813 125.943405Q96.12813 124.349655 97.47188 123.287155Q98.83125 122.20903 100.72188 122.20903Q102.6125 122.20903 103.76875 123.224655Q104.94063 124.24028 104.94063 125.77153Q104.94063 126.755905 104.3 127.64653Q103.65938 128.52153 102.40938 129.09966Q104.01875 129.78716 104.7375 130.6309Q105.45625 131.45903 105.45625 132.7559ZM103.09688 125.662155Q103.09688 124.474655 102.37813 123.724655Q101.675 122.974655 100.58125 122.974655Q99.47188 122.974655 98.76875 123.693405Q98.06563 124.412155 98.06563 125.474655Q98.06563 126.505905 98.8625 127.224655Q99.675 127.92778 101.72188 128.74028Q102.45625 128.27153 102.76875 127.505905Q103.09688 126.724655 103.09688 125.662155ZM103.50313 133.20903Q103.50313 132.59966 103.2375 132.14653Q102.97188 131.67778 102.4875 131.28716Q102.00313 130.91216 101.14375 130.52153Q100.3 130.11528 99.3 129.6934Q98.3625 130.1934 97.925 130.99028Q97.4875 131.77153 97.4875 132.77153Q97.4875 134.20903 98.33125 135.09966Q99.175 135.97466 100.58125 135.97466Q101.925 135.97466 102.70625 135.1934Q103.50313 134.41216 103.50313 133.20903ZM116.58125 127.30278Q117.20625 128.05278 117.50313 129.0684Q117.81563 130.08403 117.81563 131.17778Q117.81563 132.5059 117.44063 133.5684Q117.06563 134.61528 116.39375 135.30278Q115.70625 136.02153 114.76875 136.3809Q113.83125 136.74028 112.69063 136.74028Q111.425 136.74028 110.44063 136.3184Q109.45625 135.89653 108.83125 135.16216Q108.19063 134.41216 107.8625 133.39653Q107.55 132.36528 107.55 131.17778Q107.55 130.02153 107.8625 129.05278Q108.175 128.0684 108.83125 127.27153Q109.45625 126.52153 110.44063 126.08403Q111.425 125.630905 112.69063 125.630905Q114.03438 125.630905 114.9875 126.08403Q115.94063 126.537155 116.58125 127.30278ZM115.65938 131.17778Q115.65938 128.86528 114.8625 127.58403Q114.06563 126.30278 112.70625 126.30278Q111.31563 126.30278 110.51875 127.58403Q109.72188 128.86528 109.72188 131.17778Q109.72188 133.39653 110.4875 134.74028Q111.25313 136.0684 112.69063 136.0684Q114.1125 136.0684 114.87813 134.74028Q115.65938 133.39653 115.65938 131.17778Z" fill-rule="nonzero"/><path fill="#000000" d="M93.45625 73.916664L86.8625 73.916664L86.8625 73.229164Q87.15938 73.197914 87.78438 73.135414Q88.40938 73.072914 88.64375 73.010414Q88.94063 72.916664 89.09688 72.697914Q89.26875 72.46354 89.26875 72.02604L89.26875 65.18229L86.83125 65.18229L86.83125 64.354164L87.3625 64.354164Q88.425 64.354164 89.25313 63.96354Q90.09688 63.572914 90.45625 63.11979L91.26875 63.11979Q91.2375 63.760414 91.20625 64.61979Q91.175 65.46354 91.175 66.135414L91.175 71.916664Q91.175 72.260414 91.31563 72.541664Q91.47188 72.80729 91.76875 72.93229Q92.01875 73.041664 92.59688 73.135414Q93.175 73.21354 93.45625 73.229164L93.45625 73.916664ZM104.58125 64.791664Q105.20625 65.541664 105.50313 66.55729Q105.81563 67.572914 105.81563 68.666664Q105.81563 69.99479 105.44063 71.05729Q105.06563 72.104164 104.39375 72.791664Q103.70625 73.510414 102.76875 73.86979Q101.83125 74.229164 100.69063 74.229164Q99.425 74.229164 98.44063 73.80729Q97.45625 73.385414 96.83125 72.65104Q96.19063 71.90104 95.8625 70.885414Q95.55 69.854164 95.55 68.666664Q95.55 67.510414 95.8625 66.541664Q96.175 65.55729 96.83125 64.760414Q97.45625 64.010414 98.44063 63.572914Q99.425 63.11979 100.69063 63.11979Q102.03438 63.11979 102.9875 63.572914Q103.94063 64.02604 104.58125 64.791664ZM103.65938 68.666664Q103.65938 66.354164 102.8625 65.072914Q102.06563 63.791664 100.70625 63.791664Q99.31563 63.791664 98.51875 65.072914Q97.72188 66.354164 97.72188 68.666664Q97.72188 70.885414 98.4875 72.229164Q99.25313 73.55729 100.69063 73.55729Q102.1125 73.55729 102.87813 72.229164Q103.65938 70.885414 103.65938 68.666664ZM116.58125 64.791664Q117.20625 65.541664 117.50313 66.55729Q117.81563 67.572914 117.81563 68.666664Q117.81563 69.99479 117.44063 71.05729Q117.06563 72.104164 116.39375 72.791664Q115.70625 73.510414 114.76875 73.86979Q113.83125 74.229164 112.69063 74.229164Q111.425 74.229164 110.44063 73.80729Q109.45625 73.385414 108.83125 72.65104Q108.19063 71.90104 107.8625 70.885414Q107.55 69.854164 107.55 68.666664Q107.55 67.510414 107.8625 66.541664Q108.175 65.55729 108.83125 64.760414Q109.45625 64.010414 110.44063 63.572914Q111.425 63.11979 112.69063 63.11979Q114.03438 63.11979 114.9875 63.572914Q115.94063 64.02604 116.58125 64.791664ZM115.65938 68.666664Q115.65938 66.354164 114.8625 65.072914Q114.06563 63.791664 112.70625 63.791664Q111.31563 63.791664 110.51875 65.072914Q109.72188 66.354164 109.72188 68.666664Q109.72188 70.885414 110.4875 72.229164Q111.25313 73.55729 112.69063 73.55729Q114.1125 73.55729 114.87813 72.229164Q115.65938 70.885414 115.65938 68.666664Z" fill-rule="nonzero"/><path fill="#000000" d="M124.08125 274.325Q124.70625 275.075 125.00313 276.09064Q125.31563 277.10626 125.31563 278.2Q125.31563 279.52814 124.94063 280.59064Q124.56563 281.6375 123.89375 282.325Q123.20625 283.04376 122.26875 283.40314Q121.33125 283.7625 120.19063 283.7625Q118.925 283.7625 117.94063 283.34064Q116.95625 282.91876 116.33125 282.1844Q115.69063 281.4344 115.3625 280.41876Q115.05 279.3875 115.05 278.2Q115.05 277.04376 115.3625 276.075Q115.675 275.09064 116.33125 274.29376Q116.95625 273.54376 117.94063 273.10626Q118.925 272.65314 120.19063 272.65314Q121.53438 272.65314 122.4875 273.10626Q123.44063 273.5594 124.08125 274.325ZM123.15938 278.2Q123.15938 275.8875 122.3625 274.60626Q121.56563 273.325 120.20625 273.325Q118.81563 273.325 118.01875 274.60626Q117.22188 275.8875 117.22188 278.2Q117.22188 280.41876 117.9875 281.7625Q118.75313 283.09064 120.19063 283.09064Q121.6125 283.09064 122.37813 281.7625Q123.15938 280.41876 123.15938 278.2ZM130.09688 282.325Q130.09688 282.8719 129.70625 283.2625Q129.31563 283.65314 128.76875 283.65314Q128.22188 283.65314 127.81563 283.2625Q127.425 282.8719 127.425 282.325Q127.425 281.77814 127.81563 281.3875Q128.22188 280.98126 128.76875 280.98126Q129.31563 280.98126 129.70625 281.3875Q130.09688 281.77814 130.09688 282.325ZM141.08125 274.325Q141.70625 275.075 142.00313 276.09064Q142.31563 277.10626 142.31563 278.2Q142.31563 279.52814 141.94063 280.59064Q141.56563 281.6375 140.89375 282.325Q140.20625 283.04376 139.26875 283.40314Q138.33125 283.7625 137.19063 283.7625Q135.925 283.7625 134.94063 283.34064Q133.95625 282.91876 133.33125 282.1844Q132.69063 281.4344 132.3625 280.41876Q132.05 279.3875 132.05 278.2Q132.05 277.04376 132.3625 276.075Q132.675 275.09064 133.33125 274.29376Q133.95625 273.54376 134.94063 273.10626Q135.925 272.65314 137.19063 272.65314Q138.53438 272.65314 139.4875 273.10626Q140.44063 273.5594 141.08125 274.325ZM140.15938 278.2Q140.15938 275.8875 139.3625 274.60626Q138.56563 273.325 137.20625 273.325Q135.81563 273.325 135.01875 274.60626Q134.22188 275.8875 134.22188 278.2Q134.22188 280.41876 134.9875 281.7625Q135.75313 283.09064 137.19063 283.09064Q138.6125 283.09064 139.37813 281.7625Q140.15938 280.41876 140.15938 278.2Z" fill-rule="nonzero"/><path fill="#000000" d="M253.98125 274.325Q254.60625 275.075 254.90312 276.09064Q255.21562 277.10626 255.21562 278.2Q255.21562 279.52814 254.84062 280.59064Q254.46562 281.6375 253.79375 282.325Q253.10625 283.04376 252.16875 283.40314Q251.23125 283.7625 250.09062 283.7625Q248.825 283.7625 247.84062 283.34064Q246.85625 282.91876 246.23125 282.1844Q245.59062 281.4344 245.2625 280.41876Q244.95 279.3875 244.95 278.2Q244.95 277.04376 245.2625 276.075Q245.575 275.09064 246.23125 274.29376Q246.85625 273.54376 247.84062 273.10626Q248.825 272.65314 250.09062 272.65314Q251.43437 272.65314 252.3875 273.10626Q253.34062 273.5594 253.98125 274.325ZM253.05937 278.2Q253.05937 275.8875 252.2625 274.60626Q251.46562 273.325 250.10625 273.325Q248.71562 273.325 247.91875 274.60626Q247.12187 275.8875 247.12187 278.2Q247.12187 280.41876 247.8875 281.7625Q248.65312 283.09064 250.09062 283.09064Q251.5125 283.09064 252.27812 281.7625Q253.05937 280.41876 253.05937 278.2ZM259.9969 282.325Q259.9969 282.8719 259.60626 283.2625Q259.21564 283.65314 258.66876 283.65314Q258.1219 283.65314 257.71564 283.2625Q257.325 282.8719 257.325 282.325Q257.325 281.77814 257.71564 281.3875Q258.1219 280.98126 258.66876 280.98126Q259.21564 280.98126 259.60626 281.3875Q259.9969 281.77814 259.9969 282.325ZM271.16876 283.45L262.02814 283.45L262.02814 282.1219Q262.29376 281.825 262.7625 281.45Q263.23126 281.0594 263.8719 280.6219Q264.2625 280.35626 264.8094 280.04376Q265.35626 279.73126 266.04376 279.3719Q266.825 278.95 267.23126 278.6375Q267.65314 278.325 267.9969 277.8719Q268.21564 277.575 268.35626 277.1219Q268.4969 276.66876 268.4969 275.825Q268.4969 274.60626 267.84064 274.04376Q267.1844 273.46564 266.15314 273.46564Q265.52814 273.46564 264.95 273.71564Q264.3875 273.95 264.10626 274.40314Q264.16876 274.71564 264.2625 275.15314Q264.3719 275.575 264.3719 275.98126Q264.3719 276.35626 264.0594 276.6375Q263.7625 276.91876 263.15314 276.91876Q262.66876 276.91876 262.40314 276.59064Q262.1375 276.2469 262.1375 275.6844Q262.1375 275.15314 262.4344 274.6219Q262.73126 274.09064 263.27814 273.6375Q263.8094 273.2 264.59064 272.9344Q265.3875 272.65314 266.3094 272.65314Q268.3094 272.65314 269.48126 273.5594Q270.66876 274.45 270.66876 275.9344Q270.66876 276.65314 270.45 277.2469Q270.2469 277.825 269.77814 278.27814Q269.2625 278.77814 268.5594 279.1375Q267.8719 279.48126 266.45 280.1219Q265.60626 280.4969 264.8719 280.91876Q264.1375 281.325 263.66876 281.71564L271.16876 281.71564L271.16876 283.45Z" fill-rule="nonzero"/><path fill="#000000" d="M383.38126 274.325Q384.00626 275.075 384.30313 276.09064Q384.61563 277.10626 384.61563 278.2Q384.61563 279.52814 384.24063 280.59064Q383.86563 281.6375 383.19376 282.325Q382.50626 283.04376 381.56876 283.40314Q380.63126 283.7625 379.49063 283.7625Q378.225 283.7625 377.24063 283.34064Q376.25626 282.91876 375.63126 282.1844Q374.99063 281.4344 374.6625 280.41876Q374.35 279.3875 374.35 278.2Q374.35 277.04376 374.6625 276.075Q374.975 275.09064 375.63126 274.29376Q376.25626 273.54376 377.24063 273.10626Q378.225 272.65314 379.49063 272.65314Q380.83438 272.65314 381.7875 273.10626Q382.74063 273.5594 383.38126 274.325ZM382.45938 278.2Q382.45938 275.8875 381.6625 274.60626Q380.86563 273.325 379.50626 273.325Q378.11563 273.325 377.31876 274.60626Q376.52188 275.8875 376.52188 278.2Q376.52188 280.41876 377.2875 281.7625Q378.05313 283.09064 379.49063 283.09064Q380.9125 283.09064 381.67813 281.7625Q382.45938 280.41876 382.45938 278.2ZM389.39688 282.325Q389.39688 282.8719 389.00626 283.2625Q388.61563 283.65314 388.06876 283.65314Q387.52188 283.65314 387.11563 283.2625Q386.725 282.8719 386.725 282.325Q386.725 281.77814 387.11563 281.3875Q387.52188 280.98126 388.06876 280.98126Q388.61563 280.98126 389.00626 281.3875Q389.39688 281.77814 389.39688 282.325ZM400.94376 282.575L398.95938 282.575L398.95938 287.0125L397.08438 287.0125L397.08438 282.575L390.83438 282.575L390.83438 281.0594L397.67813 272.71564L398.95938 272.71564L398.95938 281.29376L400.94376 281.29376L400.94376 282.575ZM397.08438 281.29376L397.08438 274.8875L391.80313 281.29376L397.08438 281.29376Z" fill-rule="nonzero"/><path fill="#000000" d="M512.78125 274.325Q513.40625 275.075 513.7031 276.09064Q514.0156 277.10626 514.0156 278.2Q514.0156 279.52814 513.6406 280.59064Q513.2656 281.6375 512.59375 282.325Q511.90625 283.04376 510.96875 283.40314Q510.03125 283.7625 508.89062 283.7625Q507.625 283.7625 506.64062 283.34064Q505.65625 282.91876 505.03125 282.1844Q504.39062 281.4344 504.0625 280.41876Q503.75 279.3875 503.75 278.2Q503.75 277.04376 504.0625 276.075Q504.375 275.09064 505.03125 274.29376Q505.65625 273.54376 506.64062 273.10626Q507.625 272.65314 508.89062 272.65314Q510.23438 272.65314 511.1875 273.10626Q512.1406 273.5594 512.78125 274.325ZM511.85938 278.2Q511.85938 275.8875 511.0625 274.60626Q510.26562 273.325 508.90625 273.325Q507.51562 273.325 506.71875 274.60626Q505.92188 275.8875 505.92188 278.2Q505.92188 280.41876 506.6875 281.7625Q507.45312 283.09064 508.89062 283.09064Q510.3125 283.09064 511.07812 281.7625Q511.85938 280.41876 511.85938 278.2ZM518.7969 282.325Q518.7969 282.8719 518.40625 283.2625Q518.0156 283.65314 517.46875 283.65314Q516.9219 283.65314 516.5156 283.2625Q516.125 282.8719 516.125 282.325Q516.125 281.77814 516.5156 281.3875Q516.9219 280.98126 517.46875 280.98126Q518.0156 280.98126 518.40625 281.3875Q518.7969 281.77814 518.7969 282.325ZM530.25 278.95Q530.25 279.96564 529.875 280.85626Q529.5156 281.7469 528.90625 282.3719Q528.1875 283.075 527.3125 283.41876Q526.4531 283.7625 525.5156 283.7625Q524.4375 283.7625 523.5625 283.3719Q522.6875 282.96564 522.0625 282.23126Q521.4375 281.48126 521.09375 280.41876Q520.75 279.34064 520.75 277.9969Q520.75 274.5125 522.8281 272.1219Q524.90625 269.73126 528.3906 269.2469L528.5625 270.1219L527.6875 270.27814Q525.5781 270.96564 524.40625 272.41876Q523.25 273.85626 522.9219 275.91876Q523.75 275.1844 524.5625 274.8875Q525.3906 274.575 526.2969 274.575Q527.9375 274.575 529.09375 275.825Q530.25 277.075 530.25 278.95ZM528.125 279.21564Q528.125 277.6219 527.3906 276.66876Q526.6719 275.71564 525.4531 275.71564Q524.71875 275.71564 524.09375 275.9969Q523.46875 276.2625 522.875 276.90314Q522.8594 277.02814 522.84375 277.45Q522.8281 277.8719 522.8281 278.1219Q522.8281 280.40314 523.5781 281.7Q524.3281 282.9969 525.5469 282.9969Q526.7031 282.9969 527.40625 281.98126Q528.125 280.96564 528.125 279.21564Z" fill-rule="nonzero"/><path stroke="#4285f4" stroke-width="4.0" stroke-linecap="butt" d="M86.5 30.55L98.5 30.55" fill-rule="nonzero"/><path fill="#1a1a1a" d="M118.359375 33.221874L117.890625 37.55L106.765625 37.55L106.765625 37.20625L115.484375 24.45625L112.296875 24.45625Q111.734375 24.45625 111.359375 24.4875Q110.984375 24.503124 110.671875 24.565624Q110.03125 24.690624 109.21875 25.628124Q108.421875 26.565624 108.0 27.6125L107.328125 27.6125L107.734375 23.690624L118.125 23.690624L118.125 24.034374L109.40625 36.784374L112.6875 36.784374Q113.515625 36.784374 114.453125 36.675Q115.390625 36.55 115.6875 36.253124Q116.3125 35.659374 116.859375 34.784374Q117.40625 33.89375 117.671875 33.221874L118.359375 33.221874ZM127.765625 35.284374Q127.15625 36.440624 126.140625 37.128124Q125.125 37.8 123.796875 37.8Q122.640625 37.8 121.765625 37.39375Q120.890625 36.9875 120.328125 36.284374Q119.765625 35.58125 119.484375 34.64375Q119.203125 33.70625 119.203125 32.659374Q119.203125 31.721874 119.5 30.815624Q119.796875 29.909374 120.375 29.190624Q120.9375 28.503124 121.75 28.08125Q122.578125 27.64375 123.609375 27.64375Q124.65625 27.64375 125.40625 27.9875Q126.171875 28.315624 126.640625 28.89375Q127.078125 29.440624 127.296875 30.190624Q127.53125 30.925 127.53125 31.784374L127.53125 32.425L121.140625 32.425Q121.140625 33.378124 121.328125 34.159374Q121.515625 34.925 121.90625 35.503124Q122.28125 36.08125 122.890625 36.409374Q123.515625 36.721874 124.359375 36.721874Q125.234375 36.721874 125.859375 36.33125Q126.484375 35.925 127.078125 34.8625L127.765625 35.284374ZM125.59375 31.6125Q125.59375 31.065624 125.5 30.440624Q125.421875 29.815624 125.203125 29.39375Q124.984375 28.940624 124.59375 28.659374Q124.203125 28.378124 123.59375 28.378124Q122.5625 28.378124 121.875 29.2375Q121.203125 30.08125 121.140625 31.6125L125.59375 31.6125ZM136.57812 29.159374Q136.57812 29.659374 136.32812 30.05Q136.09375 30.425 135.57812 30.425Q135.03125 30.425 134.73438 30.14375Q134.45312 29.8625 134.45312 29.51875Q134.45312 29.3 134.48438 29.128124Q134.53125 28.95625 134.5625 28.784374Q134.09375 28.784374 133.46875 29.159374Q132.85938 29.51875 132.4375 30.20625L132.4375 35.815624Q132.4375 36.159374 132.5625 36.378124Q132.70312 36.58125 132.98438 36.690624Q133.23438 36.784374 133.60938 36.83125Q134.0 36.878124 134.28125 36.909374L134.28125 37.55L129.20312 37.55L129.20312 36.909374Q129.42188 36.878124 129.65625 36.8625Q129.90625 36.846874 130.07812 36.784374Q130.35938 36.70625 130.48438 36.4875Q130.625 36.253124 130.625 35.909374L130.625 29.95625Q130.625 29.659374 130.48438 29.3625Q130.34375 29.065624 130.07812 28.89375Q129.89062 28.784374 129.64062 28.7375Q129.39062 28.675 129.09375 28.659374L129.09375 28.01875L132.29688 27.8L132.4375 27.940624L132.4375 29.3L132.48438 29.3Q133.09375 28.503124 133.82812 28.096874Q134.57812 27.690624 135.1875 27.690624Q135.8125 27.690624 136.1875 28.096874Q136.57812 28.4875 136.57812 29.159374ZM146.59375 32.64375Q146.59375 33.659374 146.26562 34.64375Q145.9375 35.6125 145.34375 36.3Q144.67188 37.08125 143.78125 37.471874Q142.89062 37.846874 141.79688 37.846874Q140.875 37.846874 140.04688 37.503124Q139.21875 37.14375 138.57812 36.4875Q137.9375 35.83125 137.5625 34.89375Q137.1875 33.940624 137.1875 32.76875Q137.1875 30.51875 138.5 29.08125Q139.8125 27.64375 141.9375 27.64375Q143.96875 27.64375 145.28125 29.01875Q146.59375 30.378124 146.59375 32.64375ZM144.5625 32.659374Q144.5625 31.925 144.42188 31.1125Q144.28125 30.3 143.98438 29.721874Q143.67188 29.128124 143.15625 28.76875Q142.65625 28.39375 141.92188 28.39375Q141.17188 28.39375 140.64062 28.76875Q140.10938 29.128124 139.76562 29.76875Q139.45312 30.378124 139.32812 31.14375Q139.20312 31.89375 139.20312 32.6125Q139.20312 33.55 139.35938 34.346874Q139.51562 35.14375 139.84375 35.76875Q140.17188 36.39375 140.67188 36.753124Q141.17188 37.096874 141.92188 37.096874Q143.14062 37.096874 143.84375 35.925Q144.5625 34.7375 144.5625 32.659374ZM154.15625 33.003124L148.32812 33.003124L148.32812 31.471874L154.15625 31.471874L154.15625 33.003124ZM164.07812 31.190624Q164.51562 31.675 164.71875 32.26875Q164.9375 32.846874 164.9375 33.6125Q164.9375 35.45625 163.57812 36.64375Q162.21875 37.83125 160.21875 37.83125Q159.28125 37.83125 158.35938 37.55Q157.4375 37.253124 156.75 36.846874L156.34375 37.565624L155.5625 37.565624L155.42188 32.815624L156.20312 32.815624Q156.45312 33.690624 156.78125 34.409374Q157.10938 35.1125 157.64062 35.721874Q158.15625 36.3 158.82812 36.64375Q159.51562 36.9875 160.40625 36.9875Q161.07812 36.9875 161.57812 36.815624Q162.09375 36.628124 162.40625 36.315624Q162.71875 35.9875 162.85938 35.55Q163.01562 35.1125 163.01562 34.55Q163.01562 33.721874 162.54688 33.003124Q162.07812 32.284374 161.15625 31.909374Q160.51562 31.659374 159.6875 31.3625Q158.875 31.05 158.28125 30.76875Q157.10938 30.2375 156.45312 29.39375Q155.8125 28.534374 155.8125 27.159374Q155.8125 26.3625 156.125 25.690624Q156.45312 25.003124 157.04688 24.45625Q157.60938 23.95625 158.375 23.675Q159.15625 23.378124 160.0 23.378124Q160.95312 23.378124 161.70312 23.675Q162.46875 23.971874 163.09375 24.3625L163.5 23.690624L164.28125 23.690624L164.35938 28.284374L163.5625 28.284374Q163.34375 27.503124 163.07812 26.784374Q162.8125 26.05 162.375 25.471874Q161.96875 24.909374 161.35938 24.565624Q160.75 24.221874 159.875 24.221874Q158.9375 24.221874 158.28125 24.83125Q157.64062 25.425 157.64062 26.284374Q157.64062 27.175 158.04688 27.76875Q158.46875 28.3625 159.28125 28.7375Q159.98438 29.08125 160.67188 29.33125Q161.35938 29.58125 162.01562 29.8625Q162.59375 30.1125 163.14062 30.440624Q163.6875 30.76875 164.07812 31.190624ZM176.65625 37.55L171.9375 37.55L171.9375 36.909374Q172.15625 36.878124 172.42188 36.8625Q172.70312 36.846874 172.89062 36.784374Q173.15625 36.70625 173.28125 36.4875Q173.42188 36.253124 173.42188 35.909374L173.42188 30.95625Q173.42188 29.925 172.9375 29.378124Q172.45312 28.815624 171.76562 28.815624Q171.25 28.815624 170.8125 28.9875Q170.39062 29.14375 170.04688 29.378124Q169.70312 29.6125 169.53125 29.8625Q169.35938 30.1125 169.26562 30.26875L169.26562 35.815624Q169.26562 36.14375 169.39062 36.3625Q169.53125 36.565624 169.79688 36.690624Q170.01562 36.784374 170.23438 36.83125Q170.46875 36.878124 170.75 36.909374L170.75 37.55L166.01562 37.55L166.01562 36.909374Q166.25 36.878124 166.48438 36.8625Q166.73438 36.83125 166.89062 36.784374Q167.17188 36.70625 167.29688 36.4875Q167.4375 36.253124 167.4375 35.909374L167.4375 24.690624Q167.4375 24.3625 167.28125 24.034374Q167.14062 23.70625 166.89062 23.534374Q166.71875 23.409374 166.26562 23.3625Q165.82812 23.3 165.5625 23.284374L165.5625 22.659374L169.125 22.425L169.26562 22.58125L169.26562 29.3L169.29688 29.3Q169.625 28.971874 169.89062 28.721874Q170.15625 28.471874 170.57812 28.20625Q170.95312 27.971874 171.45312 27.815624Q171.95312 27.659374 172.57812 27.659374Q173.875 27.659374 174.5625 28.471874Q175.25 29.284374 175.25 30.815624L175.25 35.83125Q175.25 36.175 175.375 36.39375Q175.5 36.596874 175.78125 36.70625Q176.01562 36.8 176.1875 36.846874Q176.375 36.878124 176.65625 36.909374L176.65625 37.55ZM187.59375 32.64375Q187.59375 33.659374 187.26562 34.64375Q186.9375 35.6125 186.34375 36.3Q185.67188 37.08125 184.78125 37.471874Q183.89062 37.846874 182.79688 37.846874Q181.875 37.846874 181.04688 37.503124Q180.21875 37.14375 179.57812 36.4875Q178.9375 35.83125 178.5625 34.89375Q178.1875 33.940624 178.1875 32.76875Q178.1875 30.51875 179.5 29.08125Q180.8125 27.64375 182.9375 27.64375Q184.96875 27.64375 186.28125 29.01875Q187.59375 30.378124 187.59375 32.64375ZM185.5625 32.659374Q185.5625 31.925 185.42188 31.1125Q185.28125 30.3 184.98438 29.721874Q184.67188 29.128124 184.15625 28.76875Q183.65625 28.39375 182.92188 28.39375Q182.17188 28.39375 181.64062 28.76875Q181.10938 29.128124 180.76562 29.76875Q180.45312 30.378124 180.32812 31.14375Q180.20312 31.89375 180.20312 32.6125Q180.20312 33.55 180.35938 34.346874Q180.51562 35.14375 180.84375 35.76875Q181.17188 36.39375 181.67188 36.753124Q182.17188 37.096874 182.92188 37.096874Q184.14062 37.096874 184.84375 35.925Q185.5625 34.7375 185.5625 32.659374ZM195.15625 37.128124Q194.51562 37.39375 193.95312 37.565624Q193.39062 37.753124 192.5625 37.753124Q191.35938 37.753124 190.85938 37.14375Q190.35938 36.534374 190.35938 35.425L190.35938 28.89375L188.625 28.89375L188.625 27.95625L190.40625 27.95625L190.40625 24.95625L192.1875 24.95625L192.1875 27.95625L194.95312 27.95625L194.95312 28.89375L192.20312 28.89375L192.20312 34.284374Q192.20312 34.878124 192.25 35.284374Q192.29688 35.690624 192.45312 36.003124Q192.60938 36.284374 192.92188 36.425Q193.23438 36.565624 193.76562 36.565624Q194.01562 36.565624 194.48438 36.534374Q194.95312 36.4875 195.15625 36.409374L195.15625 37.128124Z" fill-rule="nonzero"/><path stroke="#ea4335" stroke-width="4.0" stroke-linecap="butt" d="M211.5 30.55L223.5 30.55" fill-rule="nonzero"/><path fill="#1a1a1a" d="M243.20312 27.159374L242.48438 27.159374Q242.26562 26.39375 241.60938 25.51875Q240.96875 24.628124 240.375 24.534374Q240.07812 24.503124 239.65625 24.4875Q239.25 24.45625 238.71875 24.45625L236.39062 24.45625L236.39062 30.034374L237.98438 30.034374Q238.70312 30.034374 239.10938 29.878124Q239.51562 29.721874 239.79688 29.409374Q239.98438 29.20625 240.14062 28.753124Q240.3125 28.284374 240.35938 27.76875L241.09375 27.76875L241.09375 33.20625L240.35938 33.20625Q240.32812 32.784374 240.15625 32.2375Q239.98438 31.690624 239.79688 31.440624Q239.5 31.08125 239.04688 30.95625Q238.60938 30.815624 237.98438 30.815624L236.39062 30.815624L236.39062 35.596874Q236.39062 35.925 236.51562 36.175Q236.64062 36.425 236.96875 36.58125Q237.10938 36.64375 237.59375 36.753124Q238.09375 36.846874 238.34375 36.8625L238.34375 37.55L232.34375 37.55L232.34375 36.8625Q232.64062 36.83125 233.125 36.8Q233.60938 36.753124 233.75 36.675Q234.04688 36.55 234.17188 36.3Q234.3125 36.05 234.3125 35.70625L234.3125 25.70625Q234.3125 25.378124 234.20312 25.128124Q234.09375 24.878124 233.75 24.721874Q233.5 24.596874 233.04688 24.503124Q232.60938 24.409374 232.34375 24.378124L232.34375 23.690624L243.20312 23.690624L243.20312 27.159374ZM252.76562 35.284374Q252.15625 36.440624 251.14062 37.128124Q250.125 37.8 248.79688 37.8Q247.64062 37.8 246.76562 37.39375Q245.89062 36.9875 245.32812 36.284374Q244.76562 35.58125 244.48438 34.64375Q244.20312 33.70625 244.20312 32.659374Q244.20312 31.721874 244.5 30.815624Q244.79688 29.909374 245.375 29.190624Q245.9375 28.503124 246.75 28.08125Q247.57812 27.64375 248.60938 27.64375Q249.65625 27.64375 250.40625 27.9875Q251.17188 28.315624 251.64062 28.89375Q252.07812 29.440624 252.29688 30.190624Q252.53125 30.925 252.53125 31.784374L252.53125 32.425L246.14062 32.425Q246.14062 33.378124 246.32812 34.159374Q246.51562 34.925 246.90625 35.503124Q247.28125 36.08125 247.89062 36.409374Q248.51562 36.721874 249.35938 36.721874Q250.23438 36.721874 250.85938 36.33125Q251.48438 35.925 252.07812 34.8625L252.76562 35.284374ZM250.59375 31.6125Q250.59375 31.065624 250.5 30.440624Q250.42188 29.815624 250.20312 29.39375Q249.98438 28.940624 249.59375 28.659374Q249.20312 28.378124 248.59375 28.378124Q247.5625 28.378124 246.875 29.2375Q246.20312 30.08125 246.14062 31.6125L250.59375 31.6125ZM268.54688 28.55Q268.14062 28.58125 267.65625 28.89375Q267.1875 29.190624 266.98438 29.8Q266.48438 31.2375 266.04688 32.51875Q265.625 33.8 265.07812 35.39375Q264.90625 35.909374 264.71875 36.503124Q264.54688 37.08125 264.40625 37.6125L263.5625 37.6125L260.96875 30.534374L258.35938 37.6125L257.5625 37.6125Q256.82812 35.45625 256.125 33.315624Q255.4375 31.175 254.89062 29.596874Q254.73438 29.14375 254.29688 28.878124Q253.85938 28.6125 253.45312 28.565624L253.45312 27.925L257.75 27.925L257.75 28.596874Q257.42188 28.6125 257.04688 28.721874Q256.67188 28.815624 256.67188 29.034374Q256.67188 29.065624 256.70312 29.20625Q256.75 29.33125 256.79688 29.471874Q257.10938 30.503124 257.5 31.76875Q257.89062 33.034374 258.51562 35.05L260.98438 28.1125L261.92188 28.1125L264.42188 34.95625Q264.84375 33.64375 265.25 32.425Q265.67188 31.190624 265.98438 30.1125Q266.0625 29.8625 266.125 29.659374Q266.1875 29.440624 266.1875 29.2375Q266.1875 29.065624 266.03125 28.925Q265.875 28.784374 265.65625 28.70625Q265.45312 28.628124 265.21875 28.596874Q265.0 28.55 264.89062 28.55L264.89062 27.925L268.54688 27.925L268.54688 28.55ZM275.15625 33.003124L269.32812 33.003124L269.32812 31.471874L275.15625 31.471874L275.15625 33.003124ZM285.07812 31.190624Q285.51562 31.675 285.71875 32.26875Q285.9375 32.846874 285.9375 33.6125Q285.9375 35.45625 284.57812 36.64375Q283.21875 37.83125 281.21875 37.83125Q280.28125 37.83125 279.35938 37.55Q278.4375 37.253124 277.75 36.846874L277.34375 37.565624L276.5625 37.565624L276.42188 32.815624L277.20312 32.815624Q277.45312 33.690624 277.78125 34.409374Q278.10938 35.1125 278.64062 35.721874Q279.15625 36.3 279.82812 36.64375Q280.51562 36.9875 281.40625 36.9875Q282.07812 36.9875 282.57812 36.815624Q283.09375 36.628124 283.40625 36.315624Q283.71875 35.9875 283.85938 35.55Q284.01562 35.1125 284.01562 34.55Q284.01562 33.721874 283.54688 33.003124Q283.07812 32.284374 282.15625 31.909374Q281.51562 31.659374 280.6875 31.3625Q279.875 31.05 279.28125 30.76875Q278.10938 30.2375 277.45312 29.39375Q276.8125 28.534374 276.8125 27.159374Q276.8125 26.3625 277.125 25.690624Q277.45312 25.003124 278.04688 24.45625Q278.60938 23.95625 279.375 23.675Q280.15625 23.378124 281.0 23.378124Q281.95312 23.378124 282.70312 23.675Q283.46875 23.971874 284.09375 24.3625L284.5 23.690624L285.28125 23.690624L285.35938 28.284374L284.5625 28.284374Q284.34375 27.503124 284.07812 26.784374Q283.8125 26.05 283.375 25.471874Q282.96875 24.909374 282.35938 24.565624Q281.75 24.221874 280.875 24.221874Q279.9375 24.221874 279.28125 24.83125Q278.64062 25.425 278.64062 26.284374Q278.64062 27.175 279.04688 27.76875Q279.46875 28.3625 280.28125 28.7375Q280.98438 29.08125 281.67188 29.33125Q282.35938 29.58125 283.01562 29.8625Q283.59375 30.1125 284.14062 30.440624Q284.6875 30.76875 285.07812 31.190624ZM297.65625 37.55L292.9375 37.55L292.9375 36.909374Q293.15625 36.878124 293.42188 36.8625Q293.70312 36.846874 293.89062 36.784374Q294.15625 36.70625 294.28125 36.4875Q294.42188 36.253124 294.42188 35.909374L294.42188 30.95625Q294.42188 29.925 293.9375 29.378124Q293.45312 28.815624 292.76562 28.815624Q292.25 28.815624 291.8125 28.9875Q291.39062 29.14375 291.04688 29.378124Q290.70312 29.6125 290.53125 29.8625Q290.35938 30.1125 290.26562 30.26875L290.26562 35.815624Q290.26562 36.14375 290.39062 36.3625Q290.53125 36.565624 290.79688 36.690624Q291.01562 36.784374 291.23438 36.83125Q291.46875 36.878124 291.75 36.909374L291.75 37.55L287.01562 37.55L287.01562 36.909374Q287.25 36.878124 287.48438 36.8625Q287.73438 36.83125 287.89062 36.784374Q288.17188 36.70625 288.29688 36.4875Q288.4375 36.253124 288.4375 35.909374L288.4375 24.690624Q288.4375 24.3625 288.28125 24.034374Q288.14062 23.70625 287.89062 23.534374Q287.71875 23.409374 287.26562 23.3625Q286.82812 23.3 286.5625 23.284374L286.5625 22.659374L290.125 22.425L290.26562 22.58125L290.26562 29.3L290.29688 29.3Q290.625 28.971874 290.89062 28.721874Q291.15625 28.471874 291.57812 28.20625Q291.95312 27.971874 292.45312 27.815624Q292.95312 27.659374 293.57812 27.659374Q294.875 27.659374 295.5625 28.471874Q296.25 29.284374 296.25 30.815624L296.25 35.83125Q296.25 36.175 296.375 36.39375Q296.5 36.596874 296.78125 36.70625Q297.01562 36.8 297.1875 36.846874Q297.375 36.878124 297.65625 36.909374L297.65625 37.55ZM308.59375 32.64375Q308.59375 33.659374 308.26562 34.64375Q307.9375 35.6125 307.34375 36.3Q306.67188 37.08125 305.78125 37.471874Q304.89062 37.846874 303.79688 37.846874Q302.875 37.846874 302.04688 37.503124Q301.21875 37.14375 300.57812 36.4875Q299.9375 35.83125 299.5625 34.89375Q299.1875 33.940624 299.1875 32.76875Q299.1875 30.51875 300.5 29.08125Q301.8125 27.64375 303.9375 27.64375Q305.96875 27.64375 307.28125 29.01875Q308.59375 30.378124 308.59375 32.64375ZM306.5625 32.659374Q306.5625 31.925 306.42188 31.1125Q306.28125 30.3 305.98438 29.721874Q305.67188 29.128124 305.15625 28.76875Q304.65625 28.39375 303.92188 28.39375Q303.17188 28.39375 302.64062 28.76875Q302.10938 29.128124 301.76562 29.76875Q301.45312 30.378124 301.32812 31.14375Q301.20312 31.89375 301.20312 32.6125Q301.20312 33.55 301.35938 34.346874Q301.51562 35.14375 301.84375 35.76875Q302.17188 36.39375 302.67188 36.753124Q303.17188 37.096874 303.92188 37.096874Q305.14062 37.096874 305.84375 35.925Q306.5625 34.7375 306.5625 32.659374ZM316.15625 37.128124Q315.51562 37.39375 314.95312 37.565624Q314.39062 37.753124 313.5625 37.753124Q312.35938 37.753124 311.85938 37.14375Q311.35938 36.534374 311.35938 35.425L311.35938 28.89375L309.625 28.89375L309.625 27.95625L311.40625 27.95625L311.40625 24.95625L313.1875 24.95625L313.1875 27.95625L315.95312 27.95625L315.95312 28.89375L313.20312 28.89375L313.20312 34.284374Q313.20312 34.878124 313.25 35.284374Q313.29688 35.690624 313.45312 36.003124Q313.60938 36.284374 313.92188 36.425Q314.23438 36.565624 314.76562 36.565624Q315.01562 36.565624 315.48438 36.534374Q315.95312 36.4875 316.15625 36.409374L316.15625 37.128124Z" fill-rule="nonzero"/><path stroke="#fbbc04" stroke-width="4.0" stroke-linecap="butt" d="M332.5 30.55L344.5 30.55" fill-rule="nonzero"/><path fill="#1a1a1a" d="M359.5625 37.878124Q358.32812 37.878124 357.1875 37.39375Q356.04688 36.89375 355.17188 35.971874Q354.29688 35.065624 353.78125 33.7375Q353.26562 32.409374 353.26562 30.753124Q353.26562 29.096874 353.76562 27.753124Q354.28125 26.39375 355.17188 25.409374Q356.0625 24.440624 357.26562 23.925Q358.48438 23.39375 359.85938 23.39375Q360.89062 23.39375 361.71875 23.64375Q362.54688 23.89375 363.29688 24.3625L363.70312 23.690624L364.48438 23.690624L364.57812 28.628124L363.76562 28.628124Q363.60938 27.909374 363.29688 27.065624Q362.98438 26.221874 362.5625 25.628124Q362.09375 24.971874 361.45312 24.596874Q360.8125 24.221874 359.98438 24.221874Q359.03125 24.221874 358.21875 24.64375Q357.40625 25.065624 356.8125 25.878124Q356.23438 26.675 355.90625 27.89375Q355.59375 29.1125 355.59375 30.6125Q355.59375 31.940624 355.92188 33.05Q356.26562 34.159374 356.89062 35.003124Q357.51562 35.83125 358.375 36.3Q359.23438 36.76875 360.28125 36.76875Q361.07812 36.76875 361.73438 36.51875Q362.40625 36.26875 362.89062 35.8625Q363.375 35.425 363.75 34.878124Q364.125 34.33125 364.35938 33.690624L365.09375 34.05Q364.25 36.096874 362.85938 36.9875Q361.46875 37.878124 359.5625 37.878124ZM376.65625 37.55L371.9375 37.55L371.9375 36.909374Q372.15625 36.878124 372.42188 36.8625Q372.70312 36.846874 372.89062 36.784374Q373.15625 36.70625 373.28125 36.4875Q373.42188 36.253124 373.42188 35.909374L373.42188 30.95625Q373.42188 29.925 372.9375 29.378124Q372.45312 28.815624 371.76562 28.815624Q371.25 28.815624 370.8125 28.9875Q370.39062 29.14375 370.04688 29.378124Q369.70312 29.6125 369.53125 29.8625Q369.35938 30.1125 369.26562 30.26875L369.26562 35.815624Q369.26562 36.14375 369.39062 36.3625Q369.53125 36.565624 369.79688 36.690624Q370.01562 36.784374 370.23438 36.83125Q370.46875 36.878124 370.75 36.909374L370.75 37.55L366.01562 37.55L366.01562 36.909374Q366.25 36.878124 366.48438 36.8625Q366.73438 36.83125 366.89062 36.784374Q367.17188 36.70625 367.29688 36.4875Q367.4375 36.253124 367.4375 35.909374L367.4375 24.690624Q367.4375 24.3625 367.28125 24.034374Q367.14062 23.70625 366.89062 23.534374Q366.71875 23.409374 366.26562 23.3625Q365.82812 23.3 365.5625 23.284374L365.5625 22.659374L369.125 22.425L369.26562 22.58125L369.26562 29.3L369.29688 29.3Q369.625 28.971874 369.89062 28.721874Q370.15625 28.471874 370.57812 28.20625Q370.95312 27.971874 371.45312 27.815624Q371.95312 27.659374 372.57812 27.659374Q373.875 27.659374 374.5625 28.471874Q375.25 29.284374 375.25 30.815624L375.25 35.83125Q375.25 36.175 375.375 36.39375Q375.5 36.596874 375.78125 36.70625Q376.01562 36.8 376.1875 36.846874Q376.375 36.878124 376.65625 36.909374L376.65625 37.55ZM387.32812 37.378124Q386.85938 37.534374 386.51562 37.64375Q386.17188 37.753124 385.73438 37.753124Q384.96875 37.753124 384.51562 37.39375Q384.0625 37.034374 383.9375 36.346874L383.875 36.346874Q383.25 37.05 382.51562 37.425Q381.78125 37.8 380.76562 37.8Q379.67188 37.8 378.96875 37.14375Q378.28125 36.471874 378.28125 35.39375Q378.28125 34.83125 378.4375 34.39375Q378.59375 33.95625 378.90625 33.596874Q379.15625 33.315624 379.54688 33.08125Q379.95312 32.846874 380.29688 32.721874Q380.75 32.55 382.07812 32.096874Q383.42188 31.64375 383.89062 31.39375L383.89062 30.425Q383.89062 30.3 383.84375 29.940624Q383.79688 29.58125 383.60938 29.253124Q383.42188 28.89375 383.0625 28.628124Q382.70312 28.3625 382.04688 28.3625Q381.60938 28.3625 381.21875 28.51875Q380.82812 28.659374 380.67188 28.83125Q380.67188 29.01875 380.76562 29.409374Q380.85938 29.784374 380.85938 30.1125Q380.85938 30.45625 380.54688 30.7375Q380.25 31.01875 379.70312 31.01875Q379.20312 31.01875 378.96875 30.675Q378.75 30.315624 378.75 29.89375Q378.75 29.440624 379.0625 29.034374Q379.39062 28.628124 379.89062 28.3Q380.32812 28.034374 380.95312 27.846874Q381.57812 27.64375 382.17188 27.64375Q383.0 27.64375 383.60938 27.76875Q384.21875 27.878124 384.71875 28.2375Q385.21875 28.596874 385.46875 29.221874Q385.73438 29.846874 385.73438 30.815624Q385.73438 32.221874 385.70312 33.3Q385.67188 34.378124 385.67188 35.659374Q385.67188 36.034374 385.79688 36.26875Q385.9375 36.4875 386.21875 36.64375Q386.35938 36.721874 386.67188 36.7375Q387.0 36.753124 387.32812 36.753124L387.32812 37.378124ZM383.92188 32.221874Q383.09375 32.45625 382.46875 32.690624Q381.84375 32.925 381.29688 33.284374Q380.8125 33.6125 380.53125 34.065624Q380.25 34.51875 380.25 35.14375Q380.25 35.95625 380.67188 36.346874Q381.09375 36.721874 381.75 36.721874Q382.4375 36.721874 382.96875 36.39375Q383.5 36.05 383.85938 35.58125L383.92188 32.221874ZM392.875 37.55L388.21875 37.55L388.21875 36.909374Q388.45312 36.878124 388.6875 36.8625Q388.92188 36.846874 389.10938 36.784374Q389.375 36.70625 389.5 36.4875Q389.64062 36.253124 389.64062 35.909374L389.64062 29.95625Q389.64062 29.64375 389.5 29.39375Q389.35938 29.128124 389.10938 28.95625Q388.92188 28.83125 388.5625 28.753124Q388.21875 28.675 387.92188 28.659374L387.92188 28.01875L391.3125 27.8L391.45312 27.940624L391.45312 35.784374Q391.45312 36.128124 391.57812 36.3625Q391.71875 36.58125 392.0 36.690624Q392.21875 36.784374 392.42188 36.83125Q392.625 36.878124 392.875 36.909374L392.875 37.55ZM391.65625 24.003124Q391.65625 24.565624 391.28125 24.9875Q390.92188 25.39375 390.375 25.39375Q389.89062 25.39375 389.51562 25.003124Q389.15625 24.596874 389.15625 24.096874Q389.15625 23.55 389.51562 23.159374Q389.89062 22.753124 390.375 22.753124Q390.9375 22.753124 391.29688 23.128124Q391.65625 23.503124 391.65625 24.003124ZM404.84375 37.55L400.125 37.55L400.125 36.909374Q400.34375 36.878124 400.60938 36.8625Q400.89062 36.846874 401.0625 36.784374Q401.32812 36.70625 401.45312 36.4875Q401.59375 36.253124 401.59375 35.909374L401.59375 30.95625Q401.59375 29.925 401.10938 29.378124Q400.625 28.815624 399.9375 28.815624Q399.42188 28.815624 398.98438 28.9875Q398.5625 29.14375 398.23438 29.378124Q397.90625 29.596874 397.71875 29.8625Q397.53125 30.1125 397.4375 30.26875L397.4375 35.815624Q397.4375 36.14375 397.5625 36.3625Q397.70312 36.565624 397.98438 36.690624Q398.1875 36.784374 398.42188 36.83125Q398.67188 36.878124 398.92188 36.909374L398.92188 37.55L394.20312 37.55L394.20312 36.909374Q394.42188 36.878124 394.65625 36.8625Q394.90625 36.846874 395.07812 36.784374Q395.35938 36.70625 395.48438 36.4875Q395.625 36.253124 395.625 35.909374L395.625 29.95625Q395.625 29.628124 395.48438 29.346874Q395.34375 29.065624 395.07812 28.89375Q394.89062 28.784374 394.64062 28.7375Q394.39062 28.675 394.09375 28.659374L394.09375 28.01875L397.29688 27.8L397.4375 27.940624L397.4375 29.3L397.48438 29.3Q397.71875 29.065624 398.0625 28.7375Q398.42188 28.409374 398.73438 28.20625Q399.09375 27.971874 399.59375 27.815624Q400.09375 27.659374 400.71875 27.659374Q402.10938 27.659374 402.76562 28.51875Q403.4375 29.378124 403.4375 30.815624L403.4375 35.83125Q403.4375 36.175 403.54688 36.39375Q403.67188 36.596874 403.95312 36.70625Q404.1875 36.8 404.35938 36.846874Q404.53125 36.878124 404.84375 36.909374L404.84375 37.55ZM412.15625 33.003124L406.32812 33.003124L406.32812 31.471874L412.15625 31.471874L412.15625 33.003124ZM422.59375 32.64375Q422.59375 33.659374 422.26562 34.64375Q421.9375 35.6125 421.34375 36.3Q420.67188 37.08125 419.78125 37.471874Q418.89062 37.846874 417.79688 37.846874Q416.875 37.846874 416.04688 37.503124Q415.21875 37.14375 414.57812 36.4875Q413.9375 35.83125 413.5625 34.89375Q413.1875 33.940624 413.1875 32.76875Q413.1875 30.51875 414.5 29.08125Q415.8125 27.64375 417.9375 27.64375Q419.96875 27.64375 421.28125 29.01875Q422.59375 30.378124 422.59375 32.64375ZM420.5625 32.659374Q420.5625 31.925 420.42188 31.1125Q420.28125 30.3 419.98438 29.721874Q419.67188 29.128124 419.15625 28.76875Q418.65625 28.39375 417.92188 28.39375Q417.17188 28.39375 416.64062 28.76875Q416.10938 29.128124 415.76562 29.76875Q415.45312 30.378124 415.32812 31.14375Q415.20312 31.89375 415.20312 32.6125Q415.20312 33.55 415.35938 34.346874Q415.51562 35.14375 415.84375 35.76875Q416.17188 36.39375 416.67188 36.753124Q417.17188 37.096874 417.92188 37.096874Q419.14062 37.096874 419.84375 35.925Q420.5625 34.7375 420.5625 32.659374ZM431.375 23.596874Q431.375 24.034374 431.14062 24.346874Q430.90625 24.64375 430.42188 24.64375Q430.125 24.64375 429.89062 24.51875Q429.65625 24.378124 429.46875 24.175Q429.26562 23.95625 429.09375 23.690624Q428.9375 23.409374 428.82812 23.2375Q428.17188 23.26875 427.8125 24.159374Q427.45312 25.034374 427.45312 26.971874L427.45312 27.95625L429.9375 27.95625L429.9375 28.89375L427.45312 28.89375L427.45312 35.815624Q427.45312 36.159374 427.57812 36.378124Q427.71875 36.58125 428.0 36.690624Q428.23438 36.784374 428.625 36.83125Q429.01562 36.878124 429.29688 36.909374L429.29688 37.55L424.21875 37.55L424.21875 36.909374Q424.45312 36.878124 424.6875 36.8625Q424.92188 36.846874 425.10938 36.784374Q425.375 36.70625 425.5 36.4875Q425.64062 36.253124 425.64062 35.909374L425.64062 28.89375L423.73438 28.89375L423.73438 27.95625L425.64062 27.95625L425.64062 27.346874Q425.64062 25.14375 426.78125 23.784374Q427.92188 22.425 429.625 22.425Q430.5 22.425 430.9375 22.76875Q431.375 23.1125 431.375 23.596874ZM437.15625 33.003124L431.32812 33.003124L431.32812 31.471874L437.15625 31.471874L437.15625 33.003124ZM449.71875 27.45625L449.04688 27.45625Q448.95312 27.096874 448.71875 26.6125Q448.5 26.128124 448.21875 25.70625Q447.92188 25.253124 447.57812 24.925Q447.23438 24.58125 446.90625 24.534374Q446.60938 24.4875 446.14062 24.471874Q445.6875 24.45625 445.29688 24.45625L444.73438 24.45625L444.73438 35.534374Q444.73438 35.8625 444.85938 36.128124Q445.0 36.39375 445.34375 36.55Q445.51562 36.6125 446.07812 36.7375Q446.64062 36.846874 446.95312 36.8625L446.95312 37.55L440.40625 37.55L440.40625 36.8625Q440.6875 36.83125 441.25 36.784374Q441.8125 36.721874 442.01562 36.628124Q442.34375 36.503124 442.48438 36.26875Q442.64062 36.01875 442.64062 35.628124L442.64062 24.45625L442.07812 24.45625Q441.78125 24.45625 441.32812 24.471874Q440.875 24.4875 440.46875 24.534374Q440.14062 24.565624 439.79688 24.925Q439.45312 25.26875 439.15625 25.70625Q438.875 26.14375 438.64062 26.64375Q438.42188 27.128124 438.32812 27.45625L437.64062 27.45625L437.64062 23.690624L449.71875 23.690624L449.71875 27.45625ZM460.65625 37.55L455.9375 37.55L455.9375 36.909374Q456.15625 36.878124 456.42188 36.8625Q456.70312 36.846874 456.89062 36.784374Q457.15625 36.70625 457.28125 36.4875Q457.42188 36.253124 457.42188 35.909374L457.42188 30.95625Q457.42188 29.925 456.9375 29.378124Q456.45312 28.815624 455.76562 28.815624Q455.25 28.815624 454.8125 28.9875Q454.39062 29.14375 454.04688 29.378124Q453.70312 29.6125 453.53125 29.8625Q453.35938 30.1125 453.26562 30.26875L453.26562 35.815624Q453.26562 36.14375 453.39062 36.3625Q453.53125 36.565624 453.79688 36.690624Q454.01562 36.784374 454.23438 36.83125Q454.46875 36.878124 454.75 36.909374L454.75 37.55L450.01562 37.55L450.01562 36.909374Q450.25 36.878124 450.48438 36.8625Q450.73438 36.83125 450.89062 36.784374Q451.17188 36.70625 451.29688 36.4875Q451.4375 36.253124 451.4375 35.909374L451.4375 24.690624Q451.4375 24.3625 451.28125 24.034374Q451.14062 23.70625 450.89062 23.534374Q450.71875 23.409374 450.26562 23.3625Q449.82812 23.3 449.5625 23.284374L449.5625 22.659374L453.125 22.425L453.26562 22.58125L453.26562 29.3L453.29688 29.3Q453.625 28.971874 453.89062 28.721874Q454.15625 28.471874 454.57812 28.20625Q454.95312 27.971874 455.45312 27.815624Q455.95312 27.659374 456.57812 27.659374Q457.875 27.659374 458.5625 28.471874Q459.25 29.284374 459.25 30.815624L459.25 35.83125Q459.25 36.175 459.375 36.39375Q459.5 36.596874 459.78125 36.70625Q460.01562 36.8 460.1875 36.846874Q460.375 36.878124 460.65625 36.909374L460.65625 37.55ZM471.59375 32.64375Q471.59375 33.659374 471.26562 34.64375Q470.9375 35.6125 470.34375 36.3Q469.67188 37.08125 468.78125 37.471874Q467.89062 37.846874 466.79688 37.846874Q465.875 37.846874 465.04688 37.503124Q464.21875 37.14375 463.57812 36.4875Q462.9375 35.83125 462.5625 34.89375Q462.1875 33.940624 462.1875 32.76875Q462.1875 30.51875 463.5 29.08125Q464.8125 27.64375 466.9375 27.64375Q468.96875 27.64375 470.28125 29.01875Q471.59375 30.378124 471.59375 32.64375ZM469.5625 32.659374Q469.5625 31.925 469.42188 31.1125Q469.28125 30.3 468.98438 29.721874Q468.67188 29.128124 468.15625 28.76875Q467.65625 28.39375 466.92188 28.39375Q466.17188 28.39375 465.64062 28.76875Q465.10938 29.128124 464.76562 29.76875Q464.45312 30.378124 464.32812 31.14375Q464.20312 31.89375 464.20312 32.6125Q464.20312 33.55 464.35938 34.346874Q464.51562 35.14375 464.84375 35.76875Q465.17188 36.39375 465.67188 36.753124Q466.17188 37.096874 466.92188 37.096874Q468.14062 37.096874 468.84375 35.925Q469.5625 34.7375 469.5625 32.659374ZM483.53125 37.378124L480.39062 37.596874L480.25 37.45625L480.25 36.2375L480.1875 36.2375Q479.95312 36.471874 479.65625 36.753124Q479.35938 37.034374 478.98438 37.253124Q478.54688 37.51875 478.125 37.659374Q477.71875 37.8 476.96875 37.8Q475.6875 37.8 475.01562 36.971874Q474.35938 36.128124 474.35938 34.534374L474.35938 29.925Q474.35938 29.565624 474.21875 29.33125Q474.09375 29.096874 473.84375 28.909374Q473.65625 28.8 473.39062 28.753124Q473.14062 28.690624 472.84375 28.675L472.84375 28.034374L476.0625 27.8L476.20312 27.940624L476.20312 34.628124Q476.20312 35.675 476.67188 36.20625Q477.14062 36.721874 477.79688 36.721874Q478.32812 36.721874 478.75 36.565624Q479.17188 36.39375 479.45312 36.175Q479.71875 35.971874 479.92188 35.7375Q480.125 35.503124 480.21875 35.315624L480.21875 29.846874Q480.21875 29.534374 480.07812 29.284374Q479.95312 29.034374 479.70312 28.8625Q479.53125 28.7375 479.1875 28.721874Q478.84375 28.690624 478.40625 28.675L478.40625 28.034374L481.90625 27.8L482.04688 27.940624L482.04688 35.58125Q482.04688 35.925 482.1875 36.159374Q482.32812 36.39375 482.5625 36.55Q482.75 36.659374 482.98438 36.690624Q483.23438 36.721874 483.53125 36.7375L483.53125 37.378124ZM493.45312 36.55Q493.84375 36.925 494.0625 37.39375Q494.29688 37.8625 494.29688 38.55Q494.29688 39.253124 493.98438 39.8625Q493.6875 40.471874 493.07812 40.925Q492.42188 41.378124 491.51562 41.628124Q490.60938 41.89375 489.26562 41.89375Q487.07812 41.89375 485.98438 41.253124Q484.90625 40.6125 484.90625 39.378124Q484.90625 38.378124 485.6875 37.8Q486.46875 37.221874 487.6875 37.175L487.6875 37.034374Q487.39062 36.95625 487.07812 36.83125Q486.76562 36.690624 486.54688 36.51875Q486.28125 36.315624 486.125 36.034374Q485.96875 35.753124 485.96875 35.346874Q485.96875 34.83125 486.32812 34.39375Q486.70312 33.95625 487.45312 33.64375L487.45312 33.503124Q486.51562 33.05 486.0 32.3625Q485.48438 31.675 485.48438 30.76875Q485.48438 29.409374 486.5 28.534374Q487.51562 27.64375 489.10938 27.64375Q489.54688 27.64375 489.98438 27.7375Q490.42188 27.815624 490.875 27.95625L494.23438 27.95625L494.23438 28.89375L491.96875 28.89375L491.96875 28.95625Q492.32812 29.378124 492.5 29.89375Q492.67188 30.39375 492.67188 30.878124Q492.67188 32.14375 491.64062 33.034374Q490.60938 33.909374 489.25 33.909374L488.0625 33.909374Q487.84375 33.9875 487.59375 34.190624Q487.35938 34.39375 487.35938 34.753124Q487.35938 35.1125 487.5625 35.3Q487.76562 35.4875 488.0625 35.55Q488.34375 35.628124 488.71875 35.659374Q489.09375 35.675 489.48438 35.690624Q489.92188 35.690624 490.67188 35.7375Q491.42188 35.784374 491.73438 35.8Q492.17188 35.815624 492.625 36.01875Q493.07812 36.20625 493.45312 36.55ZM490.8125 30.846874Q490.8125 29.690624 490.34375 29.01875Q489.89062 28.346874 489.04688 28.346874Q488.59375 28.346874 488.26562 28.534374Q487.9375 28.721874 487.73438 29.065624Q487.53125 29.39375 487.45312 29.846874Q487.375 30.3 487.375 30.784374Q487.375 31.8625 487.84375 32.55Q488.3125 33.2375 489.07812 33.2375Q489.90625 33.2375 490.35938 32.565624Q490.8125 31.878124 490.8125 30.846874ZM492.6875 38.925Q492.6875 38.378124 492.4375 38.01875Q492.1875 37.675 491.67188 37.534374Q491.39062 37.503124 490.54688 37.45625Q489.70312 37.409374 488.57812 37.409374Q487.51562 37.6125 487.0625 38.096874Q486.625 38.58125 486.625 39.33125Q486.625 39.675 486.76562 39.9875Q486.92188 40.3 487.28125 40.565624Q487.625 40.815624 488.20312 40.971874Q488.78125 41.14375 489.60938 41.14375Q491.04688 41.14375 491.85938 40.58125Q492.6875 40.034374 492.6875 38.925ZM505.65625 37.55L500.9375 37.55L500.9375 36.909374Q501.15625 36.878124 501.42188 36.8625Q501.70312 36.846874 501.89062 36.784374Q502.15625 36.70625 502.28125 36.4875Q502.42188 36.253124 502.42188 35.909374L502.42188 30.95625Q502.42188 29.925 501.9375 29.378124Q501.45312 28.815624 500.76562 28.815624Q500.25 28.815624 499.8125 28.9875Q499.39062 29.14375 499.04688 29.378124Q498.70312 29.6125 498.53125 29.8625Q498.35938 30.1125 498.26562 30.26875L498.26562 35.815624Q498.26562 36.14375 498.39062 36.3625Q498.53125 36.565624 498.79688 36.690624Q499.01562 36.784374 499.23438 36.83125Q499.46875 36.878124 499.75 36.909374L499.75 37.55L495.01562 37.55L495.01562 36.909374Q495.25 36.878124 495.48438 36.8625Q495.73438 36.83125 495.89062 36.784374Q496.17188 36.70625 496.29688 36.4875Q496.4375 36.253124 496.4375 35.909374L496.4375 24.690624Q496.4375 24.3625 496.28125 24.034374Q496.14062 23.70625 495.89062 23.534374Q495.71875 23.409374 495.26562 23.3625Q494.82812 23.3 494.5625 23.284374L494.5625 22.659374L498.125 22.425L498.26562 22.58125L498.26562 29.3L498.29688 29.3Q498.625 28.971874 498.89062 28.721874Q499.15625 28.471874 499.57812 28.20625Q499.95312 27.971874 500.45312 27.815624Q500.95312 27.659374 501.57812 27.659374Q502.875 27.659374 503.5625 28.471874Q504.25 29.284374 504.25 30.815624L504.25 35.83125Q504.25 36.175 504.375 36.39375Q504.5 36.596874 504.78125 36.70625Q505.01562 36.8 505.1875 36.846874Q505.375 36.878124 505.65625 36.909374L505.65625 37.55ZM513.15625 37.128124Q512.5156 37.39375 511.95312 37.565624Q511.39062 37.753124 510.5625 37.753124Q509.35938 37.753124 508.85938 37.14375Q508.35938 36.534374 508.35938 35.425L508.35938 28.89375L506.625 28.89375L506.625 27.95625L508.40625 27.95625L508.40625 24.95625L510.1875 24.95625L510.1875 27.95625L512.9531 27.95625L512.9531 28.89375L510.20312 28.89375L510.20312 34.284374Q510.20312 34.878124 510.25 35.284374Q510.29688 35.690624 510.45312 36.003124Q510.60938 36.284374 510.92188 36.425Q511.23438 36.565624 511.76562 36.565624Q512.0156 36.565624 512.4844 36.534374Q512.9531 36.4875 513.15625 36.409374L513.15625 37.128124Z" fill-rule="nonzero"/></svg>