<svg version="1.1" viewBox="0.0 0.0 1193.0 739.0" fill="none" stroke="none" stroke-linecap="square" stroke-miterlimit="10" width="1193" height="739" xmlns:xlink="http://www.w3.org/1999/xlink" xmlns="http://www.w3.org/2000/svg"><path fill="#ffffff" d="M0 0L1193.0 0L1193.0 739.0L0 739.0L0 0Z" fill-rule="nonzero"/><path stroke="#333333" stroke-width="1.0" stroke-linecap="butt" d="M146.5 588.5L1156.5 588.5" fill-rule="nonzero"/><path stroke="#cccccc" stroke-width="1.0" stroke-linecap="butt" d="M146.5 453.5L1156.5 453.5" fill-rule="nonzero"/><path stroke="#cccccc" stroke-width="1.0" stroke-linecap="butt" d="M146.5 318.5L1156.5 318.5" fill-rule="nonzero"/><path stroke="#cccccc" stroke-width="1.0" stroke-linecap="butt" d="M146.5 183.5L1156.5 183.5" fill-rule="nonzero"/><path stroke="#cccccc" stroke-width="1.0" stroke-linecap="butt" d="M146.5 48.5L1156.5 48.5" fill-rule="nonzero"/><clipPath id="id_0"><path d="M146.95 48.95L1156.05 48.95L1156.05 588.05L146.95 588.05L146.95 48.95Z" clip-rule="nonzero"/></clipPath><path stroke="#000000" stroke-width="2.0" stroke-linecap="butt" stroke-opacity="0.0" clip-path="url(#id_0)" d="M448.0 588.0L252.0 588.0L252.0 110.0C252.0 108.89543 252.89543 108.0 254.0 108.0L446.0 108.0C447.10458 108.0 448.0 108.89543 448.0 110.0Z" fill-rule="nonzero"/><path fill="#4285f4" clip-path="url(#id_0)" d="M448.0 588.0L252.0 588.0L252.0 110.0C252.0 108.89543 252.89543 108.0 254.0 108.0L446.0 108.0C447.10458 108.0 448.0 108.89543 448.0 110.0Z" fill-rule="nonzero"/><path stroke="#000000" stroke-width="2.0" stroke-linecap="butt" stroke-opacity="0.0" clip-path="url(#id_0)" d="M750.0 588.0L554.0 588.0L554.0 64.0C554.0 62.89543 554.89545 62.0 556.0 62.0L748.0 62.0C749.10455 62.0 750.0 62.89543 750.0 64.0Z" fill-rule="nonzero"/><path fill="#ea4335" clip-path="url(#id_0)" d="M750.0 588.0L554.0 588.0L554.0 64.0C554.0 62.89543 554.89545 62.0 556.0 62.0L748.0 62.0C749.10455 62.0 750.0 62.89543 750.0 64.0Z" fill-rule="nonzero"/><path stroke="#000000" stroke-width="2.0" stroke-linecap="butt" stroke-opacity="0.0" clip-path="url(#id_0)" d="M1051.0 588.0L855.0 588.0L855.0 71.0C855.0 69.89543 855.89545 69.0 857.0 69.0L1049.0 69.0C1050.1046 69.0 1051.0 69.89543 1051.0 71.0Z" fill-rule="nonzero"/><path fill="#fbbc04" clip-path="url(#id_0)" d="M1051.0 588.0L855.0 588.0L855.0 71.0C855.0 69.89543 855.89545 69.0 857.0 69.0L1049.0 69.0C1050.1046 69.0 1051.0 69.89543 1051.0 71.0Z" fill-rule="nonzero"/><path stroke="#ffffff" stroke-width="3.0" stroke-linejoin="round" stroke-linecap="round" d="M336.26562 56.545876L325.59375 75.983376L323.39062 75.983376L333.26562 58.733376L326.5625 58.733376Q325.28125 58.733376 324.5625 58.749Q323.84375 58.764626 323.25 59.045876Q322.76562 59.264626 322.42188 60.0615Q322.07812 60.858376 321.875 62.014626L320.79688 62.014626L320.79688 54.795876L336.26562 54.795876L336.26562 56.545876ZM350.35938 70.577126L338.26562 70.577126L338.26562 69.46775Q338.71875 69.4365 339.67188 69.327126Q340.625 69.202126 340.98438 69.077126Q341.42188 68.9365 341.67188 68.59275Q341.92188 68.233376 341.92188 67.624L341.92188 58.327126L338.21875 58.327126L338.21875 56.9365L339.01562 56.9365Q340.29688 56.9365 341.21875 56.670876Q342.15625 56.389626 342.76562 55.983376Q343.40625 55.577126 343.79688 55.139626Q344.20312 54.702126 344.4375 54.358376L347.01562 54.358376Q346.96875 55.3115 346.92188 56.59275Q346.89062 57.858376 346.89062 58.874L346.89062 67.452126Q346.89062 67.983376 347.10938 68.374Q347.34375 68.764626 347.76562 68.96775Q348.14062 69.139626 349.03125 69.295876Q349.9375 69.4365 350.35938 69.46775L350.35938 70.577126ZM359.32812 68.139626Q359.32812 69.295876 358.46875 70.15525Q357.60938 70.999 356.4375 70.999Q355.25 70.999 354.39062 70.15525Q353.53125 69.3115 353.53125 68.139626Q353.53125 66.96775 354.39062 66.124Q355.25 65.264626 356.4375 65.264626Q357.60938 65.264626 358.46875 66.124Q359.32812 66.983376 359.32812 68.139626ZM376.67188 65.65525Q377.5625 66.233376 378.14062 67.21775Q378.73438 68.1865 378.73438 69.608376Q378.73438 72.34275 376.10938 74.15525Q373.48438 75.983376 369.35938 75.983376Q366.39062 75.983376 364.32812 74.71775Q362.26562 73.452126 362.26562 71.608376Q362.26562 70.5615 362.92188 69.84275Q363.59375 69.124 364.70312 69.124Q365.85938 69.124 366.59375 69.749Q367.34375 70.374 367.34375 71.40525Q367.34375 72.124 367.07812 73.014626Q366.82812 73.90525 366.6875 74.327126Q367.01562 74.46775 367.51562 74.545876Q368.03125 74.639626 368.71875 74.639626Q369.57812 74.639626 370.39062 74.358376Q371.20312 74.077126 371.79688 73.452126Q372.42188 72.795876 372.76562 71.90525Q373.10938 71.014626 373.10938 69.545876Q373.10938 68.71775 372.95312 67.96775Q372.8125 67.21775 372.40625 66.670876Q371.98438 66.108376 371.26562 65.795876Q370.5625 65.483376 369.46875 65.483376L367.60938 65.483376L367.60938 63.702126L368.92188 63.702126Q370.76562 63.702126 371.59375 62.624Q372.42188 61.53025 372.42188 59.28025Q372.42188 57.483376 371.625 56.59275Q370.82812 55.6865 369.32812 55.6865Q368.75 55.6865 368.32812 55.749Q367.90625 55.8115 367.46875 55.983376Q367.625 56.483376 367.85938 57.374Q368.09375 58.264626 368.09375 58.90525Q368.09375 59.9365 367.375 60.5615Q366.65625 61.170876 365.5 61.170876Q364.40625 61.170876 363.75 60.452126Q363.09375 59.733376 363.09375 58.71775Q363.09375 56.889626 365.1875 55.608376Q367.29688 54.327126 370.48438 54.327126Q372.67188 54.327126 374.10938 54.84275Q375.5625 55.358376 376.39062 56.108376Q377.21875 56.84275 377.53125 57.6865Q377.84375 58.514626 377.84375 59.202126Q377.84375 59.84275 377.57812 60.65525Q377.3125 61.46775 376.78125 62.077126Q376.14062 62.827126 375.09375 63.374Q374.04688 63.90525 372.65625 64.202126L372.65625 64.4365Q373.60938 64.499 374.71875 64.795876Q375.82812 65.077126 376.67188 65.65525Z" fill-rule="nonzero"/><path fill="#000000" d="M336.26562 56.545876L325.59375 75.983376L323.39062 75.983376L333.26562 58.733376L326.5625 58.733376Q325.28125 58.733376 324.5625 58.749Q323.84375 58.764626 323.25 59.045876Q322.76562 59.264626 322.42188 60.0615Q322.07812 60.858376 321.875 62.014626L320.79688 62.014626L320.79688 54.795876L336.26562 54.795876L336.26562 56.545876ZM350.35938 70.577126L338.26562 70.577126L338.26562 69.46775Q338.71875 69.4365 339.67188 69.327126Q340.625 69.202126 340.98438 69.077126Q341.42188 68.9365 341.67188 68.59275Q341.92188 68.233376 341.92188 67.624L341.92188 58.327126L338.21875 58.327126L338.21875 56.9365L339.01562 56.9365Q340.29688 56.9365 341.21875 56.670876Q342.15625 56.389626 342.76562 55.983376Q343.40625 55.577126 343.79688 55.139626Q344.20312 54.702126 344.4375 54.358376L347.01562 54.358376Q346.96875 55.3115 346.92188 56.59275Q346.89062 57.858376 346.89062 58.874L346.89062 67.452126Q346.89062 67.983376 347.10938 68.374Q347.34375 68.764626 347.76562 68.96775Q348.14062 69.139626 349.03125 69.295876Q349.9375 69.4365 350.35938 69.46775L350.35938 70.577126ZM359.32812 68.139626Q359.32812 69.295876 358.46875 70.15525Q357.60938 70.999 356.4375 70.999Q355.25 70.999 354.39062 70.15525Q353.53125 69.3115 353.53125 68.139626Q353.53125 66.96775 354.39062 66.124Q355.25 65.264626 356.4375 65.264626Q357.60938 65.264626 358.46875 66.124Q359.32812 66.983376 359.32812 68.139626ZM376.67188 65.65525Q377.5625 66.233376 378.14062 67.21775Q378.73438 68.1865 378.73438 69.608376Q378.73438 72.34275 376.10938 74.15525Q373.48438 75.983376 369.35938 75.983376Q366.39062 75.983376 364.32812 74.71775Q362.26562 73.452126 362.26562 71.608376Q362.26562 70.5615 362.92188 69.84275Q363.59375 69.124 364.70312 69.124Q365.85938 69.124 366.59375 69.749Q367.34375 70.374 367.34375 71.40525Q367.34375 72.124 367.07812 73.014626Q366.82812 73.90525 366.6875 74.327126Q367.01562 74.46775 367.51562 74.545876Q368.03125 74.639626 368.71875 74.639626Q369.57812 74.639626 370.39062 74.358376Q371.20312 74.077126 371.79688 73.452126Q372.42188 72.795876 372.76562 71.90525Q373.10938 71.014626 373.10938 69.545876Q373.10938 68.71775 372.95312 67.96775Q372.8125 67.21775 372.40625 66.670876Q371.98438 66.108376 371.26562 65.795876Q370.5625 65.483376 369.46875 65.483376L367.60938 65.483376L367.60938 63.702126L368.92188 63.702126Q370.76562 63.702126 371.59375 62.624Q372.42188 61.53025 372.42188 59.28025Q372.42188 57.483376 371.625 56.59275Q370.82812 55.6865 369.32812 55.6865Q368.75 55.6865 368.32812 55.749Q367.90625 55.8115 367.46875 55.983376Q367.625 56.483376 367.85938 57.374Q368.09375 58.264626 368.09375 58.90525Q368.09375 59.9365 367.375 60.5615Q366.65625 61.170876 365.5 61.170876Q364.40625 61.170876 363.75 60.452126Q363.09375 59.733376 363.09375 58.71775Q363.09375 56.889626 365.1875 55.608376Q367.29688 54.327126 370.48438 54.327126Q372.67188 54.327126 374.10938 54.84275Q375.5625 55.358376 376.39062 56.108376Q377.21875 56.84275 377.53125 57.6865Q377.84375 58.514626 377.84375 59.202126Q377.84375 59.84275 377.57812 60.65525Q377.3125 61.46775 376.78125 62.077126Q376.14062 62.827126 375.09375 63.374Q374.04688 63.90525 372.65625 64.202126L372.65625 64.4365Q373.60938 64.499 374.71875 64.795876Q375.82812 65.077126 376.67188 65.65525Z" fill-rule="nonzero"/><path stroke="#ffffff" stroke-width="3.0" stroke-linejoin="round" stroke-linecap="round" d="M650.2656 11.39625L639.59375 30.83375L637.3906 30.83375L647.2656 13.58375L640.5625 13.58375Q639.28125 13.58375 638.5625 13.599375Q637.84375 13.615 637.25 13.89625Q636.7656 14.115 636.4219 14.911875Q636.0781 15.70875 635.875 16.865L634.7969 16.865L634.7969 9.64625L650.2656 9.64625L650.2656 11.39625ZM669.2656 19.615Q669.2656 22.3025 666.8594 24.14625Q664.4531 25.974375 660.2969 25.974375Q656.59375 25.974375 654.3125 24.411875Q652.03125 22.83375 652.03125 20.380625Q652.03125 18.505625 653.25 17.286875Q654.46875 16.0525 657.1094 15.443125Q655.0 14.49 653.9219 13.036875Q652.84375 11.58375 652.84375 9.8025Q652.84375 7.349375 655.1719 5.693125Q657.5156 4.036875 660.9531 4.036875Q664.2969 4.036875 666.3594 5.505625Q668.4375 6.974375 668.4375 9.130625Q668.4375 10.8025 667.3125 11.943125Q666.1875 13.08375 663.9531 13.755625Q666.7656 14.755625 668.0156 16.24Q669.2656 17.70875 669.2656 19.615ZM663.5469 9.115Q663.5469 7.411875 662.7969 6.365Q662.0469 5.318125 660.7031 5.318125Q659.4219 5.318125 658.5781 6.20875Q657.75 7.099375 657.75 8.49Q657.75 9.45875 658.1094 10.115Q658.4844 10.77125 659.15625 11.24Q659.7656 11.70875 660.8906 12.255625Q662.0156 12.786875 662.8906 13.224375Q663.21875 12.49 663.375 11.4275Q663.5469 10.365 663.5469 9.115ZM664.34375 21.08375Q664.34375 20.068125 663.90625 19.39625Q663.46875 18.724375 662.6406 18.1775Q661.8281 17.64625 660.5625 17.099375Q659.2969 16.536875 658.1406 15.95875Q657.65625 16.536875 657.2969 17.6775Q656.9375 18.818125 656.9375 20.099375Q656.9375 22.255625 657.96875 23.474375Q659.0156 24.6775 660.7031 24.6775Q662.40625 24.6775 663.375 23.693125Q664.34375 22.693125 664.34375 21.08375Z" fill-rule="nonzero"/><path fill="#000000" d="M650.2656 11.39625L639.59375 30.83375L637.3906 30.83375L647.2656 13.58375L640.5625 13.58375Q639.28125 13.58375 638.5625 13.599375Q637.84375 13.615 637.25 13.89625Q636.7656 14.115 636.4219 14.911875Q636.0781 15.70875 635.875 16.865L634.7969 16.865L634.7969 9.64625L650.2656 9.64625L650.2656 11.39625ZM669.2656 19.615Q669.2656 22.3025 666.8594 24.14625Q664.4531 25.974375 660.2969 25.974375Q656.59375 25.974375 654.3125 24.411875Q652.03125 22.83375 652.03125 20.380625Q652.03125 18.505625 653.25 17.286875Q654.46875 16.0525 657.1094 15.443125Q655.0 14.49 653.9219 13.036875Q652.84375 11.58375 652.84375 9.8025Q652.84375 7.349375 655.1719 5.693125Q657.5156 4.036875 660.9531 4.036875Q664.2969 4.036875 666.3594 5.505625Q668.4375 6.974375 668.4375 9.130625Q668.4375 10.8025 667.3125 11.943125Q666.1875 13.08375 663.9531 13.755625Q666.7656 14.755625 668.0156 16.24Q669.2656 17.70875 669.2656 19.615ZM663.5469 9.115Q663.5469 7.411875 662.7969 6.365Q662.0469 5.318125 660.7031 5.318125Q659.4219 5.318125 658.5781 6.20875Q657.75 7.099375 657.75 8.49Q657.75 9.45875 658.1094 10.115Q658.4844 10.77125 659.15625 11.24Q659.7656 11.70875 660.8906 12.255625Q662.0156 12.786875 662.8906 13.224375Q663.21875 12.49 663.375 11.4275Q663.5469 10.365 663.5469 9.115ZM664.34375 21.08375Q664.34375 20.068125 663.90625 19.39625Q663.46875 18.724375 662.6406 18.1775Q661.8281 17.64625 660.5625 17.099375Q659.2969 16.536875 658.1406 15.95875Q657.65625 16.536875 657.2969 17.6775Q656.9375 18.818125 656.9375 20.099375Q656.9375 22.255625 657.96875 23.474375Q659.0156 24.6775 660.7031 24.6775Q662.40625 24.6775 663.375 23.693125Q664.34375 22.693125 664.34375 21.08375Z" fill-rule="nonzero"/><path stroke="#ffffff" stroke-width="3.0" stroke-linejoin="round" stroke-linecap="round" d="M952.7656 18.135L942.09375 37.5725L939.8906 37.5725L949.7656 20.3225L943.0625 20.3225Q941.78125 20.3225 941.0625 20.338125Q940.34375 20.35375 939.75 20.635Q939.2656 20.85375 938.9219 21.650625Q938.5781 22.4475 938.375 23.60375L937.2969 23.60375L937.2969 16.385L952.7656 16.385L952.7656 18.135ZM969.7656 18.135L959.09375 37.5725L956.8906 37.5725L966.7656 20.3225L960.0625 20.3225Q958.78125 20.3225 958.0625 20.338125Q957.34375 20.35375 956.75 20.635Q956.2656 20.85375 955.9219 21.650625Q955.5781 22.4475 955.375 23.60375L954.2969 23.60375L954.2969 16.385L969.7656 16.385L969.7656 18.135Z" fill-rule="nonzero"/><path fill="#000000" d="M952.7656 18.134998L942.09375 37.5725L939.8906 37.5725L949.7656 20.322498L943.0625 20.322498Q941.78125 20.322498 941.0625 20.338123Q940.34375 20.353748 939.75 20.634998Q939.2656 20.853748 938.9219 21.650623Q938.5781 22.447498 938.375 23.603748L937.2969 23.603748L937.2969 16.384998L952.7656 16.384998L952.7656 18.134998ZM969.7656 18.134998L959.09375 37.5725L956.8906 37.5725L966.7656 20.322498L960.0625 20.322498Q958.78125 20.322498 958.0625 20.338123Q957.34375 20.353748 956.75 20.634998Q956.2656 20.853748 955.9219 21.650623Q955.5781 22.447498 955.375 23.603748L954.2969 23.603748L954.2969 16.384998L969.7656 16.384998L969.7656 18.134998Z" fill-rule="nonzero"/><path fill="#000000" d="M563.875 683.51874Q563.875 684.8156 563.3594 685.83124Q562.8594 686.83124 561.9531 687.4875Q561.0625 688.14374 560.0 688.45624Q558.9375 688.7531 557.7344 688.7531L555.875 688.7531L555.875 693.78436Q555.875 694.1906 556.0 694.5031Q556.1406 694.8156 556.5625 694.9875Q556.78125 695.0656 557.3125 695.14374Q557.84375 695.20624 558.28125 695.22186L558.28125 696.05L551.15625 696.05L551.15625 695.22186Q551.4375 695.1906 551.96875 695.14374Q552.5 695.08124 552.7031 694.9875Q553.0625 694.83124 553.21875 694.53436Q553.375 694.2375 553.375 693.78436L553.375 681.78436Q553.375 681.3781 553.25 681.05Q553.1406 680.72186 552.7031 680.55Q552.2656 680.40936 551.8281 680.34686Q551.3906 680.26874 551.0625 680.2531L551.0625 679.425L558.65625 679.425Q560.9844 679.425 562.4219 680.55Q563.875 681.65936 563.875 683.51874ZM560.3125 686.3625Q560.71875 685.8 560.84375 685.1906Q560.96875 684.58124 560.96875 684.1125Q560.96875 683.4406 560.8125 682.7531Q560.65625 682.05 560.2656 681.53436Q559.8594 680.9875 559.1875 680.6906Q558.5156 680.3781 557.53125 680.3781L555.875 680.3781L555.875 687.72186L557.0625 687.72186Q558.3281 687.72186 559.125 687.33124Q559.9219 686.9406 560.3125 686.3625ZM574.6875 685.9875Q574.6875 686.58124 574.3906 687.05Q574.1094 687.5031 573.5 687.5031Q572.84375 687.5031 572.5 687.175Q572.15625 686.83124 572.15625 686.40936Q572.15625 686.15936 572.1875 685.95624Q572.2344 685.7375 572.2656 685.51874Q571.71875 685.51874 570.96875 685.97186Q570.2344 686.40936 569.71875 687.2375L569.71875 693.95624Q569.71875 694.3781 569.875 694.64374Q570.0469 694.89374 570.375 695.01874Q570.6719 695.1281 571.125 695.1906Q571.59375 695.2531 571.9375 695.26874L571.9375 696.05L565.84375 696.05L565.84375 695.26874Q566.1094 695.2531 566.3906 695.2375Q566.6875 695.20624 566.90625 695.1281Q567.2344 695.03436 567.3906 694.76874Q567.5469 694.5031 567.5469 694.08124L567.5469 686.9406Q567.5469 686.58124 567.375 686.2375Q567.2031 685.8781 566.90625 685.65936Q566.6719 685.51874 566.3594 685.45624Q566.0625 685.39374 565.71875 685.3781L565.71875 684.6125L569.5625 684.34686L569.71875 684.51874L569.71875 686.14374L569.78125 686.14374Q570.5156 685.1906 571.40625 684.70624Q572.2969 684.20624 573.03125 684.20624Q573.7656 684.20624 574.21875 684.6906Q574.6875 685.175 574.6875 685.9875ZM587.1094 690.15936Q587.1094 691.3781 586.71875 692.55Q586.3281 693.72186 585.625 694.55Q584.8125 695.4875 583.7344 695.95624Q582.6719 696.40936 581.3594 696.40936Q580.25 696.40936 579.25 695.9875Q578.2656 695.5656 577.4844 694.76874Q576.71875 693.9875 576.2656 692.8625Q575.8281 691.72186 575.8281 690.3156Q575.8281 687.6125 577.3906 685.89374Q578.96875 684.15936 581.53125 684.15936Q583.9531 684.15936 585.53125 685.8Q587.1094 687.4406 587.1094 690.15936ZM584.6875 690.175Q584.6875 689.3 584.5 688.33124Q584.3281 687.34686 583.9844 686.65936Q583.6094 685.9406 583.0 685.5031Q582.3906 685.05 581.5 685.05Q580.6094 685.05 579.96875 685.5031Q579.3281 685.9406 578.9219 686.72186Q578.5469 687.4406 578.3906 688.3625Q578.25 689.26874 578.25 690.1125Q578.25 691.2375 578.4219 692.20624Q578.6094 693.15936 579.0156 693.90936Q579.40625 694.65936 580.0 695.08124Q580.6094 695.5031 581.5 695.5031Q582.96875 695.5031 583.8281 694.09686Q584.6875 692.675 584.6875 690.175ZM608.6406 696.05L603.0 696.05L603.0 695.26874Q603.2656 695.2531 603.5469 695.2375Q603.8281 695.20624 604.03125 695.1281Q604.3594 695.03436 604.5156 694.76874Q604.6719 694.5031 604.6719 694.08124L604.6719 688.1125Q604.6719 686.89374 604.1094 686.2375Q603.5625 685.5656 602.7344 685.5656Q602.15625 685.5656 601.65625 685.7531Q601.15625 685.925 600.7344 686.2375Q600.3906 686.5031 600.15625 686.8Q599.9375 687.09686 599.8125 687.3L599.8125 693.95624Q599.8125 694.3781 599.9531 694.64374Q600.09375 694.89374 600.4375 695.03436Q600.7031 695.14374 600.9219 695.20624Q601.1406 695.2531 601.4844 695.26874L601.4844 696.05L595.96875 696.05L595.96875 695.26874Q596.2344 695.2531 596.4844 695.2375Q596.75 695.20624 596.9531 695.1281Q597.28125 695.03436 597.4375 694.76874Q597.59375 694.5031 597.59375 694.08124L597.59375 688.1125Q597.59375 686.89374 597.03125 686.2375Q596.4844 685.5656 595.65625 685.5656Q595.0781 685.5656 594.5781 685.7531Q594.0781 685.9406 593.65625 686.2531Q593.3125 686.5031 593.0781 686.83124Q592.84375 687.15936 592.71875 687.3156L592.71875 693.9406Q592.71875 694.33124 592.875 694.6125Q593.0469 694.8781 593.375 695.01874Q593.625 695.1281 593.875 695.1906Q594.1406 695.2531 594.4531 695.26874L594.4531 696.05L588.84375 696.05L588.84375 695.26874Q589.1094 695.2531 589.3906 695.2375Q589.6875 695.20624 589.90625 695.1281Q590.2344 695.03436 590.3906 694.76874Q590.5469 694.5031 590.5469 694.08124L590.5469 686.89374Q590.5469 686.51874 590.375 686.22186Q590.2031 685.925 589.90625 685.70624Q589.6719 685.5656 589.34375 685.4875Q589.0156 685.39374 588.6719 685.3781L588.6719 684.6125L592.53125 684.34686L592.7031 684.51874L592.7031 686.175L592.78125 686.175Q593.0781 685.8781 593.5 685.4875Q593.9219 685.08124 594.28125 684.83124Q594.6875 684.55 595.2969 684.3625Q595.9219 684.175 596.6406 684.175Q597.7656 684.175 598.5625 684.78436Q599.375 685.3781 599.7344 686.2375Q600.15625 685.83124 600.46875 685.51874Q600.7969 685.20624 601.3281 684.8625Q601.7656 684.55 602.375 684.3625Q602.9844 684.175 603.71875 684.175Q605.1875 684.175 606.03125 685.14374Q606.8906 686.09686 606.8906 688.09686L606.8906 693.95624Q606.8906 694.3781 607.03125 694.64374Q607.1719 694.89374 607.5156 695.03436Q607.78125 695.14374 608.0469 695.20624Q608.3125 695.2531 608.6406 695.26874L608.6406 696.05ZM620.40625 685.8625Q621.09375 686.6906 621.46875 687.76874Q621.8594 688.84686 621.8594 690.2531Q621.8594 691.6125 621.3906 692.7531Q620.9375 693.8781 620.1875 694.675Q619.40625 695.4875 618.4375 695.925Q617.4844 696.3625 616.40625 696.3625Q615.3594 696.3625 614.6875 696.1125Q614.03125 695.8781 613.6094 695.5656L613.5156 695.5656L613.5156 699.03436Q613.5156 699.45624 613.6719 699.7375Q613.84375 700.01874 614.1875 700.15936Q614.46875 700.2531 614.9844 700.34686Q615.5 700.45624 615.84375 700.47186L615.84375 701.2531L609.3906 701.2531L609.3906 700.47186Q609.75 700.4406 610.09375 700.40936Q610.4375 700.3781 610.7031 700.3Q611.0469 700.175 611.1875 699.8781Q611.3281 699.59686 611.3281 699.1906L611.3281 686.89374Q611.3281 686.55 611.15625 686.22186Q610.9844 685.89374 610.7031 685.6906Q610.4844 685.55 610.1094 685.47186Q609.7344 685.39374 609.3906 685.3781L609.3906 684.6125L613.3281 684.34686L613.4844 684.4875L613.4844 685.8L613.5781 685.8156Q614.1875 685.1125 615.09375 684.64374Q616.0 684.175 616.8906 684.175Q617.96875 684.175 618.8594 684.64374Q619.7656 685.09686 620.40625 685.8625ZM618.5 694.175Q618.96875 693.4406 619.1875 692.4875Q619.40625 691.51874 619.40625 690.34686Q619.40625 689.47186 619.21875 688.58124Q619.03125 687.675 618.6406 687.0031Q618.2344 686.3156 617.59375 685.89374Q616.9531 685.47186 616.0469 685.47186Q615.1719 685.47186 614.5625 685.8625Q613.9531 686.2375 613.5156 686.76874L613.5156 693.59686Q613.625 693.90936 613.8594 694.2531Q614.09375 694.59686 614.3906 694.84686Q614.75 695.1281 615.1719 695.3156Q615.59375 695.5031 616.2031 695.5031Q616.8594 695.5031 617.46875 695.15936Q618.0781 694.8 618.5 694.175ZM630.9844 695.55Q630.21875 695.8625 629.53125 696.08124Q628.8594 696.3 627.875 696.3Q626.4219 696.3 625.8281 695.5656Q625.2344 694.83124 625.2344 693.4875L625.2344 685.65936L623.15625 685.65936L623.15625 684.53436L625.28125 684.53436L625.28125 680.9406L627.4219 680.9406L627.4219 684.53436L630.7344 684.53436L630.7344 685.65936L627.4375 685.65936L627.4375 692.1281Q627.4375 692.84686 627.4844 693.33124Q627.5469 693.8156 627.75 694.1906Q627.9375 694.51874 628.3125 694.70624Q628.6875 694.8781 629.3125 694.8781Q629.6094 694.8781 630.1719 694.83124Q630.75 694.76874 630.9844 694.6906L630.9844 695.55ZM637.4531 696.05L631.875 696.05L631.875 695.26874Q632.1406 695.2531 632.4219 695.2375Q632.71875 695.20624 632.9219 695.1281Q633.25 695.03436 633.40625 694.76874Q633.5625 694.5031 633.5625 694.08124L633.5625 686.9406Q633.5625 686.5656 633.3906 686.2531Q633.2344 685.9406 632.9219 685.7375Q632.7031 685.59686 632.28125 685.5031Q631.8594 685.39374 631.5 685.3781L631.5 684.6125L635.5781 684.34686L635.75 684.51874L635.75 693.9406Q635.75 694.34686 635.90625 694.6281Q636.0625 694.89374 636.40625 695.01874Q636.65625 695.1281 636.90625 695.1906Q637.15625 695.2531 637.4531 695.26874L637.4531 696.05ZM635.9844 679.8Q635.9844 680.45624 635.5469 680.95624Q635.1094 681.45624 634.4531 681.45624Q633.8594 681.45624 633.4219 680.9875Q632.9844 680.5031 632.9844 679.89374Q632.9844 679.2531 633.4219 678.78436Q633.8594 678.3 634.4531 678.3Q635.125 678.3 635.5469 678.7531Q635.9844 679.1906 635.9844 679.8ZM651.6094 696.05L645.9531 696.05L645.9531 695.26874Q646.21875 695.2531 646.53125 695.2375Q646.8594 695.20624 647.0781 695.1281Q647.40625 695.03436 647.5625 694.76874Q647.71875 694.5031 647.71875 694.08124L647.71875 688.14374Q647.71875 686.90936 647.1406 686.2375Q646.5625 685.5656 645.71875 685.5656Q645.1094 685.5656 644.59375 685.76874Q644.0781 685.95624 643.6719 686.2375Q643.28125 686.5031 643.0469 686.8156Q642.8281 687.1281 642.71875 687.3156L642.71875 693.95624Q642.71875 694.3625 642.875 694.6281Q643.0469 694.8781 643.375 695.01874Q643.625 695.1281 643.90625 695.1906Q644.2031 695.2531 644.5 695.26874L644.5 696.05L638.84375 696.05L638.84375 695.26874Q639.1094 695.2531 639.3906 695.2375Q639.6875 695.20624 639.90625 695.1281Q640.2344 695.03436 640.3906 694.76874Q640.5469 694.5031 640.5469 694.08124L640.5469 686.9406Q640.5469 686.55 640.375 686.22186Q640.2031 685.8781 639.90625 685.65936Q639.6719 685.51874 639.3594 685.45624Q639.0625 685.39374 638.71875 685.3781L638.71875 684.6125L642.5625 684.34686L642.71875 684.51874L642.71875 686.14374L642.78125 686.14374Q643.0625 685.8625 643.4844 685.47186Q643.90625 685.08124 644.28125 684.83124Q644.71875 684.55 645.3125 684.3625Q645.90625 684.175 646.65625 684.175Q648.3281 684.175 649.125 685.22186Q649.9375 686.2531 649.9375 687.97186L649.9375 693.9875Q649.9375 694.39374 650.0781 694.64374Q650.21875 694.89374 650.5469 695.03436Q650.8281 695.15936 651.03125 695.20624Q651.25 695.2531 651.6094 695.26874L651.6094 696.05ZM662.75 694.84686Q663.21875 695.3 663.4844 695.8625Q663.75 696.425 663.75 697.2531Q663.75 698.09686 663.3906 698.8156Q663.03125 699.55 662.2969 700.09686Q661.5 700.64374 660.40625 700.9406Q659.3281 701.2531 657.71875 701.2531Q655.09375 701.2531 653.7969 700.4875Q652.5 699.72186 652.5 698.2375Q652.5 697.05 653.4375 696.34686Q654.375 695.65936 655.8281 695.59686L655.8281 695.4406Q655.46875 695.33124 655.09375 695.175Q654.71875 695.01874 654.4531 694.8Q654.1406 694.5656 653.9531 694.2375Q653.7656 693.89374 653.7656 693.39374Q653.7656 692.78436 654.2031 692.26874Q654.65625 691.7375 655.5469 691.3625L655.5469 691.1906Q654.4219 690.65936 653.7969 689.83124Q653.1719 689.0031 653.1719 687.90936Q653.1719 686.26874 654.3906 685.22186Q655.625 684.15936 657.53125 684.15936Q658.0625 684.15936 658.5781 684.26874Q659.1094 684.3781 659.6406 684.53436L663.6719 684.53436L663.6719 685.65936L660.9531 685.65936L660.9531 685.7375Q661.3906 686.2375 661.59375 686.84686Q661.8125 687.45624 661.8125 688.05Q661.8125 689.5656 660.5781 690.6281Q659.34375 691.675 657.7031 691.675L656.28125 691.675Q656.0156 691.76874 655.71875 692.01874Q655.4219 692.26874 655.4219 692.6906Q655.4219 693.1125 655.6719 693.34686Q655.9219 693.58124 656.2656 693.65936Q656.6094 693.7531 657.0625 693.78436Q657.5156 693.8 657.9844 693.8156Q658.5 693.8156 659.3906 693.8781Q660.2969 693.9406 660.6719 693.95624Q661.21875 693.97186 661.75 694.20624Q662.2969 694.4406 662.75 694.84686ZM659.5781 688.0031Q659.5781 686.6281 659.0156 685.8156Q658.46875 685.0031 657.46875 685.0031Q656.90625 685.0031 656.5156 685.2375Q656.125 685.45624 655.875 685.8781Q655.6406 686.26874 655.5469 686.8156Q655.4531 687.34686 655.4531 687.925Q655.4531 689.22186 656.0156 690.05Q656.5781 690.8625 657.4844 690.8625Q658.5 690.8625 659.03125 690.05Q659.5781 689.2375 659.5781 688.0031ZM661.8281 697.6906Q661.8281 697.03436 661.5156 696.6125Q661.21875 696.1906 660.6094 696.03436Q660.28125 695.9875 659.25 695.9406Q658.2344 695.8781 656.8906 695.8781Q655.625 696.1281 655.09375 696.70624Q654.5625 697.28436 654.5625 698.1906Q654.5625 698.6125 654.7344 698.9875Q654.90625 699.3625 655.34375 699.675Q655.75 699.97186 656.4375 700.15936Q657.1406 700.3625 658.125 700.3625Q659.8594 700.3625 660.84375 699.6906Q661.8281 699.03436 661.8281 697.6906ZM691.1719 696.05L683.8125 696.05L683.8125 695.22186Q684.21875 695.20624 684.84375 695.14374Q685.46875 695.0656 685.7031 694.9406Q686.0625 694.70624 686.2344 694.425Q686.40625 694.14374 686.40625 693.70624L686.40625 681.6125L686.2344 681.6125L680.5625 695.78436L679.96875 695.78436L674.5781 681.3156L674.4219 681.3156L674.4219 691.2375Q674.4219 692.6906 674.59375 693.4406Q674.78125 694.1906 675.15625 694.51874Q675.4219 694.7531 676.21875 694.9875Q677.03125 695.20624 677.28125 695.22186L677.28125 696.05L670.5625 696.05L670.5625 695.22186Q671.09375 695.175 671.6719 695.05Q672.25 694.90936 672.5625 694.65936Q672.9844 694.33124 673.125 693.65936Q673.28125 692.97186 673.28125 691.3781L673.28125 682.8625Q673.28125 682.1281 673.1094 681.65936Q672.9375 681.1906 672.6094 680.89374Q672.2344 680.58124 671.7031 680.425Q671.1875 680.26874 670.6719 680.2531L670.6719 679.425L676.34375 679.425L681.09375 691.89374L685.1719 681.45624Q685.3906 680.8781 685.5469 680.2531Q685.7031 679.6281 685.71875 679.425L691.1406 679.425L691.1406 680.2531Q690.8125 680.26874 690.2969 680.3625Q689.7969 680.45624 689.5625 680.53436Q689.15625 680.675 689.0156 681.0031Q688.875 681.33124 688.875 681.72186L688.875 693.70624Q688.875 694.1125 689.0156 694.39374Q689.15625 694.675 689.5625 694.89374Q689.7656 695.0031 690.2969 695.1125Q690.84375 695.20624 691.1719 695.22186L691.1719 696.05ZM703.1094 693.33124Q702.3906 694.70624 701.1719 695.53436Q699.9531 696.3625 698.3594 696.3625Q696.96875 696.3625 695.9219 695.8625Q694.875 695.3625 694.1875 694.51874Q693.5156 693.675 693.1719 692.55Q692.84375 691.425 692.84375 690.175Q692.84375 689.05 693.2031 687.97186Q693.5625 686.8781 694.25 686.01874Q694.9219 685.1906 695.90625 684.675Q696.90625 684.15936 698.125 684.15936Q699.3906 684.15936 700.2969 684.5656Q701.2031 684.95624 701.7656 685.65936Q702.2969 686.3156 702.5625 687.20624Q702.8281 688.09686 702.8281 689.1281L702.8281 689.90936L695.1719 689.90936Q695.1719 691.05 695.3906 691.97186Q695.6094 692.89374 696.0781 693.59686Q696.53125 694.28436 697.2656 694.675Q698.0156 695.0656 699.03125 695.0656Q700.0781 695.0656 700.8281 694.58124Q701.59375 694.09686 702.2969 692.83124L703.1094 693.33124ZM700.5156 688.925Q700.5156 688.26874 700.40625 687.51874Q700.2969 686.76874 700.0469 686.26874Q699.78125 685.72186 699.3125 685.39374Q698.84375 685.05 698.1094 685.05Q696.875 685.05 696.0625 686.08124Q695.25 687.09686 695.1719 688.925L700.5156 688.925ZM711.9844 695.55Q711.21875 695.8625 710.53125 696.08124Q709.8594 696.3 708.875 696.3Q707.4219 696.3 706.8281 695.5656Q706.2344 694.83124 706.2344 693.4875L706.2344 685.65936L704.15625 685.65936L704.15625 684.53436L706.28125 684.53436L706.28125 680.9406L708.4219 680.9406L708.4219 684.53436L711.7344 684.53436L711.7344 685.65936L708.4375 685.65936L708.4375 692.1281Q708.4375 692.84686 708.4844 693.33124Q708.5469 693.8156 708.75 694.1906Q708.9375 694.51874 709.3125 694.70624Q709.6875 694.8781 710.3125 694.8781Q710.6094 694.8781 711.1719 694.83124Q711.75 694.76874 711.9844 694.6906L711.9844 695.55ZM725.3906 696.05L719.71875 696.05L719.71875 695.26874Q720.0 695.2531 720.3281 695.2375Q720.65625 695.20624 720.8594 695.1281Q721.1875 695.03436 721.34375 694.76874Q721.5 694.5031 721.5 694.08124L721.5 688.14374Q721.5 686.90936 720.9219 686.2375Q720.34375 685.5656 719.5156 685.5656Q718.90625 685.5656 718.375 685.76874Q717.8594 685.95624 717.4531 686.2375Q717.0469 686.53436 716.8281 686.83124Q716.625 687.1125 716.5156 687.3156L716.5156 693.95624Q716.5156 694.3625 716.6719 694.6281Q716.8281 694.8781 717.15625 695.01874Q717.4219 695.1281 717.6875 695.1906Q717.96875 695.2531 718.2969 695.26874L718.2969 696.05L712.625 696.05L712.625 695.26874Q712.8906 695.2531 713.1875 695.22186Q713.4844 695.1906 713.6719 695.1281Q714.0 695.03436 714.15625 694.76874Q714.3281 694.5031 714.3281 694.08124L714.3281 680.6281Q714.3281 680.22186 714.1406 679.83124Q713.96875 679.425 713.6719 679.2375Q713.46875 679.08124 712.9375 679.01874Q712.40625 678.95624 712.0781 678.925L712.0781 678.175L716.34375 677.90936L716.5156 678.08124L716.5156 686.14374L716.5625 686.14374Q716.9531 685.7531 717.2656 685.45624Q717.5781 685.15936 718.09375 684.83124Q718.5469 684.55 719.1406 684.3625Q719.75 684.175 720.5 684.175Q722.0469 684.175 722.875 685.15936Q723.7031 686.1281 723.7031 687.97186L723.7031 693.9875Q723.7031 694.39374 723.84375 694.64374Q724.0 694.89374 724.34375 695.03436Q724.6094 695.14374 724.8281 695.20624Q725.0469 695.2531 725.3906 695.26874L725.3906 696.05ZM738.1094 690.15936Q738.1094 691.3781 737.71875 692.55Q737.3281 693.72186 736.625 694.55Q735.8125 695.4875 734.7344 695.95624Q733.6719 696.40936 732.3594 696.40936Q731.25 696.40936 730.25 695.9875Q729.2656 695.5656 728.4844 694.76874Q727.71875 693.9875 727.2656 692.8625Q726.8281 691.72186 726.8281 690.3156Q726.8281 687.6125 728.3906 685.89374Q729.96875 684.15936 732.53125 684.15936Q734.9531 684.15936 736.53125 685.8Q738.1094 687.4406 738.1094 690.15936ZM735.6875 690.175Q735.6875 689.3 735.5 688.33124Q735.3281 687.34686 734.9844 686.65936Q734.6094 685.9406 734.0 685.5031Q733.3906 685.05 732.5 685.05Q731.6094 685.05 730.96875 685.5031Q730.3281 685.9406 729.9219 686.72186Q729.5469 687.4406 729.3906 688.3625Q729.25 689.26874 729.25 690.1125Q729.25 691.2375 729.4219 692.20624Q729.6094 693.15936 730.0156 693.90936Q730.40625 694.65936 731.0 695.08124Q731.6094 695.5031 732.5 695.5031Q733.96875 695.5031 734.8281 694.09686Q735.6875 692.675 735.6875 690.175ZM752.5 695.83124L748.46875 696.09686L748.2969 695.925L748.2969 694.84686L748.2031 694.83124Q747.59375 695.5031 746.6875 695.9406Q745.7969 696.3781 744.84375 696.3781Q743.8594 696.3781 742.9375 695.9406Q742.03125 695.5031 741.34375 694.70624Q740.65625 693.89374 740.25 692.7531Q739.84375 691.6125 739.84375 690.2531Q739.84375 688.9875 740.28125 687.8625Q740.71875 686.7375 741.46875 685.89374Q742.1875 685.1125 743.21875 684.64374Q744.2656 684.175 745.34375 684.175Q746.15625 684.175 746.9219 684.3781Q747.7031 684.58124 748.2656 684.90936L748.2656 680.8781Q748.2656 680.39374 748.09375 679.9875Q747.9375 679.58124 747.65625 679.3781Q747.3281 679.14374 746.7656 679.05Q746.2031 678.95624 745.5625 678.90936L745.5625 678.175L750.28125 677.90936L750.46875 678.08124L750.46875 693.675Q750.46875 694.08124 750.625 694.3781Q750.78125 694.65936 751.0781 694.84686Q751.3125 694.9875 751.7344 695.03436Q752.15625 695.0656 752.5 695.08124L752.5 695.83124ZM748.2656 693.8156L748.2656 687.05Q748.1719 686.7375 747.9531 686.39374Q747.75 686.03436 747.4375 685.7531Q747.09375 685.45624 746.6406 685.26874Q746.1875 685.0656 745.5781 685.0656Q744.875 685.0656 744.28125 685.4406Q743.6875 685.8 743.2344 686.47186Q742.7969 687.1281 742.5469 688.14374Q742.2969 689.15936 742.2969 690.39374Q742.2969 691.3781 742.4844 692.175Q742.6719 692.97186 743.1094 693.675Q743.53125 694.33124 744.15625 694.7375Q744.7969 695.1281 745.6875 695.1281Q746.625 695.1281 747.2344 694.72186Q747.84375 694.3 748.2656 693.8156Z" fill-rule="nonzero"/><path fill="#000000" d="M58.94999 399.32812L58.94999 406.6875L58.121864 406.6875Q58.10624 406.28125 58.04374 405.65625Q57.965614 405.03125 57.840614 404.79688Q57.60624 404.4375 57.32499 404.26562Q57.04374 404.09375 56.60624 404.09375L44.51249 404.09375L44.51249 404.26562L58.684364 409.9375L58.684364 410.53125L44.215614 415.92188L44.215614 416.07812L54.13749 416.07812Q55.590614 416.07812 56.340614 415.90625Q57.090614 415.71875 57.41874 415.34375Q57.653114 415.07812 57.88749 414.28125Q58.10624 413.46875 58.121864 413.21875L58.94999 413.21875L58.94999 419.9375L58.121864 419.9375Q58.07499 419.40625 57.94999 418.82812Q57.809364 418.25 57.559364 417.9375Q57.23124 417.51562 56.559364 417.375Q55.871864 417.21875 54.278114 417.21875L45.76249 417.21875Q45.028114 417.21875 44.559364 417.39062Q44.090614 417.5625 43.79374 417.89062Q43.48124 418.26562 43.32499 418.79688Q43.16874 419.3125 43.153114 419.82812L42.32499 419.82812L42.32499 414.15625L54.79374 409.40625L44.35624 405.32812Q43.778114 405.10938 43.153114 404.95312Q42.528114 404.79688 42.32499 404.78125L42.32499 399.35938L43.153114 399.35938Q43.16874 399.6875 43.26249 400.20312Q43.35624 400.70312 43.434364 400.9375Q43.57499 401.34375 43.903114 401.48438Q44.23124 401.625 44.621864 401.625L56.60624 401.625Q57.01249 401.625 57.29374 401.48438Q57.57499 401.34375 57.79374 400.9375Q57.903114 400.73438 58.01249 400.20312Q58.10624 399.65625 58.121864 399.32812L58.94999 399.32812ZM58.94999 392.04688L58.94999 397.625L58.16874 397.625Q58.153114 397.35938 58.13749 397.07812Q58.10624 396.78125 58.028114 396.57812Q57.934364 396.25 57.66874 396.09375Q57.403114 395.9375 56.98124 395.9375L49.840614 395.9375Q49.465614 395.9375 49.153114 396.10938Q48.840614 396.26562 48.63749 396.57812Q48.496864 396.79688 48.403114 397.21875Q48.29374 397.64062 48.278114 398.0L47.51249 398.0L47.246864 393.92188L47.41874 393.75L56.840614 393.75Q57.246864 393.75 57.528114 393.59375Q57.79374 393.4375 57.91874 393.09375Q58.028114 392.84375 58.090614 392.59375Q58.153114 392.34375 58.16874 392.04688L58.94999 392.04688ZM42.69999 393.51562Q43.35624 393.51562 43.85624 393.95312Q44.35624 394.39062 44.35624 395.04688Q44.35624 395.64062 43.88749 396.07812Q43.403114 396.51562 42.79374 396.51562Q42.153114 396.51562 41.684364 396.07812Q41.19999 395.64062 41.19999 395.04688Q41.19999 394.375 41.653114 393.95312Q42.090614 393.51562 42.69999 393.51562ZM59.26249 385.3125Q59.26249 387.8125 57.590614 389.23438Q55.91874 390.65625 53.121864 390.65625Q51.903114 390.65625 50.840614 390.28125Q49.778114 389.89062 48.91874 389.17188Q48.090614 388.46875 47.57499 387.4375Q47.059364 386.39062 47.059364 385.15625Q47.059364 383.45312 47.88749 382.39062Q48.69999 381.32812 50.10624 381.32812Q50.684364 381.32812 51.13749 381.60938Q51.590614 381.89062 51.590614 382.53125Q51.590614 383.21875 51.246864 383.60938Q50.88749 383.98438 50.44999 383.98438Q49.91874 383.98438 49.371864 383.84375Q48.809364 383.70312 48.559364 383.6875Q48.184364 383.89062 48.07499 384.3125Q47.94999 384.71875 47.94999 385.20312Q47.94999 385.76562 48.184364 386.28125Q48.41874 386.78125 49.07499 387.26562Q49.653114 387.70312 50.653114 387.96875Q51.653114 388.23438 53.028114 388.23438Q55.215614 388.23438 56.590614 387.28125Q57.965614 386.3125 57.965614 384.73438Q57.965614 383.59375 57.41874 382.82812Q56.85624 382.0625 55.76249 381.40625L56.246864 380.65625Q57.63749 381.4375 58.44999 382.70312Q59.26249 383.96875 59.26249 385.3125ZM48.88749 370.8125Q49.48124 370.8125 49.94999 371.10938Q50.403114 371.39062 50.403114 372.0Q50.403114 372.65625 50.07499 373.0Q49.73124 373.34375 49.309364 373.34375Q49.059364 373.34375 48.85624 373.3125Q48.63749 373.26562 48.41874 373.23438Q48.41874 373.78125 48.871864 374.53125Q49.309364 375.26562 50.13749 375.78125L56.85624 375.78125Q57.278114 375.78125 57.54374 375.625Q57.79374 375.45312 57.91874 375.125Q58.028114 374.82812 58.090614 374.375Q58.153114 373.90625 58.16874 373.5625L58.94999 373.5625L58.94999 379.65625L58.16874 379.65625Q58.153114 379.39062 58.13749 379.10938Q58.10624 378.8125 58.028114 378.59375Q57.934364 378.26562 57.66874 378.10938Q57.403114 377.95312 56.98124 377.95312L49.840614 377.95312Q49.48124 377.95312 49.13749 378.125Q48.778114 378.29688 48.559364 378.59375Q48.41874 378.82812 48.35624 379.14062Q48.29374 379.4375 48.278114 379.78125L47.51249 379.78125L47.246864 375.9375L47.41874 375.78125L49.04374 375.78125L49.04374 375.71875Q48.090614 374.98438 47.60624 374.09375Q47.10624 373.20312 47.10624 372.46875Q47.10624 371.73438 47.590614 371.28125Q48.07499 370.8125 48.88749 370.8125ZM53.059364 358.39062Q54.278114 358.39062 55.44999 358.78125Q56.621864 359.17188 57.44999 359.875Q58.38749 360.6875 58.85624 361.76562Q59.309364 362.82812 59.309364 364.14062Q59.309364 365.25 58.88749 366.25Q58.465614 367.23438 57.66874 368.01562Q56.88749 368.78125 55.76249 369.23438Q54.621864 369.67188 53.215614 369.67188Q50.51249 369.67188 48.79374 368.10938Q47.059364 366.53125 47.059364 363.96875Q47.059364 361.54688 48.69999 359.96875Q50.340614 358.39062 53.059364 358.39062ZM53.07499 360.8125Q52.19999 360.8125 51.23124 361.0Q50.246864 361.17188 49.559364 361.51562Q48.840614 361.89062 48.403114 362.5Q47.94999 363.10938 47.94999 364.0Q47.94999 364.89062 48.403114 365.53125Q48.840614 366.17188 49.621864 366.57812Q50.340614 366.95312 51.26249 367.10938Q52.16874 367.25 53.01249 367.25Q54.13749 367.25 55.10624 367.07812Q56.059364 366.89062 56.809364 366.48438Q57.559364 366.09375 57.98124 365.5Q58.403114 364.89062 58.403114 364.0Q58.403114 362.53125 56.996864 361.67188Q55.57499 360.8125 53.07499 360.8125ZM58.94999 334.84375L58.94999 341.76562L58.121864 341.76562Q58.059364 340.85938 57.88749 340.26562Q57.69999 339.65625 57.44999 339.65625Q57.340614 339.65625 57.19999 339.6875Q57.04374 339.70312 56.91874 339.75L53.19999 341.125L53.19999 346.95312Q54.01249 347.28125 54.621864 347.48438Q55.23124 347.6875 55.746864 347.85938Q56.246864 348.0 56.57499 348.0625Q56.88749 348.125 57.090614 348.125Q57.559364 348.125 57.82499 347.39062Q58.07499 346.64062 58.121864 345.71875L58.94999 345.71875L58.94999 351.98438L58.121864 351.98438Q58.090614 351.67188 57.98124 351.21875Q57.871864 350.76562 57.684364 350.46875Q57.371864 350.0 57.028114 349.75Q56.66874 349.48438 56.059364 349.23438Q52.934364 347.98438 49.04374 346.46875Q45.13749 344.95312 42.090614 343.78125L42.090614 342.84375L56.434364 337.29688Q56.88749 337.125 57.16874 336.90625Q57.44999 336.67188 57.715614 336.28125Q57.88749 336.0 57.996864 335.57812Q58.10624 335.14062 58.121864 334.84375L58.94999 334.84375ZM52.153114 341.54688L45.69999 344.0625L52.153114 346.54688L52.153114 341.54688ZM59.26249 329.3125Q59.26249 331.8125 57.590614 333.23438Q55.91874 334.65625 53.121864 334.65625Q51.903114 334.65625 50.840614 334.28125Q49.778114 333.89062 48.91874 333.17188Q48.090614 332.46875 47.57499 331.4375Q47.059364 330.39062 47.059364 329.15625Q47.059364 327.45312 47.88749 326.39062Q48.69999 325.32812 50.10624 325.32812Q50.684364 325.32812 51.13749 325.60938Q51.590614 325.89062 51.590614 326.53125Q51.590614 327.21875 51.246864 327.60938Q50.88749 327.98438 50.44999 327.98438Q49.91874 327.98438 49.371864 327.84375Q48.809364 327.70312 48.559364 327.6875Q48.184364 327.89062 48.07499 328.3125Q47.94999 328.71875 47.94999 329.20312Q47.94999 329.76562 48.184364 330.28125Q48.41874 330.78125 49.07499 331.26562Q49.653114 331.70312 50.653114 331.96875Q51.653114 332.23438 53.028114 332.23438Q55.215614 332.23438 56.590614 331.28125Q57.965614 330.3125 57.965614 328.73438Q57.965614 327.59375 57.41874 326.82812Q56.85624 326.0625 55.76249 325.40625L56.246864 324.65625Q57.63749 325.4375 58.44999 326.70312Q59.26249 327.96875 59.26249 329.3125ZM59.26249 318.3125Q59.26249 320.8125 57.590614 322.23438Q55.91874 323.65625 53.121864 323.65625Q51.903114 323.65625 50.840614 323.28125Q49.778114 322.89062 48.91874 322.17188Q48.090614 321.46875 47.57499 320.4375Q47.059364 319.39062 47.059364 318.15625Q47.059364 316.45312 47.88749 315.39062Q48.69999 314.32812 50.10624 314.32812Q50.684364 314.32812 51.13749 314.60938Q51.590614 314.89062 51.590614 315.53125Q51.590614 316.21875 51.246864 316.60938Q50.88749 316.98438 50.44999 316.98438Q49.91874 316.98438 49.371864 316.84375Q48.809364 316.70312 48.559364 316.6875Q48.184364 316.89062 48.07499 317.3125Q47.94999 317.71875 47.94999 318.20312Q47.94999 318.76562 48.184364 319.28125Q48.41874 319.78125 49.07499 320.26562Q49.653114 320.70312 50.653114 320.96875Q51.653114 321.23438 53.028114 321.23438Q55.215614 321.23438 56.590614 320.28125Q57.965614 319.3125 57.965614 317.73438Q57.965614 316.59375 57.41874 315.82812Q56.85624 315.0625 55.76249 314.40625L56.246864 313.65625Q57.63749 314.4375 58.44999 315.70312Q59.26249 316.96875 59.26249 318.3125ZM58.73124 300.26562L58.996864 304.03125L58.82499 304.20312L57.371864 304.20312L57.371864 304.28125Q57.653114 304.5625 57.996864 304.92188Q58.32499 305.26562 58.590614 305.71875Q58.91874 306.25 59.07499 306.75Q59.246864 307.23438 59.246864 308.125Q59.246864 309.67188 58.246864 310.46875Q57.23124 311.26562 55.32499 311.26562L49.79374 311.26562Q49.371864 311.26562 49.090614 311.4375Q48.79374 311.59375 48.590614 311.89062Q48.44999 312.10938 48.38749 312.42188Q48.32499 312.73438 48.29374 313.09375L47.528114 313.09375L47.246864 309.23438L47.41874 309.0625L55.44999 309.0625Q56.69999 309.0625 57.340614 308.5Q57.965614 307.9375 57.965614 307.14062Q57.965614 306.5 57.76249 306.0Q57.559364 305.5 57.29374 305.15625Q57.04374 304.84375 56.778114 304.60938Q56.496864 304.35938 56.26249 304.23438L49.715614 304.23438Q49.32499 304.23438 49.028114 304.40625Q48.73124 304.5625 48.51249 304.84375Q48.371864 305.0625 48.35624 305.48438Q48.32499 305.89062 48.29374 306.40625L47.528114 306.40625L47.246864 302.21875L47.41874 302.03125L56.590614 302.03125Q56.996864 302.03125 57.278114 301.875Q57.559364 301.70312 57.746864 301.42188Q57.88749 301.20312 57.934364 300.92188Q57.965614 300.625 57.98124 300.26562L58.73124 300.26562ZM48.88749 289.8125Q49.48124 289.8125 49.94999 290.10938Q50.403114 290.39062 50.403114 291.0Q50.403114 291.65625 50.07499 292.0Q49.73124 292.34375 49.309364 292.34375Q49.059364 292.34375 48.85624 292.3125Q48.63749 292.26562 48.41874 292.23438Q48.41874 292.78125 48.871864 293.53125Q49.309364 294.26562 50.13749 294.78125L56.85624 294.78125Q57.278114 294.78125 57.54374 294.625Q57.79374 294.45312 57.91874 294.125Q58.028114 293.82812 58.090614 293.375Q58.153114 292.90625 58.16874 292.5625L58.94999 292.5625L58.94999 298.65625L58.16874 298.65625Q58.153114 298.39062 58.13749 298.10938Q58.10624 297.8125 58.028114 297.59375Q57.934364 297.26562 57.66874 297.10938Q57.403114 296.95312 56.98124 296.95312L49.840614 296.95312Q49.48124 296.95312 49.13749 297.125Q48.778114 297.29688 48.559364 297.59375Q48.41874 297.82812 48.35624 298.14062Q48.29374 298.4375 48.278114 298.78125L47.51249 298.78125L47.246864 294.9375L47.41874 294.78125L49.04374 294.78125L49.04374 294.71875Q48.090614 293.98438 47.60624 293.09375Q47.10624 292.20312 47.10624 291.46875Q47.10624 290.73438 47.590614 290.28125Q48.07499 289.8125 48.88749 289.8125ZM58.73124 277.70312Q58.934364 278.26562 59.059364 278.6875Q59.184364 279.09375 59.184364 279.625Q59.184364 280.53125 58.76249 281.07812Q58.32499 281.625 57.51249 281.78125L57.51249 281.84375Q58.35624 282.60938 58.809364 283.48438Q59.246864 284.35938 59.246864 285.57812Q59.246864 286.89062 58.44999 287.73438Q57.653114 288.5625 56.35624 288.5625Q55.684364 288.5625 55.16874 288.375Q54.63749 288.1875 54.215614 287.8125Q53.85624 287.51562 53.590614 287.04688Q53.309364 286.5625 53.153114 286.14062Q52.94999 285.60938 52.41874 284.0Q51.871864 282.39062 51.559364 281.82812L50.403114 281.82812Q50.246864 281.82812 49.82499 281.89062Q49.38749 281.95312 48.996864 282.15625Q48.559364 282.39062 48.246864 282.82812Q47.91874 283.25 47.91874 284.03125Q47.91874 284.57812 48.10624 285.04688Q48.278114 285.5 48.48124 285.6875Q48.715614 285.6875 49.184364 285.57812Q49.63749 285.46875 50.01249 285.46875Q50.434364 285.46875 50.778114 285.84375Q51.10624 286.20312 51.10624 286.85938Q51.10624 287.45312 50.69999 287.73438Q50.278114 288.0 49.76249 288.0Q49.215614 288.0 48.73124 287.625Q48.23124 287.23438 47.85624 286.625Q47.528114 286.09375 47.29374 285.34375Q47.059364 284.59375 47.059364 283.89062Q47.059364 282.90625 47.19999 282.17188Q47.340614 281.4375 47.778114 280.84375Q48.215614 280.23438 48.965614 279.9375Q49.69999 279.625 50.871864 279.625Q52.54374 279.625 53.840614 279.65625Q55.13749 279.6875 56.66874 279.6875Q57.13749 279.6875 57.403114 279.53125Q57.66874 279.375 57.85624 279.04688Q57.965614 278.875 57.98124 278.5Q57.98124 278.10938 57.98124 277.70312L58.73124 277.70312ZM52.54374 281.79688Q52.840614 282.79688 53.121864 283.54688Q53.403114 284.29688 53.82499 284.9375Q54.23124 285.53125 54.778114 285.875Q55.309364 286.20312 56.059364 286.20312Q57.04374 286.20312 57.496864 285.70312Q57.94999 285.1875 57.94999 284.40625Q57.94999 283.5625 57.54374 282.9375Q57.13749 282.29688 56.590614 281.875L52.54374 281.79688ZM59.26249 271.3125Q59.26249 273.8125 57.590614 275.23438Q55.91874 276.65625 53.121864 276.65625Q51.903114 276.65625 50.840614 276.28125Q49.778114 275.89062 48.91874 275.17188Q48.090614 274.46875 47.57499 273.4375Q47.059364 272.39062 47.059364 271.15625Q47.059364 269.45312 47.88749 268.39062Q48.69999 267.32812 50.10624 267.32812Q50.684364 267.32812 51.13749 267.60938Q51.590614 267.89062 51.590614 268.53125Q51.590614 269.21875 51.246864 269.60938Q50.88749 269.98438 50.44999 269.98438Q49.91874 269.98438 49.371864 269.84375Q48.809364 269.70312 48.559364 269.6875Q48.184364 269.89062 48.07499 270.3125Q47.94999 270.71875 47.94999 271.20312Q47.94999 271.76562 48.184364 272.28125Q48.41874 272.78125 49.07499 273.26562Q49.653114 273.70312 50.653114 273.96875Q51.653114 274.23438 53.028114 274.23438Q55.215614 274.23438 56.590614 273.28125Q57.965614 272.3125 57.965614 270.73438Q57.965614 269.59375 57.41874 268.82812Q56.85624 268.0625 55.76249 267.40625L56.246864 266.65625Q57.63749 267.4375 58.44999 268.70312Q59.26249 269.96875 59.26249 271.3125ZM62.73124 266.53125Q62.13749 266.53125 61.76249 266.21875Q61.403114 265.89062 61.403114 265.40625Q61.403114 265.03125 61.54374 264.76562Q61.684364 264.5 61.903114 264.28125Q62.07499 264.10938 62.371864 263.90625Q62.684364 263.70312 62.88749 263.59375Q62.57499 263.0 61.23124 262.1875Q59.903114 261.375 58.88749 261.01562Q56.10624 262.125 53.91874 263.03125Q51.73124 263.9375 49.38749 264.92188Q48.840614 265.14062 48.54374 265.67188Q48.246864 266.1875 48.16874 266.71875L47.38749 266.71875L47.38749 261.45312L48.215614 261.45312Q48.23124 261.79688 48.371864 262.29688Q48.496864 262.78125 48.66874 262.78125Q48.746864 262.78125 48.91874 262.73438Q49.07499 262.67188 49.246864 262.60938Q50.403114 262.15625 52.590614 261.25Q54.778114 260.32812 56.090614 259.82812Q54.840614 259.29688 53.496864 258.73438Q52.153114 258.17188 50.32499 257.46875Q50.10624 257.375 49.715614 257.23438Q49.309364 257.07812 49.028114 257.07812Q48.73124 257.07812 48.465614 257.60938Q48.19999 258.14062 48.13749 258.625L47.38749 258.625L47.38749 254.32812L48.121864 254.32812Q48.184364 254.6875 48.528114 255.26562Q48.871864 255.82812 49.496864 256.10938Q52.73124 257.51562 55.403114 258.59375Q58.059364 259.67188 59.309364 260.23438Q60.94999 260.98438 61.871864 261.5625Q62.79374 262.14062 63.32499 262.6875Q63.809364 263.23438 63.98124 263.67188Q64.153114 264.10938 64.153114 264.57812Q64.153114 265.48438 63.715614 266.01562Q63.29374 266.53125 62.73124 266.53125Z" fill-rule="nonzero"/><path fill="#000000" d="M134.98125 585.925Q135.60625 586.675 135.90312 587.6906Q136.21562 588.70624 136.21562 589.8Q136.21562 591.1281 135.84062 592.1906Q135.46562 593.2375 134.79375 593.925Q134.10625 594.64374 133.16875 595.0031Q132.23125 595.3625 131.09062 595.3625Q129.825 595.3625 128.84062 594.9406Q127.85625 594.51874 127.23125 593.78436Q126.59062 593.03436 126.2625 592.01874Q125.95 590.9875 125.95 589.8Q125.95 588.64374 126.2625 587.675Q126.575 586.6906 127.23125 585.89374Q127.85625 585.14374 128.84062 584.70624Q129.825 584.2531 131.09062 584.2531Q132.43437 584.2531 133.3875 584.70624Q134.34062 585.15936 134.98125 585.925ZM134.05937 589.8Q134.05937 587.4875 133.2625 586.20624Q132.46562 584.925 131.10625 584.925Q129.71562 584.925 128.91875 586.20624Q128.12187 587.4875 128.12187 589.8Q128.12187 592.01874 128.8875 593.3625Q129.65312 594.6906 131.09062 594.6906Q132.5125 594.6906 133.27812 593.3625Q134.05937 592.01874 134.05937 589.8Z" fill-rule="nonzero"/><path fill="#000000" d="M124.16875 460.275L115.02812 460.275L115.02812 458.94687Q115.29375 458.65 115.7625 458.275Q116.23125 457.88437 116.87187 457.44687Q117.2625 457.18124 117.80937 456.86874Q118.35625 456.55624 119.04375 456.19687Q119.825 455.775 120.23125 455.4625Q120.65312 455.15 120.99687 454.69687Q121.21562 454.4 121.35625 453.94687Q121.49687 453.49374 121.49687 452.65Q121.49687 451.43124 120.84062 450.86874Q120.18437 450.29062 119.15312 450.29062Q118.52812 450.29062 117.95 450.54062Q117.3875 450.775 117.10625 451.22812Q117.16875 451.54062 117.2625 451.97812Q117.37187 452.4 117.37187 452.80624Q117.37187 453.18124 117.05937 453.4625Q116.7625 453.74374 116.15312 453.74374Q115.66875 453.74374 115.40312 453.41562Q115.1375 453.07187 115.1375 452.50937Q115.1375 451.97812 115.43437 451.44687Q115.73125 450.91562 116.27812 450.4625Q116.80937 450.025 117.59062 449.75937Q118.3875 449.47812 119.30937 449.47812Q121.30937 449.47812 122.48125 450.38437Q123.66875 451.275 123.66875 452.75937Q123.66875 453.47812 123.45 454.07187Q123.24687 454.65 122.77812 455.10312Q122.2625 455.60312 121.55937 455.9625Q120.87187 456.30624 119.45 456.94687Q118.60625 457.32187 117.87187 457.74374Q117.1375 458.15 116.66875 458.54062L124.16875 458.54062L124.16875 460.275ZM134.98125 451.15Q135.60625 451.9 135.90312 452.91562Q136.21562 453.93124 136.21562 455.025Q136.21562 456.35312 135.84062 457.41562Q135.46562 458.4625 134.79375 459.15Q134.10625 459.86874 133.16875 460.22812Q132.23125 460.5875 131.09062 460.5875Q129.825 460.5875 128.84062 460.16562Q127.85625 459.74374 127.23125 459.00937Q126.59062 458.25937 126.2625 457.24374Q125.95 456.2125 125.95 455.025Q125.95 453.86874 126.2625 452.9Q126.575 451.91562 127.23125 451.11874Q127.85625 450.36874 128.84062 449.93124Q129.825 449.47812 131.09062 449.47812Q132.43437 449.47812 133.3875 449.93124Q134.34062 450.38437 134.98125 451.15ZM134.05937 455.025Q134.05937 452.7125 133.2625 451.43124Q132.46562 450.15 131.10625 450.15Q129.71562 450.15 128.91875 451.43124Q128.12187 452.7125 128.12187 455.025Q128.12187 457.24374 128.8875 458.5875Q129.65312 459.91562 131.09062 459.91562Q132.5125 459.91562 133.27812 458.5875Q134.05937 457.24374 134.05937 455.025Z" fill-rule="nonzero"/><path fill="#000000" d="M124.54375 324.625L122.55937 324.625L122.55937 329.0625L120.68437 329.0625L120.68437 324.625L114.43437 324.625L114.43437 323.10938L121.27812 314.76562L122.55937 314.76562L122.55937 323.34375L124.54375 323.34375L124.54375 324.625ZM120.68437 323.34375L120.68437 316.9375L115.40312 323.34375L120.68437 323.34375ZM134.98125 316.375Q135.60625 317.125 135.90312 318.14062Q136.21562 319.15625 136.21562 320.25Q136.21562 321.57812 135.84062 322.64062Q135.46562 323.6875 134.79375 324.375Q134.10625 325.09375 133.16875 325.45312Q132.23125 325.8125 131.09062 325.8125Q129.825 325.8125 128.84062 325.39062Q127.85625 324.96875 127.23125 324.23438Q126.59062 323.48438 126.2625 322.46875Q125.95 321.4375 125.95 320.25Q125.95 319.09375 126.2625 318.125Q126.575 317.14062 127.23125 316.34375Q127.85625 315.59375 128.84062 315.15625Q129.825 314.70312 131.09062 314.70312Q132.43437 314.70312 133.3875 315.15625Q134.34062 315.60938 134.98125 316.375ZM134.05937 320.25Q134.05937 317.9375 133.2625 316.65625Q132.46562 315.375 131.10625 315.375Q129.71562 315.375 128.91875 316.65625Q128.12187 317.9375 128.12187 320.25Q128.12187 322.46875 128.8875 323.8125Q129.65312 325.14062 131.09062 325.14062Q132.5125 325.14062 133.27812 323.8125Q134.05937 322.46875 134.05937 320.25Z" fill-rule="nonzero"/><path fill="#000000" d="M124.45 186.225Q124.45 187.24063 124.075 188.13126Q123.71562 189.02188 123.10625 189.64688Q122.3875 190.35 121.5125 190.69376Q120.65312 191.0375 119.71562 191.0375Q118.6375 191.0375 117.7625 190.64688Q116.8875 190.24063 116.2625 189.50626Q115.6375 188.75626 115.29375 187.69376Q114.95 186.61563 114.95 185.27188Q114.95 181.7875 117.02812 179.39688Q119.10625 177.00626 122.59062 176.52188L122.7625 177.39688L121.8875 177.55313Q119.77812 178.24063 118.60625 179.69376Q117.45 181.13126 117.12187 183.19376Q117.95 182.45938 118.7625 182.1625Q119.59062 181.85 120.49687 181.85Q122.1375 181.85 123.29375 183.1Q124.45 184.35 124.45 186.225ZM122.325 186.49063Q122.325 184.89688 121.59062 183.94376Q120.87187 182.99063 119.65312 182.99063Q118.91875 182.99063 118.29375 183.27188Q117.66875 183.5375 117.075 184.17813Q117.05937 184.30313 117.04375 184.725Q117.02812 185.14688 117.02812 185.39688Q117.02812 187.67813 117.77812 188.975Q118.52812 190.27188 119.74687 190.27188Q120.90312 190.27188 121.60625 189.25626Q122.325 188.24063 122.325 186.49063ZM134.98125 181.6Q135.60625 182.35 135.90312 183.36563Q136.21562 184.38126 136.21562 185.475Q136.21562 186.80313 135.84062 187.86563Q135.46562 188.9125 134.79375 189.6Q134.10625 190.31876 133.16875 190.67813Q132.23125 191.0375 131.09062 191.0375Q129.825 191.0375 128.84062 190.61563Q127.85625 190.19376 127.23125 189.45938Q126.59062 188.70938 126.2625 187.69376Q125.95 186.6625 125.95 185.475Q125.95 184.31876 126.2625 183.35Q126.575 182.36563 127.23125 181.56876Q127.85625 180.81876 128.84062 180.38126Q129.825 179.92813 131.09062 179.92813Q132.43437 179.92813 133.3875 180.38126Q134.34062 180.83438 134.98125 181.6ZM134.05937 185.475Q134.05937 183.1625 133.2625 181.88126Q132.46562 180.6 131.10625 180.6Q129.71562 180.6 128.91875 181.88126Q128.12187 183.1625 128.12187 185.475Q128.12187 187.69376 128.8875 189.0375Q129.65312 190.36563 131.09062 190.36563Q132.5125 190.36563 133.27812 189.0375Q134.05937 187.69376 134.05937 185.475Z" fill-rule="nonzero"/><path fill="#000000" d="M123.85625 52.278126Q123.85625 53.91875 122.43437 55.10625Q121.02812 56.278126 118.71562 56.278126Q116.55937 56.278126 115.2625 55.2Q113.96562 54.10625 113.96562 52.403126Q113.96562 51.1375 114.73125 50.29375Q115.49687 49.45 116.99687 48.871876Q115.7625 48.16875 115.1375 47.340626Q114.52812 46.5125 114.52812 45.465626Q114.52812 43.871876 115.87187 42.809376Q117.23125 41.73125 119.12187 41.73125Q121.0125 41.73125 122.16875 42.746876Q123.34062 43.7625 123.34062 45.29375Q123.34062 46.278126 122.7 47.16875Q122.05937 48.04375 120.80937 48.621876Q122.41875 49.309376 123.1375 50.153126Q123.85625 50.98125 123.85625 52.278126ZM121.49687 45.184376Q121.49687 43.996876 120.77812 43.246876Q120.075 42.496876 118.98125 42.496876Q117.87187 42.496876 117.16875 43.215626Q116.46562 43.934376 116.46562 44.996876Q116.46562 46.028126 117.2625 46.746876Q118.075 47.45 120.12187 48.2625Q120.85625 47.79375 121.16875 47.028126Q121.49687 46.246876 121.49687 45.184376ZM121.90312 52.73125Q121.90312 52.121876 121.6375 51.66875Q121.37187 51.2 120.8875 50.809376Q120.40312 50.434376 119.54375 50.04375Q118.7 49.6375 117.7 49.215626Q116.7625 49.715626 116.325 50.5125Q115.8875 51.29375 115.8875 52.29375Q115.8875 53.73125 116.73125 54.621876Q117.575 55.496876 118.98125 55.496876Q120.325 55.496876 121.10625 54.715626Q121.90312 53.934376 121.90312 52.73125ZM134.98125 46.825Q135.60625 47.575 135.90312 48.590626Q136.21562 49.60625 136.21562 50.7Q136.21562 52.028126 135.84062 53.090626Q135.46562 54.1375 134.79375 54.825Q134.10625 55.54375 133.16875 55.903126Q132.23125 56.2625 131.09062 56.2625Q129.825 56.2625 128.84062 55.840626Q127.85625 55.41875 127.23125 54.684376Q126.59062 53.934376 126.2625 52.91875Q125.95 51.8875 125.95 50.7Q125.95 49.54375 126.2625 48.575Q126.575 47.590626 127.23125 46.79375Q127.85625 46.04375 128.84062 45.60625Q129.825 45.153126 131.09062 45.153126Q132.43437 45.153126 133.3875 45.60625Q134.34062 46.059376 134.98125 46.825ZM134.05937 50.7Q134.05937 48.3875 133.2625 47.10625Q132.46562 45.825 131.10625 45.825Q129.71562 45.825 128.91875 47.10625Q128.12187 48.3875 128.12187 50.7Q128.12187 52.91875 128.8875 54.2625Q129.65312 55.590626 131.09062 55.590626Q132.5125 55.590626 133.27812 54.2625Q134.05937 52.91875 134.05937 50.7Z" fill-rule="nonzero"/><path fill="#000000" d="M301.55737 624.5656L300.86987 631.05L284.16675 631.05L284.16675 630.53436L297.2605 611.425L292.46362 611.425Q291.6355 611.425 291.05737 611.45624Q290.49487 611.47186 290.02612 611.5656Q289.05737 611.7531 287.85425 613.15936Q286.65112 614.5656 286.02612 616.14374L285.0105 616.14374L285.6355 610.26874L301.21362 610.26874L301.21362 610.76874L288.11987 629.89374L293.05737 629.89374Q294.30737 629.89374 295.71362 629.72186Q297.11987 629.53436 297.54175 629.1125Q298.49487 628.20624 299.30737 626.89374Q300.1355 625.5656 300.54175 624.5656L301.55737 624.5656ZM315.66675 627.64374Q314.7605 629.3781 313.22925 630.40936Q311.71362 631.425 309.72925 631.425Q307.99487 631.425 306.68237 630.8156Q305.36987 630.20624 304.5105 629.14374Q303.66675 628.09686 303.24487 626.6906Q302.83862 625.28436 302.83862 623.70624Q302.83862 622.3 303.27612 620.95624Q303.72925 619.59686 304.58862 618.5031Q305.41675 617.47186 306.65112 616.83124Q307.90112 616.1906 309.43237 616.1906Q311.02612 616.1906 312.15112 616.6906Q313.27612 617.1906 313.97925 618.05Q314.65112 618.8781 314.97925 619.9875Q315.30737 621.09686 315.30737 622.40936L315.30737 623.3781L305.74487 623.3781Q305.74487 624.8 306.0105 625.95624Q306.29175 627.1125 306.86987 627.9875Q307.448 628.83124 308.36987 629.33124Q309.29175 629.8156 310.573 629.8156Q311.86987 629.8156 312.80737 629.20624Q313.7605 628.59686 314.6355 627.01874L315.66675 627.64374ZM312.43237 622.14374Q312.43237 621.3156 312.29175 620.3781Q312.15112 619.4406 311.83862 618.8156Q311.5105 618.14374 310.91675 617.72186Q310.33862 617.3 309.40112 617.3Q307.86987 617.3 306.85425 618.58124Q305.83862 619.8625 305.74487 622.14374L312.43237 622.14374ZM328.8855 618.47186Q328.8855 619.20624 328.5105 619.8Q328.15112 620.3781 327.40112 620.3781Q326.573 620.3781 326.1355 619.95624Q325.71362 619.51874 325.71362 619.0031Q325.71362 618.6906 325.7605 618.425Q325.80737 618.15936 325.85425 617.89374Q325.16675 617.89374 324.24487 618.45624Q323.323 619.0031 322.68237 620.03436L322.68237 628.4406Q322.68237 628.95624 322.86987 629.28436Q323.073 629.59686 323.49487 629.7531Q323.86987 629.90936 324.448 629.9875Q325.02612 630.05 325.448 630.08124L325.448 631.05L317.83862 631.05L317.83862 630.08124Q318.16675 630.05 318.52612 630.01874Q318.8855 629.9875 319.15112 629.90936Q319.55737 629.76874 319.74487 629.4406Q319.948 629.1125 319.948 628.58124L319.948 619.675Q319.948 619.20624 319.72925 618.76874Q319.52612 618.33124 319.15112 618.0656Q318.86987 617.89374 318.47925 617.8156Q318.10425 617.7375 317.66675 617.70624L317.66675 616.7531L322.47925 616.425L322.68237 616.6281L322.68237 618.675L322.7605 618.675Q323.66675 617.4875 324.77612 616.8781Q325.8855 616.2531 326.80737 616.2531Q327.72925 616.2531 328.30737 616.8625Q328.8855 617.45624 328.8855 618.47186ZM343.90112 623.675Q343.90112 625.20624 343.41675 626.675Q342.948 628.14374 342.04175 629.175Q341.04175 630.34686 339.698 630.925Q338.36987 631.4875 336.71362 631.4875Q335.33862 631.4875 334.08862 630.97186Q332.85425 630.45624 331.8855 629.45624Q330.93237 628.47186 330.36987 627.0656Q329.80737 625.64374 329.80737 623.89374Q329.80737 620.5031 331.77612 618.34686Q333.74487 616.1906 336.93237 616.1906Q339.96362 616.1906 341.93237 618.2375Q343.90112 620.28436 343.90112 623.675ZM340.86987 623.70624Q340.86987 622.6125 340.65112 621.39374Q340.43237 620.15936 339.99487 619.3156Q339.52612 618.40936 338.7605 617.8625Q338.0105 617.3156 336.90112 617.3156Q335.77612 617.3156 334.97925 617.8781Q334.18237 618.425 333.68237 619.39374Q333.21362 620.28436 333.02612 621.425Q332.83862 622.5656 332.83862 623.64374Q332.83862 625.05 333.05737 626.2375Q333.29175 627.425 333.79175 628.3625Q334.29175 629.3 335.04175 629.84686Q335.79175 630.3781 336.90112 630.3781Q338.74487 630.3781 339.80737 628.6125Q340.86987 626.83124 340.86987 623.70624ZM354.74487 624.2375L346.02612 624.2375L346.02612 621.9406L354.74487 621.9406L354.74487 624.2375ZM370.15112 621.51874Q370.80737 622.2531 371.11987 623.1281Q371.43237 623.9875 371.43237 625.14374Q371.43237 627.89374 369.40112 629.6906Q367.36987 631.47186 364.33862 631.47186Q362.948 631.47186 361.55737 631.05Q360.16675 630.6125 359.16675 629.9875L358.52612 631.0656L357.35425 631.0656L357.15112 623.9406L358.33862 623.9406Q358.71362 625.26874 359.198 626.33124Q359.68237 627.39374 360.49487 628.3156Q361.2605 629.175 362.27612 629.6906Q363.29175 630.20624 364.6355 630.20624Q365.65112 630.20624 366.40112 629.9406Q367.15112 629.675 367.61987 629.1906Q368.08862 628.70624 368.323 628.0656Q368.55737 627.40936 368.55737 626.55Q368.55737 625.3 367.85425 624.2375Q367.15112 623.15936 365.74487 622.59686Q364.80737 622.22186 363.573 621.76874Q362.33862 621.3 361.448 620.8781Q359.68237 620.09686 358.71362 618.8156Q357.74487 617.53436 357.74487 615.45624Q357.74487 614.28436 358.22925 613.2531Q358.71362 612.22186 359.60425 611.425Q360.448 610.65936 361.60425 610.2375Q362.7605 609.8 364.02612 609.8Q365.46362 609.8 366.58862 610.2375Q367.72925 610.675 368.66675 611.2531L369.2605 610.26874L370.43237 610.26874L370.55737 617.15936L369.36987 617.15936Q369.04175 615.97186 368.6355 614.89374Q368.24487 613.8156 367.60425 612.925Q366.96362 612.08124 366.05737 611.58124Q365.15112 611.0656 363.83862 611.0656Q362.448 611.0656 361.46362 611.97186Q360.47925 612.8625 360.47925 614.14374Q360.47925 615.4875 361.10425 616.3781Q361.74487 617.26874 362.93237 617.83124Q364.0105 618.34686 365.04175 618.72186Q366.073 619.09686 367.04175 619.51874Q367.91675 619.90936 368.72925 620.39374Q369.54175 620.8625 370.15112 621.51874ZM389.52612 631.05L382.43237 631.05L382.43237 630.08124Q382.7605 630.05 383.16675 630.01874Q383.58862 629.9875 383.85425 629.90936Q384.2605 629.76874 384.448 629.4406Q384.65112 629.1125 384.65112 628.58124L384.65112 621.15936Q384.65112 619.6281 383.93237 618.8Q383.21362 617.95624 382.16675 617.95624Q381.40112 617.95624 380.74487 618.20624Q380.10425 618.4406 379.58862 618.78436Q379.08862 619.15936 378.823 619.53436Q378.55737 619.89374 378.41675 620.14374L378.41675 628.4406Q378.41675 628.9406 378.60425 629.26874Q378.80737 629.58124 379.22925 629.7531Q379.54175 629.90936 379.8855 629.9875Q380.22925 630.05 380.6355 630.08124L380.6355 631.05L373.55737 631.05L373.55737 630.08124Q373.8855 630.05 374.24487 630.01874Q374.61987 629.9875 374.86987 629.90936Q375.27612 629.76874 375.47925 629.4406Q375.698 629.1125 375.698 628.58124L375.698 611.76874Q375.698 611.26874 375.46362 610.78436Q375.24487 610.28436 374.86987 610.03436Q374.60425 609.83124 373.93237 609.7531Q373.27612 609.675 372.86987 609.64374L372.86987 608.70624L378.21362 608.3781L378.41675 608.59686L378.41675 618.675L378.47925 618.675Q378.96362 618.1906 379.35425 617.8156Q379.74487 617.4406 380.40112 617.03436Q380.948 616.675 381.698 616.4406Q382.46362 616.20624 383.40112 616.20624Q385.323 616.20624 386.36987 617.4406Q387.41675 618.65936 387.41675 620.95624L387.41675 628.47186Q387.41675 628.9875 387.58862 629.3Q387.77612 629.6125 388.198 629.78436Q388.54175 629.925 388.80737 629.9875Q389.073 630.05 389.52612 630.08124L389.52612 631.05ZM405.90112 623.675Q405.90112 625.20624 405.41675 626.675Q404.948 628.14374 404.04175 629.175Q403.04175 630.34686 401.698 630.925Q400.36987 631.4875 398.71362 631.4875Q397.33862 631.4875 396.08862 630.97186Q394.85425 630.45624 393.8855 629.45624Q392.93237 628.47186 392.36987 627.0656Q391.80737 625.64374 391.80737 623.89374Q391.80737 620.5031 393.77612 618.34686Q395.74487 616.1906 398.93237 616.1906Q401.96362 616.1906 403.93237 618.2375Q405.90112 620.28436 405.90112 623.675ZM402.86987 623.70624Q402.86987 622.6125 402.65112 621.39374Q402.43237 620.15936 401.99487 619.3156Q401.52612 618.40936 400.7605 617.8625Q400.0105 617.3156 398.90112 617.3156Q397.77612 617.3156 396.97925 617.8781Q396.18237 618.425 395.68237 619.39374Q395.21362 620.28436 395.02612 621.425Q394.83862 622.5656 394.83862 623.64374Q394.83862 625.05 395.05737 626.2375Q395.29175 627.425 395.79175 628.3625Q396.29175 629.3 397.04175 629.84686Q397.79175 630.3781 398.90112 630.3781Q400.74487 630.3781 401.80737 628.6125Q402.86987 626.83124 402.86987 623.70624ZM416.74487 630.425Q415.80737 630.8156 414.948 631.08124Q414.10425 631.3625 412.86987 631.3625Q411.05737 631.3625 410.30737 630.4406Q409.573 629.51874 409.573 627.8625L409.573 618.0656L406.96362 618.0656L406.96362 616.65936L409.6355 616.65936L409.6355 612.175L412.29175 612.175L412.29175 616.65936L416.448 616.65936L416.448 618.0656L412.323 618.0656L412.323 626.14374Q412.323 627.05 412.3855 627.65936Q412.46362 628.26874 412.71362 628.72186Q412.948 629.14374 413.41675 629.3625Q413.8855 629.58124 414.66675 629.58124Q415.04175 629.58124 415.74487 629.51874Q416.46362 629.45624 416.74487 629.34686L416.74487 630.425Z" fill-rule="nonzero"/><path fill="#000000" d="M605.5625 615.45624L604.46875 615.45624Q604.15625 614.3 603.1719 612.9875Q602.2031 611.675 601.3125 611.53436Q600.8594 611.47186 600.2344 611.45624Q599.6094 611.425 598.8281 611.425L595.34375 611.425L595.34375 619.76874L597.7344 619.76874Q598.8125 619.76874 599.40625 619.55Q600.0156 619.3156 600.4375 618.84686Q600.7344 618.51874 600.96875 617.84686Q601.21875 617.15936 601.28125 616.39374L602.40625 616.39374L602.40625 624.55L601.28125 624.55Q601.25 623.89374 600.9844 623.08124Q600.7344 622.2531 600.4375 621.89374Q600.0 621.34686 599.3281 621.15936Q598.6719 620.95624 597.7344 620.95624L595.34375 620.95624L595.34375 628.1125Q595.34375 628.59686 595.53125 628.9875Q595.71875 629.3625 596.2031 629.59686Q596.4219 629.70624 597.15625 629.84686Q597.8906 629.9875 598.2656 630.0031L598.2656 631.05L589.2656 631.05L589.2656 630.0031Q589.7031 629.9875 590.4375 629.925Q591.1719 629.84686 591.3906 629.7531Q591.8281 629.55 592.0156 629.1906Q592.21875 628.8156 592.21875 628.28436L592.21875 613.28436Q592.21875 612.8 592.0469 612.425Q591.8906 612.05 591.3906 611.8156Q590.9844 611.6281 590.3125 611.4875Q589.65625 611.33124 589.2656 611.3L589.2656 610.26874L605.5625 610.26874L605.5625 615.45624ZM619.8906 627.64374Q618.9844 629.3781 617.4531 630.40936Q615.9375 631.425 613.9531 631.425Q612.21875 631.425 610.90625 630.8156Q609.59375 630.20624 608.7344 629.14374Q607.8906 628.09686 607.46875 626.6906Q607.0625 625.28436 607.0625 623.70624Q607.0625 622.3 607.5 620.95624Q607.9531 619.59686 608.8125 618.5031Q609.6406 617.47186 610.875 616.83124Q612.125 616.1906 613.65625 616.1906Q615.25 616.1906 616.375 616.6906Q617.5 617.1906 618.2031 618.05Q618.875 618.8781 619.2031 619.9875Q619.53125 621.09686 619.53125 622.40936L619.53125 623.3781L609.96875 623.3781Q609.96875 624.8 610.2344 625.95624Q610.5156 627.1125 611.09375 627.9875Q611.6719 628.83124 612.59375 629.33124Q613.5156 629.8156 614.7969 629.8156Q616.09375 629.8156 617.03125 629.20624Q617.9844 628.59686 618.8594 627.01874L619.8906 627.64374ZM616.65625 622.14374Q616.65625 621.3156 616.5156 620.3781Q616.375 619.4406 616.0625 618.8156Q615.7344 618.14374 615.1406 617.72186Q614.5625 617.3 613.625 617.3Q612.09375 617.3 611.0781 618.58124Q610.0625 619.8625 609.96875 622.14374L616.65625 622.14374ZM643.5781 617.55Q642.9531 617.59686 642.2344 618.05Q641.53125 618.5031 641.21875 619.425Q640.4844 621.5656 639.8281 623.5031Q639.1719 625.425 638.375 627.83124Q638.1094 628.58124 637.8281 629.47186Q637.5625 630.34686 637.34375 631.15936L636.09375 631.15936L632.2031 620.51874L628.2969 631.15936L627.09375 631.15936Q626.0 627.89374 624.9531 624.70624Q623.90625 621.5031 623.09375 619.1281Q622.8594 618.4406 622.2031 618.05Q621.5469 617.64374 620.9219 617.5656L620.9219 616.6125L627.375 616.6125L627.375 617.6281Q626.8906 617.64374 626.3281 617.8Q625.7656 617.9406 625.7656 618.26874Q625.7656 618.33124 625.8125 618.53436Q625.8594 618.72186 625.9375 618.9406Q626.40625 620.47186 627.0 622.3781Q627.59375 624.26874 628.53125 627.3L632.21875 616.89374L633.625 616.89374L637.3906 627.15936Q638.0156 625.1906 638.6406 623.3625Q639.2656 621.51874 639.7344 619.90936Q639.84375 619.51874 639.9375 619.20624Q640.03125 618.89374 640.03125 618.58124Q640.03125 618.3156 639.7969 618.1125Q639.5625 617.90936 639.21875 617.78436Q638.9375 617.65936 638.5781 617.6125Q638.2344 617.55 638.0781 617.55L638.0781 616.6125L643.5781 616.6125L643.5781 617.55ZM652.96875 624.2375L644.25 624.2375L644.25 621.9406L652.96875 621.9406L652.96875 624.2375ZM668.375 621.51874Q669.03125 622.2531 669.34375 623.1281Q669.65625 623.9875 669.65625 625.14374Q669.65625 627.89374 667.625 629.6906Q665.59375 631.47186 662.5625 631.47186Q661.1719 631.47186 659.78125 631.05Q658.3906 630.6125 657.3906 629.9875L656.75 631.0656L655.5781 631.0656L655.375 623.9406L656.5625 623.9406Q656.9375 625.26874 657.4219 626.33124Q657.90625 627.39374 658.71875 628.3156Q659.4844 629.175 660.5 629.6906Q661.5156 630.20624 662.8594 630.20624Q663.875 630.20624 664.625 629.9406Q665.375 629.675 665.84375 629.1906Q666.3125 628.70624 666.5469 628.0656Q666.78125 627.40936 666.78125 626.55Q666.78125 625.3 666.0781 624.2375Q665.375 623.15936 663.96875 622.59686Q663.03125 622.22186 661.7969 621.76874Q660.5625 621.3 659.6719 620.8781Q657.90625 620.09686 656.9375 618.8156Q655.96875 617.53436 655.96875 615.45624Q655.96875 614.28436 656.4531 613.2531Q656.9375 612.22186 657.8281 611.425Q658.6719 610.65936 659.8281 610.2375Q660.9844 609.8 662.25 609.8Q663.6875 609.8 664.8125 610.2375Q665.9531 610.675 666.8906 611.2531L667.4844 610.26874L668.65625 610.26874L668.78125 617.15936L667.59375 617.15936Q667.2656 615.97186 666.8594 614.89374Q666.46875 613.8156 665.8281 612.925Q665.1875 612.08124 664.28125 611.58124Q663.375 611.0656 662.0625 611.0656Q660.6719 611.0656 659.6875 611.97186Q658.7031 612.8625 658.7031 614.14374Q658.7031 615.4875 659.3281 616.3781Q659.96875 617.26874 661.15625 617.83124Q662.2344 618.34686 663.2656 618.72186Q664.2969 619.09686 665.2656 619.51874Q666.1406 619.90936 666.9531 620.39374Q667.7656 620.8625 668.375 621.51874ZM687.75 631.05L680.65625 631.05L680.65625 630.08124Q680.9844 630.05 681.3906 630.01874Q681.8125 629.9875 682.0781 629.90936Q682.4844 629.76874 682.6719 629.4406Q682.875 629.1125 682.875 628.58124L682.875 621.15936Q682.875 619.6281 682.15625 618.8Q681.4375 617.95624 680.3906 617.95624Q679.625 617.95624 678.96875 618.20624Q678.3281 618.4406 677.8125 618.78436Q677.3125 619.15936 677.0469 619.53436Q676.78125 619.89374 676.6406 620.14374L676.6406 628.4406Q676.6406 628.9406 676.8281 629.26874Q677.03125 629.58124 677.4531 629.7531Q677.7656 629.90936 678.1094 629.9875Q678.4531 630.05 678.8594 630.08124L678.8594 631.05L671.78125 631.05L671.78125 630.08124Q672.1094 630.05 672.46875 630.01874Q672.84375 629.9875 673.09375 629.90936Q673.5 629.76874 673.7031 629.4406Q673.9219 629.1125 673.9219 628.58124L673.9219 611.76874Q673.9219 611.26874 673.6875 610.78436Q673.46875 610.28436 673.09375 610.03436Q672.8281 609.83124 672.15625 609.7531Q671.5 609.675 671.09375 609.64374L671.09375 608.70624L676.4375 608.3781L676.6406 608.59686L676.6406 618.675L676.7031 618.675Q677.1875 618.1906 677.5781 617.8156Q677.96875 617.4406 678.625 617.03436Q679.1719 616.675 679.9219 616.4406Q680.6875 616.20624 681.625 616.20624Q683.5469 616.20624 684.59375 617.4406Q685.6406 618.65936 685.6406 620.95624L685.6406 628.47186Q685.6406 628.9875 685.8125 629.3Q686.0 629.6125 686.4219 629.78436Q686.7656 629.925 687.03125 629.9875Q687.2969 630.05 687.75 630.08124L687.75 631.05ZM704.125 623.675Q704.125 625.20624 703.6406 626.675Q703.1719 628.14374 702.2656 629.175Q701.2656 630.34686 699.9219 630.925Q698.59375 631.4875 696.9375 631.4875Q695.5625 631.4875 694.3125 630.97186Q693.0781 630.45624 692.1094 629.45624Q691.15625 628.47186 690.59375 627.0656Q690.03125 625.64374 690.03125 623.89374Q690.03125 620.5031 692.0 618.34686Q693.96875 616.1906 697.15625 616.1906Q700.1875 616.1906 702.15625 618.2375Q704.125 620.28436 704.125 623.675ZM701.09375 623.70624Q701.09375 622.6125 700.875 621.39374Q700.65625 620.15936 700.21875 619.3156Q699.75 618.40936 698.9844 617.8625Q698.2344 617.3156 697.125 617.3156Q696.0 617.3156 695.2031 617.8781Q694.40625 618.425 693.90625 619.39374Q693.4375 620.28436 693.25 621.425Q693.0625 622.5656 693.0625 623.64374Q693.0625 625.05 693.28125 626.2375Q693.5156 627.425 694.0156 628.3625Q694.5156 629.3 695.2656 629.84686Q696.0156 630.3781 697.125 630.3781Q698.96875 630.3781 700.03125 628.6125Q701.09375 626.83124 701.09375 623.70624ZM714.96875 630.425Q714.03125 630.8156 713.1719 631.08124Q712.3281 631.3625 711.09375 631.3625Q709.28125 631.3625 708.53125 630.4406Q707.7969 629.51874 707.7969 627.8625L707.7969 618.0656L705.1875 618.0656L705.1875 616.65936L707.8594 616.65936L707.8594 612.175L710.5156 612.175L710.5156 616.65936L714.6719 616.65936L714.6719 618.0656L710.5469 618.0656L710.5469 626.14374Q710.5469 627.05 710.6094 627.65936Q710.6875 628.26874 710.9375 628.72186Q711.1719 629.14374 711.6406 629.3625Q712.1094 629.58124 712.8906 629.58124Q713.2656 629.58124 713.96875 629.51874Q714.6875 629.45624 714.96875 629.34686L714.96875 630.425Z" fill-rule="nonzero"/><path fill="#000000" d="M842.8176 631.53436Q840.95825 631.53436 839.2395 630.8Q837.5364 630.0656 836.2239 628.6906Q834.927 627.3156 834.14575 625.33124Q833.3645 623.34686 833.3645 620.84686Q833.3645 618.3625 834.1301 616.33124Q834.89575 614.3 836.2395 612.84686Q837.5676 611.39374 839.3801 610.6125Q841.20825 609.8156 843.27075 609.8156Q844.802 609.8156 846.052 610.1906Q847.302 610.5656 848.427 611.2531L849.02075 610.26874L850.1926 610.26874L850.33325 617.675L849.1301 617.675Q848.89575 616.59686 848.427 615.33124Q847.95825 614.05 847.33325 613.175Q846.6301 612.175 845.6614 611.6125Q844.6926 611.05 843.4426 611.05Q842.02075 611.05 840.802 611.6906Q839.58325 612.3156 838.677 613.55Q837.83325 614.7375 837.3489 616.5656Q836.8645 618.39374 836.8645 620.64374Q836.8645 622.64374 837.3645 624.3156Q837.8801 625.97186 838.8176 627.22186Q839.7551 628.47186 841.0364 629.175Q842.3176 629.8781 843.89575 629.8781Q845.08325 629.8781 846.08325 629.5031Q847.08325 629.1281 847.8176 628.51874Q848.5364 627.8781 849.0989 627.0656Q849.6614 626.2375 850.0051 625.26874L851.0989 625.78436Q849.8489 628.8781 847.77075 630.20624Q845.6926 631.53436 842.8176 631.53436ZM867.9739 631.05L860.8801 631.05L860.8801 630.08124Q861.20825 630.05 861.6145 630.01874Q862.0364 629.9875 862.302 629.90936Q862.70825 629.76874 862.89575 629.4406Q863.0989 629.1125 863.0989 628.58124L863.0989 621.15936Q863.0989 619.6281 862.3801 618.8Q861.6614 617.95624 860.6145 617.95624Q859.8489 617.95624 859.1926 618.20624Q858.552 618.4406 858.0364 618.78436Q857.5364 619.15936 857.27075 619.53436Q857.0051 619.89374 856.8645 620.14374L856.8645 628.4406Q856.8645 628.9406 857.052 629.26874Q857.2551 629.58124 857.677 629.7531Q857.9895 629.90936 858.33325 629.9875Q858.677 630.05 859.08325 630.08124L859.08325 631.05L852.0051 631.05L852.0051 630.08124Q852.33325 630.05 852.6926 630.01874Q853.0676 629.9875 853.3176 629.90936Q853.7239 629.76874 853.927 629.4406Q854.14575 629.1125 854.14575 628.58124L854.14575 611.76874Q854.14575 611.26874 853.9114 610.78436Q853.6926 610.28436 853.3176 610.03436Q853.052 609.83124 852.3801 609.7531Q851.7239 609.675 851.3176 609.64374L851.3176 608.70624L856.6614 608.3781L856.8645 608.59686L856.8645 618.675L856.927 618.675Q857.4114 618.1906 857.802 617.8156Q858.1926 617.4406 858.8489 617.03436Q859.39575 616.675 860.14575 616.4406Q860.9114 616.20624 861.8489 616.20624Q863.77075 616.20624 864.8176 617.4406Q865.8645 618.65936 865.8645 620.95624L865.8645 628.47186Q865.8645 628.9875 866.0364 629.3Q866.2239 629.6125 866.64575 629.78436Q866.9895 629.925 867.2551 629.9875Q867.52075 630.05 867.9739 630.08124L867.9739 631.05ZM883.95825 630.78436Q883.27075 631.03436 882.7551 631.1906Q882.2395 631.34686 881.5676 631.34686Q880.427 631.34686 879.7395 630.8156Q879.0676 630.26874 878.8801 629.2531L878.7864 629.2531Q877.83325 630.3 876.7395 630.8625Q875.6614 631.40936 874.1145 631.40936Q872.4895 631.40936 871.4426 630.425Q870.39575 629.425 870.39575 627.8156Q870.39575 626.97186 870.6301 626.3156Q870.8645 625.65936 871.33325 625.1281Q871.6926 624.6906 872.2864 624.34686Q872.89575 624.0031 873.427 623.8Q874.08325 623.55 876.0989 622.8781Q878.1145 622.20624 878.8176 621.8156L878.8176 620.3781Q878.8176 620.175 878.7395 619.64374Q878.6614 619.09686 878.39575 618.6125Q878.0989 618.0656 877.5676 617.675Q877.0364 617.26874 876.052 617.26874Q875.3801 617.26874 874.802 617.5031Q874.2239 617.72186 873.9895 617.97186Q873.9895 618.26874 874.1301 618.84686Q874.27075 619.40936 874.27075 619.89374Q874.27075 620.39374 873.802 620.83124Q873.33325 621.2531 872.52075 621.2531Q871.7864 621.2531 871.4426 620.7375Q871.0989 620.20624 871.0989 619.5656Q871.0989 618.89374 871.5676 618.28436Q872.052 617.65936 872.8176 617.175Q873.4739 616.76874 874.4114 616.4875Q875.3489 616.1906 876.2395 616.1906Q877.4739 616.1906 878.3801 616.3625Q879.302 616.53436 880.052 617.09686Q880.802 617.6281 881.177 618.5656Q881.5676 619.4875 881.5676 620.95624Q881.5676 623.05 881.52075 624.675Q881.4895 626.28436 881.4895 628.20624Q881.4895 628.78436 881.677 629.1281Q881.8801 629.45624 882.2864 629.6906Q882.5051 629.8156 882.9739 629.83124Q883.45825 629.84686 883.95825 629.84686L883.95825 630.78436ZM878.8489 623.05Q877.5989 623.425 876.6614 623.78436Q875.7239 624.1281 874.927 624.64374Q874.1926 625.14374 873.7551 625.83124Q873.33325 626.5031 873.33325 627.4406Q873.33325 628.65936 873.9739 629.2375Q874.6145 629.8 875.5989 629.8Q876.6301 629.8 877.427 629.3Q878.2239 628.8 878.7551 628.1125L878.8489 623.05ZM892.302 631.05L885.302 631.05L885.302 630.08124Q885.64575 630.05 886.0051 630.01874Q886.3645 629.9875 886.6301 629.90936Q887.0364 629.76874 887.2239 629.4406Q887.427 629.1125 887.427 628.58124L887.427 619.675Q887.427 619.20624 887.20825 618.8156Q887.0051 618.425 886.6301 618.15936Q886.3489 617.9875 885.8176 617.8625Q885.2864 617.7375 884.8489 617.70624L884.8489 616.7531L889.95825 616.425L890.1614 616.6281L890.1614 628.40936Q890.1614 628.925 890.3489 629.26874Q890.552 629.59686 890.9739 629.7531Q891.302 629.89374 891.5989 629.97186Q891.9114 630.05 892.302 630.08124L892.302 631.05ZM890.4426 610.7375Q890.4426 611.5656 889.89575 612.1906Q889.3489 612.8156 888.552 612.8156Q887.802 612.8156 887.2395 612.22186Q886.6926 611.6281 886.6926 610.8625Q886.6926 610.0656 887.2395 609.47186Q887.802 608.8625 888.552 608.8625Q889.3801 608.8625 889.9114 609.425Q890.4426 609.9875 890.4426 610.7375ZM910.2239 631.05L903.1614 631.05L903.1614 630.08124Q903.4895 630.05 903.89575 630.01874Q904.302 629.9875 904.5676 629.90936Q904.9739 629.76874 905.1614 629.4406Q905.3645 629.1125 905.3645 628.58124L905.3645 621.15936Q905.3645 619.6281 904.6301 618.8Q903.9114 617.95624 902.8801 617.95624Q902.0989 617.95624 901.45825 618.20624Q900.8176 618.4406 900.3176 618.78436Q899.83325 619.1281 899.5364 619.51874Q899.2551 619.90936 899.1301 620.14374L899.1301 628.4406Q899.1301 628.9406 899.33325 629.26874Q899.5364 629.58124 899.9426 629.7531Q900.2551 629.90936 900.6145 629.9875Q900.9739 630.05 901.3489 630.08124L901.3489 631.05L894.2864 631.05L894.2864 630.08124Q894.6145 630.05 894.9739 630.01874Q895.33325 629.9875 895.5989 629.90936Q896.0051 629.76874 896.1926 629.4406Q896.39575 629.1125 896.39575 628.58124L896.39575 619.675Q896.39575 619.175 896.177 618.7531Q895.9739 618.33124 895.5989 618.0656Q895.3176 617.89374 894.927 617.8156Q894.552 617.7375 894.1145 617.70624L894.1145 616.7531L898.927 616.425L899.1301 616.6281L899.1301 618.675L899.20825 618.675Q899.552 618.3156 900.08325 617.83124Q900.6145 617.33124 901.08325 617.03436Q901.6145 616.675 902.3645 616.4406Q903.1145 616.20624 904.052 616.20624Q906.1301 616.20624 907.1301 617.5031Q908.1301 618.8 908.1301 620.95624L908.1301 628.47186Q908.1301 628.9875 908.302 629.3Q908.4895 629.6125 908.9114 629.78436Q909.27075 629.9406 909.52075 630.0031Q909.77075 630.05 910.2239 630.08124L910.2239 631.05ZM921.1926 624.2375L912.4739 624.2375L912.4739 621.9406L921.1926 621.9406L921.1926 624.2375ZM937.3489 623.675Q937.3489 625.20624 936.8645 626.675Q936.39575 628.14374 935.4895 629.175Q934.4895 630.34686 933.14575 630.925Q931.8176 631.4875 930.1614 631.4875Q928.7864 631.4875 927.5364 630.97186Q926.302 630.45624 925.33325 629.45624Q924.3801 628.47186 923.8176 627.0656Q923.2551 625.64374 923.2551 623.89374Q923.2551 620.5031 925.2239 618.34686Q927.1926 616.1906 930.3801 616.1906Q933.4114 616.1906 935.3801 618.2375Q937.3489 620.28436 937.3489 623.675ZM934.3176 623.70624Q934.3176 622.6125 934.0989 621.39374Q933.8801 620.15936 933.4426 619.3156Q932.9739 618.40936 932.20825 617.8625Q931.45825 617.3156 930.3489 617.3156Q929.2239 617.3156 928.427 617.8781Q927.6301 618.425 927.1301 619.39374Q926.6614 620.28436 926.4739 621.425Q926.2864 622.5656 926.2864 623.64374Q926.2864 625.05 926.5051 626.2375Q926.7395 627.425 927.2395 628.3625Q927.7395 629.3 928.4895 629.84686Q929.2395 630.3781 930.3489 630.3781Q932.1926 630.3781 933.2551 628.6125Q934.3176 626.83124 934.3176 623.70624ZM950.0364 610.1125Q950.0364 610.76874 949.677 611.2375Q949.33325 611.6906 948.6145 611.6906Q948.1614 611.6906 947.8176 611.5031Q947.4739 611.3 947.177 610.9875Q946.8801 610.65936 946.6301 610.2531Q946.3801 609.83124 946.20825 609.59686Q945.2239 609.6281 944.6926 610.95624Q944.1614 612.28436 944.1614 615.1906L944.1614 616.65936L947.8801 616.65936L947.8801 618.0656L944.1614 618.0656L944.1614 628.4406Q944.1614 628.95624 944.3489 629.28436Q944.552 629.59686 944.9739 629.7531Q945.33325 629.89374 945.9114 629.97186Q946.5051 630.05 946.927 630.08124L946.927 631.05L939.302 631.05L939.302 630.08124Q939.64575 630.05 940.0051 630.01874Q940.3645 629.9875 940.6301 629.90936Q941.0364 629.76874 941.2239 629.4406Q941.427 629.1125 941.427 628.58124L941.427 618.0656L938.58325 618.0656L938.58325 616.65936L941.427 616.65936L941.427 615.7375Q941.427 612.4406 943.1301 610.40936Q944.8489 608.3625 947.4114 608.3625Q948.70825 608.3625 949.3645 608.8781Q950.0364 609.3781 950.0364 610.1125ZM958.1926 624.2375L949.4739 624.2375L949.4739 621.9406L958.1926 621.9406L958.1926 624.2375ZM977.552 615.90936L976.5364 615.90936Q976.4114 615.3781 976.0676 614.65936Q975.7239 613.925 975.2864 613.28436Q974.8489 612.6125 974.33325 612.1125Q973.8176 611.59686 973.33325 611.51874Q972.8801 611.47186 972.1926 611.4406Q971.5051 611.40936 970.9114 611.40936L970.0676 611.40936L970.0676 628.03436Q970.0676 628.51874 970.27075 628.925Q970.4739 629.3156 970.9895 629.53436Q971.2551 629.64374 972.0989 629.8156Q972.9426 629.9875 973.4114 630.0031L973.4114 631.05L963.58325 631.05L963.58325 630.0031Q964.0051 629.9875 964.83325 629.89374Q965.677 629.8 966.0051 629.675Q966.4895 629.4875 966.70825 629.1281Q966.9426 628.76874 966.9426 628.15936L966.9426 611.40936L966.0989 611.40936Q965.64575 611.40936 964.95825 611.4406Q964.2864 611.45624 963.677 611.51874Q963.1926 611.58124 962.677 612.1125Q962.1614 612.6281 961.70825 613.28436Q961.27075 613.9406 960.927 614.6906Q960.5989 615.425 960.4739 615.90936L959.4426 615.90936L959.4426 610.26874L977.552 610.26874L977.552 615.90936ZM994.9739 631.05L987.8801 631.05L987.8801 630.08124Q988.20825 630.05 988.6145 630.01874Q989.0364 629.9875 989.302 629.90936Q989.70825 629.76874 989.89575 629.4406Q990.0989 629.1125 990.0989 628.58124L990.0989 621.15936Q990.0989 619.6281 989.3801 618.8Q988.6614 617.95624 987.6145 617.95624Q986.8489 617.95624 986.1926 618.20624Q985.552 618.4406 985.0364 618.78436Q984.5364 619.15936 984.27075 619.53436Q984.0051 619.89374 983.8645 620.14374L983.8645 628.4406Q983.8645 628.9406 984.052 629.26874Q984.2551 629.58124 984.677 629.7531Q984.9895 629.90936 985.33325 629.9875Q985.677 630.05 986.08325 630.08124L986.08325 631.05L979.0051 631.05L979.0051 630.08124Q979.33325 630.05 979.6926 630.01874Q980.0676 629.9875 980.3176 629.90936Q980.7239 629.76874 980.927 629.4406Q981.14575 629.1125 981.14575 628.58124L981.14575 611.76874Q981.14575 611.26874 980.9114 610.78436Q980.6926 610.28436 980.3176 610.03436Q980.052 609.83124 979.3801 609.7531Q978.7239 609.675 978.3176 609.64374L978.3176 608.70624L983.6614 608.3781L983.8645 608.59686L983.8645 618.675L983.927 618.675Q984.4114 618.1906 984.802 617.8156Q985.1926 617.4406 985.8489 617.03436Q986.39575 616.675 987.14575 616.4406Q987.9114 616.20624 988.8489 616.20624Q990.77075 616.20624 991.8176 617.4406Q992.8645 618.65936 992.8645 620.95624L992.8645 628.47186Q992.8645 628.9875 993.0364 629.3Q993.2239 629.6125 993.64575 629.78436Q993.9895 629.925 994.2551 629.9875Q994.52075 630.05 994.9739 630.08124L994.9739 631.05ZM1011.3489 623.675Q1011.3489 625.20624 1010.8645 626.675Q1010.39575 628.14374 1009.4895 629.175Q1008.4895 630.34686 1007.14575 630.925Q1005.8176 631.4875 1004.1614 631.4875Q1002.7864 631.4875 1001.5364 630.97186Q1000.302 630.45624 999.33325 629.45624Q998.3801 628.47186 997.8176 627.0656Q997.2551 625.64374 997.2551 623.89374Q997.2551 620.5031 999.2239 618.34686Q1001.1926 616.1906 1004.3801 616.1906Q1007.4114 616.1906 1009.3801 618.2375Q1011.3489 620.28436 1011.3489 623.675ZM1008.3176 623.70624Q1008.3176 622.6125 1008.0989 621.39374Q1007.8801 620.15936 1007.4426 619.3156Q1006.9739 618.40936 1006.20825 617.8625Q1005.45825 617.3156 1004.3489 617.3156Q1003.2239 617.3156 1002.427 617.8781Q1001.6301 618.425 1001.1301 619.39374Q1000.6614 620.28436 1000.4739 621.425Q1000.2864 622.5656 1000.2864 623.64374Q1000.2864 625.05 1000.5051 626.2375Q1000.7395 627.425 1001.2395 628.3625Q1001.7395 629.3 1002.4895 629.84686Q1003.2395 630.3781 1004.3489 630.3781Q1006.1926 630.3781 1007.2551 628.6125Q1008.3176 626.83124 1008.3176 623.70624ZM1028.7551 630.78436L1024.0676 631.1125L1023.83325 630.90936L1023.83325 629.0656L1023.7551 629.0656Q1023.39575 629.4406 1022.95825 629.8625Q1022.52075 630.26874 1021.95825 630.6125Q1021.2864 631.0031 1020.677 631.20624Q1020.0676 631.40936 1018.927 631.40936Q1017.02075 631.40936 1016.0051 630.15936Q1015.0051 628.90936 1015.0051 626.51874L1015.0051 619.6125Q1015.0051 619.08124 1014.802 618.72186Q1014.6145 618.3625 1014.2239 618.09686Q1013.9739 617.925 1013.5676 617.84686Q1013.177 617.76874 1012.7395 617.7375L1012.7395 616.78436L1017.552 616.425L1017.77075 616.6281L1017.77075 626.675Q1017.77075 628.2375 1018.4739 629.03436Q1019.177 629.8156 1020.1614 629.8156Q1020.9739 629.8156 1021.5989 629.5656Q1022.2239 629.3156 1022.6614 628.9875Q1023.052 628.675 1023.3489 628.33124Q1023.64575 627.9875 1023.8176 627.6906L1023.8176 619.5031Q1023.8176 619.01874 1023.5989 618.64374Q1023.39575 618.26874 1023.0364 618.01874Q1022.77075 617.83124 1022.2395 617.8Q1021.7239 617.76874 1021.08325 617.7375L1021.08325 616.78436L1026.3333 616.425L1026.552 616.6281L1026.552 628.1125Q1026.552 628.59686 1026.7551 628.95624Q1026.9583 629.3 1027.3333 629.55Q1027.5833 629.72186 1027.9426 629.76874Q1028.3176 629.8156 1028.7551 629.83124L1028.7551 630.78436ZM1043.6614 629.55Q1044.2395 630.1125 1044.5676 630.8156Q1044.9114 631.51874 1044.9114 632.5656Q1044.9114 633.59686 1044.4583 634.5031Q1044.0051 635.425 1043.0833 636.09686Q1042.0989 636.8 1040.7395 637.175Q1039.3801 637.55 1037.3801 637.55Q1034.0989 637.55 1032.4583 636.58124Q1030.8333 635.6281 1030.8333 633.78436Q1030.8333 632.3 1032.0051 631.425Q1033.177 630.5656 1035.0051 630.4875L1035.0051 630.28436Q1034.5676 630.15936 1034.0989 629.95624Q1033.6301 629.7531 1033.2864 629.5031Q1032.9114 629.1906 1032.677 628.76874Q1032.4426 628.34686 1032.4426 627.7375Q1032.4426 626.95624 1032.9895 626.3156Q1033.5364 625.65936 1034.6458 625.1906L1034.6458 624.97186Q1033.2395 624.3156 1032.4583 623.28436Q1031.6926 622.2531 1031.6926 620.8781Q1031.6926 618.83124 1033.2239 617.51874Q1034.7551 616.1906 1037.1458 616.1906Q1037.802 616.1906 1038.4426 616.33124Q1039.0989 616.45624 1039.7708 616.65936L1044.8176 616.65936L1044.8176 618.0656L1041.4114 618.0656L1041.4114 618.15936Q1041.9583 618.78436 1042.2239 619.55Q1042.4895 620.3156 1042.4895 621.05Q1042.4895 622.95624 1040.9426 624.26874Q1039.3958 625.58124 1037.3489 625.58124L1035.5676 625.58124Q1035.2395 625.70624 1034.8645 626.01874Q1034.5051 626.3156 1034.5051 626.84686Q1034.5051 627.39374 1034.802 627.675Q1035.1145 627.95624 1035.552 628.0656Q1035.9739 628.175 1036.5364 628.20624Q1037.1145 628.2375 1037.7083 628.2531Q1038.3489 628.26874 1039.4739 628.34686Q1040.5989 628.40936 1041.0676 628.425Q1041.7395 628.45624 1042.4114 628.7531Q1043.0989 629.05 1043.6614 629.55ZM1039.7083 620.9875Q1039.7083 619.26874 1039.0051 618.2531Q1038.3176 617.2375 1037.052 617.2375Q1036.3645 617.2375 1035.8645 617.51874Q1035.3801 617.8 1035.0676 618.33124Q1034.7864 618.8156 1034.6614 619.5031Q1034.5364 620.175 1034.5364 620.89374Q1034.5364 622.51874 1035.2395 623.55Q1035.9583 624.58124 1037.0833 624.58124Q1038.3333 624.58124 1039.0208 623.5656Q1039.7083 622.53436 1039.7083 620.9875ZM1042.5208 633.09686Q1042.5208 632.28436 1042.1301 631.7531Q1041.7551 631.22186 1040.9739 631.03436Q1040.5676 630.97186 1039.2864 630.90936Q1038.0208 630.83124 1036.3333 630.83124Q1034.7551 631.14374 1034.0833 631.8625Q1033.4114 632.58124 1033.4114 633.7375Q1033.4114 634.2375 1033.6301 634.70624Q1033.8645 635.175 1034.3958 635.58124Q1034.9114 635.95624 1035.7708 636.1906Q1036.6458 636.4406 1037.8801 636.4406Q1040.0364 636.4406 1041.2708 635.6125Q1042.5208 634.78436 1042.5208 633.09686ZM1061.9739 631.05L1054.8801 631.05L1054.8801 630.08124Q1055.2083 630.05 1055.6145 630.01874Q1056.0364 629.9875 1056.302 629.90936Q1056.7083 629.76874 1056.8958 629.4406Q1057.0989 629.1125 1057.0989 628.58124L1057.0989 621.15936Q1057.0989 619.6281 1056.3801 618.8Q1055.6614 617.95624 1054.6145 617.95624Q1053.8489 617.95624 1053.1926 618.20624Q1052.552 618.4406 1052.0364 618.78436Q1051.5364 619.15936 1051.2708 619.53436Q1051.0051 619.89374 1050.8645 620.14374L1050.8645 628.4406Q1050.8645 628.9406 1051.052 629.26874Q1051.2551 629.58124 1051.677 629.7531Q1051.9895 629.90936 1052.3333 629.9875Q1052.677 630.05 1053.0833 630.08124L1053.0833 631.05L1046.0051 631.05L1046.0051 630.08124Q1046.3333 630.05 1046.6926 630.01874Q1047.0676 629.9875 1047.3176 629.90936Q1047.7239 629.76874 1047.927 629.4406Q1048.1458 629.1125 1048.1458 628.58124L1048.1458 611.76874Q1048.1458 611.26874 1047.9114 610.78436Q1047.6926 610.28436 1047.3176 610.03436Q1047.052 609.83124 1046.3801 609.7531Q1045.7239 609.675 1045.3176 609.64374L1045.3176 608.70624L1050.6614 608.3781L1050.8645 608.59686L1050.8645 618.675L1050.927 618.675Q1051.4114 618.1906 1051.802 617.8156Q1052.1926 617.4406 1052.8489 617.03436Q1053.3958 616.675 1054.1458 616.4406Q1054.9114 616.20624 1055.8489 616.20624Q1057.7708 616.20624 1058.8176 617.4406Q1059.8645 618.65936 1059.8645 620.95624L1059.8645 628.47186Q1059.8645 628.9875 1060.0364 629.3Q1060.2239 629.6125 1060.6458 629.78436Q1060.9895 629.925 1061.2551 629.9875Q1061.5208 630.05 1061.9739 630.08124L1061.9739 631.05ZM1073.1926 630.425Q1072.2551 630.8156 1071.3958 631.08124Q1070.552 631.3625 1069.3176 631.3625Q1067.5051 631.3625 1066.7551 630.4406Q1066.0208 629.51874 1066.0208 627.8625L1066.0208 618.0656L1063.4114 618.0656L1063.4114 616.65936L1066.0833 616.65936L1066.0833 612.175L1068.7395 612.175L1068.7395 616.65936L1072.8958 616.65936L1072.8958 618.0656L1068.7708 618.0656L1068.7708 626.14374Q1068.7708 627.05 1068.8333 627.65936Q1068.9114 628.26874 1069.1614 628.72186Q1069.3958 629.14374 1069.8645 629.3625Q1070.3333 629.58124 1071.1145 629.58124Q1071.4895 629.58124 1072.1926 629.51874Q1072.9114 629.45624 1073.1926 629.34686L1073.1926 630.425Z" fill-rule="nonzero"/></svg>